<svg id="svg" version="1.1" xmlns="http://www.w3.org/2000/svg" xmlns:xlink="http://www.w3.org/1999/xlink" width="400" height="192.59259259259258" viewBox="0, 0, 400,192.59259259259258"><g id="svgg"><path id="path0" d="M196.148 14.822 C 195.419 15.305,191.213 16.499,187.259 17.346 C 172.981 20.404,160.332 28.876,159.761 35.762 C 159.607 37.612,159.695 37.593,156.810 36.393 C 152.177 34.464,143.734 27.642,143.249 25.436 C 143.131 24.897,142.818 24.460,142.487 24.374 C 142.178 24.293,141.926 24.052,141.926 23.838 C 141.926 23.322,141.102 22.519,140.571 22.519 C 139.946 22.519,140.053 23.240,140.935 24.973 C 141.895 26.859,142.204 30.963,141.639 34.313 L 141.279 36.447 139.411 34.742 C 131.391 27.421,124.161 27.408,109.973 34.689 C 101.914 38.826,100.138 39.583,96.148 40.583 C 93.023 41.367,92.889 41.432,92.901 42.182 C 92.907 42.611,92.807 42.963,92.678 42.963 C 91.708 42.963,92.878 43.924,95.026 44.891 C 98.616 46.508,100.661 48.575,102.793 52.741 C 105.597 58.221,107.498 60.542,110.370 61.993 C 111.022 62.322,111.611 62.642,111.679 62.703 C 111.746 62.764,111.213 63.395,110.494 64.104 C 107.343 67.211,106.880 70.446,108.981 74.670 C 110.110 76.938,110.261 77.503,110.517 80.422 C 111.254 88.823,116.802 95.499,123.633 96.204 L 125.253 96.371 122.997 97.508 C 117.535 100.263,114.286 104.145,112.608 109.926 C 112.253 111.148,111.282 113.513,110.451 115.181 C 108.609 118.876,108.256 121.596,109.249 124.444 C 109.946 126.445,111.024 126.837,110.880 125.037 C 110.513 120.425,110.632 119.331,111.763 116.963 C 112.366 115.700,112.900 114.667,112.948 114.667 C 112.997 114.667,114.170 114.867,115.556 115.111 C 118.335 115.601,121.481 115.700,121.481 115.298 C 121.481 115.156,120.648 114.951,119.630 114.842 C 116.980 114.560,113.373 113.471,113.771 113.074 C 114.145 112.699,117.459 112.760,119.682 113.181 C 121.823 113.587,125.056 113.542,127.485 113.072 C 130.606 112.468,130.206 112.300,125.750 112.342 C 123.034 112.368,120.733 112.215,118.998 111.894 C 117.551 111.627,115.901 111.407,115.332 111.407 C 112.078 111.407,117.832 102.585,123.003 99.644 C 128.984 96.243,144.370 94.470,151.111 96.405 C 154.142 97.275,154.370 97.304,154.370 96.821 C 154.370 96.582,154.073 96.254,153.710 96.092 L 153.049 95.797 153.710 95.444 C 154.119 95.225,154.370 94.812,154.370 94.360 C 154.370 93.958,154.537 93.630,154.741 93.630 C 154.944 93.629,156.834 92.776,158.939 91.733 L 162.766 89.836 160.812 91.659 C 158.131 94.159,156.776 95.955,153.350 101.551 L 150.406 106.362 148.314 107.222 C 142.368 109.666,136.671 109.897,132.351 107.869 C 129.588 106.572,129.600 106.586,130.361 105.557 C 131.771 103.650,130.227 102.265,128.412 103.807 C 126.228 105.662,125.614 108.700,127.659 107.526 C 128.443 107.076,128.520 107.091,129.437 107.857 C 132.957 110.795,140.058 111.700,145.907 109.956 C 148.512 109.180,148.509 109.070,145.961 112.021 C 143.289 115.114,138.894 117.023,139.197 114.959 C 139.408 113.516,138.596 113.528,136.436 114.999 C 134.375 116.404,134.116 117.002,135.249 117.744 C 136.183 118.356,136.442 118.345,137.419 117.656 C 137.861 117.345,138.909 117.033,139.748 116.962 L 141.273 116.834 139.748 118.145 C 133.921 123.155,125.354 127.452,116.802 129.653 C 112.044 130.878,112.441 130.873,112.106 129.706 C 111.666 128.172,110.716 128.205,110.863 129.750 C 110.957 130.738,110.886 130.963,110.477 130.963 C 110.200 130.963,109.795 131.032,109.577 131.116 C 109.296 131.223,109.180 130.997,109.182 130.351 C 109.188 128.750,106.486 128.193,105.819 129.657 C 104.706 132.099,106.406 134.502,108.000 132.741 C 108.392 132.307,108.913 132.148,109.938 132.148 L 111.340 132.148 111.544 133.506 C 111.656 134.253,111.937 135.400,112.168 136.056 C 112.559 137.163,112.552 137.231,112.072 137.026 C 108.166 135.357,104.042 135.934,99.782 138.746 C 97.356 140.347,92.230 145.483,91.969 146.574 C 91.860 147.032,91.636 147.577,91.472 147.785 C 90.925 148.480,91.560 148.567,93.466 148.059 C 96.959 147.128,99.437 147.498,105.451 149.845 C 107.308 150.570,109.548 151.237,110.429 151.328 C 111.757 151.465,111.995 151.575,111.821 151.969 C 109.861 156.416,110.684 160.945,112.932 158.087 C 113.863 156.902,115.690 156.127,118.642 155.662 C 123.952 154.825,126.474 153.550,129.742 150.051 L 131.823 147.823 132.446 149.270 C 132.793 150.077,133.783 151.423,134.682 152.312 C 135.570 153.188,136.296 154.077,136.296 154.286 C 136.296 154.495,136.463 154.669,136.667 154.671 C 137.286 154.679,139.254 157.639,139.448 158.857 C 139.608 159.857,140.444 160.568,140.444 159.704 C 140.444 159.541,140.697 159.407,141.006 159.407 C 142.222 159.407,144.696 154.457,145.402 150.610 C 145.997 147.369,145.710 145.386,144.162 142.061 C 143.555 140.754,142.991 139.010,142.899 138.148 C 142.807 137.293,142.591 136.593,142.418 136.593 C 142.220 136.593,142.235 136.461,142.459 136.237 C 142.950 135.746,142.905 134.831,142.380 134.629 C 142.101 134.522,141.168 135.256,139.787 136.665 C 133.711 142.867,127.285 144.834,121.896 142.141 C 120.772 141.580,119.119 140.869,118.222 140.562 L 116.593 140.003 120.148 139.814 C 123.986 139.610,126.163 139.061,129.882 137.359 C 132.284 136.259,138.532 132.605,138.828 132.128 C 139.245 131.452,138.668 131.560,137.270 132.420 C 131.228 136.138,124.583 138.261,118.278 138.487 L 115.053 138.603 114.547 137.746 L 114.041 136.889 114.863 136.889 C 115.920 136.889,123.319 135.124,123.684 134.785 C 124.316 134.198,123.405 134.231,119.368 134.944 C 113.155 136.040,113.748 136.095,113.292 134.370 C 112.662 131.988,112.677 131.958,114.593 131.737 C 123.637 130.695,135.416 124.883,143.301 117.572 C 144.579 116.387,146.328 115.138,147.614 114.492 C 153.729 111.421,158.907 106.834,160.876 102.743 C 162.001 100.406,162.667 99.406,162.667 100.054 C 162.667 101.710,157.953 108.729,156.137 109.778 C 154.258 110.863,143.133 121.602,143.504 121.973 C 143.807 122.276,143.971 122.147,148.008 118.425 C 149.919 116.663,152.193 114.685,153.061 114.030 L 154.639 112.839 155.854 113.815 C 157.180 114.881,157.982 114.780,158.169 113.525 C 158.221 113.175,158.369 112.889,158.497 112.889 C 159.046 112.889,161.675 110.239,162.701 108.651 C 164.068 106.537,164.767 104.476,165.935 99.126 C 166.754 95.371,168.244 92.024,168.841 92.598 C 169.344 93.081,166.968 102.092,165.473 105.373 C 163.066 110.654,156.679 118.446,155.767 117.214 C 154.968 116.136,151.407 117.192,151.407 118.508 C 151.407 119.290,151.777 119.454,153.569 119.470 C 155.516 119.488,157.106 118.494,160.357 115.228 L 162.640 112.935 162.036 114.468 C 159.487 120.938,156.512 124.487,150.963 127.680 C 149.170 128.712,147.070 130.033,146.296 130.617 C 143.843 132.466,144.804 133.195,147.411 131.463 C 148.224 130.923,149.920 129.921,151.180 129.236 C 153.871 127.773,153.920 127.231,150.727 134.233 C 147.732 140.799,147.407 141.844,147.411 144.889 C 147.421 152.192,153.358 154.836,161.058 150.966 L 163.745 149.615 165.500 150.391 C 170.343 152.533,173.524 151.784,179.852 147.010 C 185.774 142.541,187.345 138.950,188.044 128.278 C 188.324 124.013,188.899 124.301,189.120 128.815 C 189.440 135.395,190.764 138.607,194.943 142.941 C 196.526 144.583,198.130 146.374,198.509 146.921 C 199.838 148.842,201.346 148.102,203.556 144.444 C 205.307 141.545,206.112 140.708,205.857 142.053 C 205.314 144.907,209.954 151.704,212.446 151.704 C 213.222 151.704,213.254 151.770,213.438 153.743 C 213.718 156.757,214.559 159.143,217.619 165.596 C 220.787 172.278,220.857 172.467,220.776 174.131 C 220.728 175.113,220.841 175.440,221.316 175.694 C 221.683 175.891,221.889 176.267,221.847 176.662 C 221.672 178.299,222.829 177.445,226.569 173.181 C 232.728 166.157,235.273 162.235,236.585 157.745 L 237.201 155.637 237.932 156.600 C 241.306 161.046,250.644 163.822,266.370 165.052 C 275.049 165.731,283.325 164.440,289.152 161.498 C 290.139 161.000,291.217 160.593,291.547 160.593 C 292.951 160.593,292.263 159.227,290.499 158.511 C 285.697 156.562,281.418 152.290,279.869 147.900 L 279.445 146.697 280.833 146.510 C 284.685 145.992,288.095 144.133,293.037 139.860 C 299.332 134.416,304.651 131.852,309.645 131.852 C 312.475 131.852,312.494 130.558,309.704 127.989 C 303.084 121.895,295.805 118.992,290.332 120.264 L 289.256 120.514 290.532 117.766 C 291.700 115.249,291.834 114.667,291.249 114.667 C 291.134 114.667,289.864 116.667,288.425 119.111 C 286.986 121.556,285.631 123.556,285.414 123.556 C 283.631 123.556,279.314 121.433,273.903 117.895 C 271.935 116.608,270.169 115.556,269.977 115.556 C 268.986 115.556,270.016 116.556,273.489 118.963 C 278.897 122.712,280.786 123.814,282.742 124.362 C 284.702 124.910,284.612 125.282,282.173 126.711 L 280.937 127.435 279.030 126.571 C 277.981 126.095,276.588 125.222,275.933 124.631 C 274.637 123.460,274.370 123.345,274.370 123.959 C 274.370 124.447,276.808 126.770,278.148 127.560 C 279.467 128.338,279.419 128.409,276.853 129.477 C 271.361 131.764,267.495 131.672,263.409 129.158 C 262.077 128.338,261.037 128.249,261.037 128.954 C 261.037 129.138,260.542 129.178,259.743 129.058 C 258.051 128.805,254.712 129.509,252.441 130.599 C 251.465 131.067,250.667 131.424,250.667 131.392 C 250.667 131.360,250.867 130.767,251.111 130.074 C 251.673 128.482,251.651 127.461,251.004 124.979 L 250.486 122.994 251.742 124.151 C 253.145 125.445,254.756 126.222,256.036 126.222 C 257.288 126.222,257.077 125.782,255.544 125.196 C 253.701 124.492,252.746 123.622,250.675 120.752 C 248.626 117.914,247.386 116.744,245.312 115.693 C 242.940 114.491,241.686 113.132,240.017 109.957 C 239.169 108.345,237.744 106.139,236.849 105.054 L 235.223 103.083 236.661 103.811 C 239.814 105.409,241.193 105.640,246.815 105.509 C 259.913 105.203,261.036 105.323,265.481 107.503 C 266.704 108.102,267.804 108.637,267.926 108.691 C 268.048 108.746,268.148 108.585,268.148 108.335 C 268.148 107.701,263.800 105.619,260.889 104.859 C 258.793 104.312,257.558 104.234,250.222 104.181 C 242.068 104.122,241.885 104.107,239.556 103.321 C 236.204 102.189,236.176 102.078,239.228 102.040 C 242.396 102.000,244.709 101.413,247.329 99.985 C 248.346 99.432,249.362 99.050,249.589 99.136 C 250.341 99.425,251.756 97.931,251.276 97.354 C 250.437 96.343,247.555 96.836,247.558 97.991 C 247.560 98.999,246.615 99.518,243.111 100.429 C 240.297 101.161,233.802 100.502,232.536 99.356 C 232.248 99.096,231.668 98.845,231.245 98.799 C 230.413 98.707,227.942 97.294,226.519 96.096 L 225.630 95.347 226.667 95.540 C 231.055 96.356,237.537 96.518,242.727 95.941 C 252.602 94.843,263.701 98.736,270.728 105.763 C 272.040 107.075,273.196 108.148,273.297 108.148 C 274.279 108.148,269.906 103.433,266.685 101.020 C 262.138 97.613,256.279 95.141,250.904 94.361 L 249.512 94.160 251.201 93.316 C 256.457 90.688,260.453 85.575,264.929 75.747 C 266.054 73.279,267.071 71.111,267.190 70.930 C 267.310 70.750,267.655 70.251,267.959 69.822 C 268.706 68.763,268.410 68.148,267.152 68.148 C 265.128 68.148,263.268 71.046,264.903 71.651 C 266.324 72.177,259.341 84.456,255.416 88.335 C 249.977 93.710,238.464 96.239,229.037 94.131 L 227.111 93.700 230.286 93.665 C 239.202 93.566,246.813 91.313,252.839 86.989 C 254.108 86.079,255.380 85.333,255.665 85.333 C 257.947 85.333,257.448 83.452,255.131 83.317 C 253.262 83.208,252.621 83.621,252.853 84.783 C 253.444 87.741,239.262 92.293,231.416 91.665 C 228.457 91.427,228.344 91.509,234.667 89.322 C 244.115 86.054,247.943 83.608,255.927 75.735 C 262.497 69.258,262.997 67.738,256.538 73.878 C 248.830 81.205,244.794 83.918,237.333 86.785 L 234.222 87.980 235.556 86.796 C 238.133 84.506,239.820 83.526,240.065 84.176 C 240.441 85.177,241.403 84.822,242.674 83.214 C 244.708 80.642,243.637 79.207,241.333 81.417 C 240.681 82.042,239.615 82.868,238.963 83.252 C 238.311 83.636,236.637 84.789,235.243 85.814 C 229.597 89.965,226.167 91.379,222.658 91.000 L 220.593 90.778 221.926 90.399 C 227.639 88.776,230.349 86.962,236.167 80.869 C 241.241 75.555,243.499 73.582,246.315 72.001 L 248.038 71.033 248.480 71.665 C 249.317 72.860,251.852 71.972,251.852 70.484 C 251.852 70.241,252.199 69.346,252.623 68.495 C 254.116 65.499,251.890 65.022,250.096 67.954 C 249.225 69.379,248.773 69.798,247.547 70.324 C 243.198 72.188,240.418 74.258,234.519 80.022 C 229.119 85.298,224.374 88.659,226.787 85.498 C 227.340 84.773,228.361 83.140,229.055 81.868 C 229.750 80.596,230.564 79.202,230.863 78.769 C 231.920 77.242,231.288 75.716,229.904 76.456 C 229.291 76.784,229.149 77.623,229.626 78.101 C 229.948 78.422,226.354 84.146,225.178 85.185 C 224.534 85.754,224.537 85.730,225.254 84.582 C 227.803 80.504,228.417 78.175,226.996 77.974 C 226.145 77.854,225.766 78.372,225.959 79.393 C 226.147 80.383,223.970 84.100,221.938 86.261 L 220.442 87.852 221.586 86.074 C 223.604 82.934,226.074 76.544,226.074 74.461 C 226.074 73.918,226.228 73.226,226.417 72.924 C 226.906 72.141,226.519 71.345,225.705 71.461 C 225.116 71.544,225.046 71.705,225.117 72.822 C 225.231 74.616,224.466 77.316,222.893 80.670 C 221.376 83.906,221.160 84.119,221.782 81.764 C 222.016 80.875,222.423 78.748,222.685 77.037 C 222.947 75.326,223.427 72.862,223.752 71.562 C 225.053 66.359,225.826 53.368,224.815 53.703 C 224.553 53.790,224.381 55.164,224.227 58.394 C 223.958 64.032,223.670 65.959,223.113 65.834 C 221.536 65.477,220.665 67.054,221.944 67.950 C 222.825 68.567,222.506 71.023,220.812 76.666 C 219.263 81.828,218.999 82.242,219.886 78.124 C 220.590 74.854,220.503 74.233,219.371 74.450 C 218.635 74.590,218.609 74.550,218.768 73.521 C 219.410 69.363,219.228 68.348,217.930 68.846 C 217.368 69.062,217.345 70.196,217.893 70.634 C 218.348 70.998,217.708 74.830,216.106 81.333 C 215.046 85.631,214.703 84.668,214.995 78.222 C 215.383 69.684,215.172 68.088,213.038 63.407 C 212.258 61.696,211.536 59.930,211.434 59.481 C 211.332 59.033,211.099 58.667,210.916 58.667 C 210.325 58.667,210.867 61.392,212.004 64.138 C 213.373 67.444,213.914 69.998,213.921 73.177 L 213.926 75.687 212.554 72.939 C 211.302 70.430,211.114 70.198,210.406 70.280 C 209.375 70.400,209.085 71.952,210.046 72.203 C 212.115 72.744,213.945 82.641,212.465 85.285 C 212.098 85.942,210.899 84.063,211.121 83.178 C 211.336 82.319,210.685 81.692,209.720 81.829 C 208.425 82.013,208.699 83.200,210.632 85.781 C 212.747 88.605,212.764 88.552,210.130 87.339 C 208.039 86.377,208.021 86.359,207.416 84.578 L 206.806 82.785 207.429 81.022 C 209.311 75.700,208.037 69.798,204.664 68.213 C 202.193 67.051,202.045 66.653,202.181 61.509 C 202.327 55.932,202.654 54.846,205.162 51.616 C 206.412 50.005,207.451 48.239,208.175 46.493 C 209.460 43.392,211.008 41.472,213.065 40.430 C 215.068 39.415,215.508 39.459,215.247 40.648 C 214.762 42.858,215.088 47.278,216.135 52.682 C 216.712 55.664,217.187 58.530,217.190 59.052 C 217.195 60.136,217.580 60.898,217.992 60.643 C 218.365 60.413,218.174 58.056,217.308 52.212 C 216.322 45.563,216.329 39.111,217.322 39.111 C 217.580 39.111,217.749 40.214,217.901 42.889 C 218.353 50.847,219.143 51.674,219.051 44.093 C 218.992 39.209,219.000 39.147,219.641 39.056 C 220.586 38.921,220.642 38.003,219.731 37.588 C 216.290 36.020,209.464 40.093,207.108 45.121 C 206.480 46.460,205.165 48.666,204.185 50.024 C 201.575 53.638,200.665 57.102,201.036 62.016 L 201.232 64.625 199.801 63.621 C 199.014 63.068,197.937 62.444,197.407 62.235 C 196.309 61.801,196.291 61.712,196.892 59.731 C 197.976 56.157,197.337 53.304,194.767 50.250 L 193.295 48.500 194.537 46.087 C 196.221 42.815,196.658 40.246,196.180 36.444 C 195.186 28.539,196.026 17.640,197.779 15.703 C 198.701 14.684,197.410 13.986,196.148 14.822 M195.417 20.289 C 195.004 21.877,194.667 23.395,194.667 23.662 C 194.667 24.056,194.345 24.148,192.962 24.148 L 191.258 24.148 193.008 20.988 C 194.459 18.368,195.646 16.956,196.083 17.330 C 196.129 17.369,195.829 18.701,195.417 20.289 M192.050 20.796 C 189.558 24.906,189.650 24.871,189.639 21.709 C 189.629 18.658,189.372 18.995,192.148 18.418 C 193.740 18.086,193.743 18.005,192.050 20.796 M188.906 19.469 C 188.799 19.747,188.658 21.381,188.592 23.099 C 188.472 26.195,188.462 26.234,187.387 27.497 C 186.035 29.086,186.058 29.131,186.545 25.926 C 186.768 24.459,186.953 22.368,186.957 21.279 C 186.963 19.348,186.983 19.296,187.778 19.175 C 188.226 19.107,188.707 19.032,188.847 19.007 C 188.986 18.983,189.013 19.191,188.906 19.469 M186.275 21.712 C 186.175 22.898,185.746 24.998,185.322 26.379 C 184.898 27.759,184.482 29.231,184.398 29.648 C 184.314 30.066,184.014 30.552,183.731 30.729 C 183.252 31.028,183.217 30.764,183.220 26.858 C 183.222 24.553,183.076 22.169,182.896 21.560 L 182.569 20.454 183.655 20.175 C 185.011 19.828,185.848 19.634,186.192 19.590 C 186.342 19.571,186.378 20.494,186.275 21.712 M181.939 26.306 L 181.748 32.020 180.652 33.116 L 179.556 34.212 179.550 32.291 C 179.543 29.992,179.143 26.958,178.485 24.208 C 178.220 23.100,178.077 22.120,178.168 22.030 C 178.333 21.865,182.049 20.465,182.102 20.548 C 182.117 20.573,182.044 23.164,181.939 26.306 M177.302 23.630 C 178.742 33.110,178.440 38.222,176.441 38.222 C 176.225 38.222,175.838 38.303,175.580 38.402 C 175.180 38.555,175.111 38.278,175.111 36.515 C 175.111 33.845,174.445 30.065,173.456 27.119 C 172.554 24.433,172.511 24.523,175.259 23.243 C 177.176 22.350,177.105 22.337,177.302 23.630 M172.537 27.704 C 172.972 29.701,173.399 32.911,173.787 37.100 C 173.997 39.371,173.810 39.538,171.259 39.353 L 169.974 39.259 169.441 36.148 C 169.147 34.437,168.591 31.869,168.203 30.442 L 167.499 27.848 169.584 26.514 C 171.983 24.979,171.939 24.961,172.537 27.704 M194.261 25.852 C 194.163 26.219,194.080 27.152,194.078 27.926 L 194.074 29.333 191.926 29.351 C 190.744 29.361,189.138 29.474,188.356 29.603 L 186.933 29.836 187.785 28.918 C 188.254 28.413,189.065 27.442,189.588 26.759 C 190.556 25.497,190.987 25.319,193.294 25.230 C 194.346 25.189,194.425 25.240,194.261 25.852 M167.437 32.762 C 168.711 39.100,168.711 39.111,167.599 39.111 C 167.084 39.111,166.242 39.232,165.727 39.379 L 164.792 39.648 164.343 37.083 C 163.350 31.405,163.353 31.349,164.798 29.967 C 166.513 28.328,166.554 28.372,167.437 32.762 M148.244 36.444 C 148.471 38.644,148.628 40.481,148.592 40.526 C 148.497 40.647,146.443 35.248,145.292 31.852 L 144.287 28.889 146.059 30.667 L 147.831 32.444 148.244 36.444 M146.906 39.556 C 147.563 41.185,148.300 42.985,148.544 43.556 L 148.988 44.593 145.567 42.900 C 143.685 41.969,142.089 41.150,142.019 41.081 C 141.949 41.011,142.156 39.572,142.479 37.884 C 142.803 36.196,143.162 33.700,143.278 32.338 L 143.490 29.860 144.600 33.227 C 145.211 35.078,146.249 37.926,146.906 39.556 M194.073 31.778 L 194.073 33.333 189.555 33.375 C 187.070 33.398,184.237 33.551,183.259 33.715 C 181.046 34.086,181.059 34.108,182.747 32.827 C 184.261 31.680,186.682 31.033,191.286 30.548 C 192.575 30.412,193.730 30.283,193.852 30.262 C 193.974 30.240,194.074 30.922,194.073 31.778 M127.123 34.444 C 128.462 38.690,129.377 40.726,130.705 42.413 L 131.555 43.493 130.309 43.176 C 129.568 42.988,128.635 42.431,128.004 41.800 C 127.422 41.218,126.046 39.896,124.948 38.863 C 123.223 37.242,119.407 32.635,119.407 32.174 C 119.407 31.906,123.977 30.695,125.535 30.551 C 125.734 30.533,126.420 32.214,127.123 34.444 M131.037 31.007 C 132.112 31.309,132.639 31.584,132.412 31.724 C 132.121 31.903,132.152 32.621,132.558 35.112 C 133.322 39.801,134.387 42.636,136.478 45.548 L 136.951 46.207 135.737 45.548 C 135.070 45.185,134.522 44.756,134.520 44.593 C 134.519 44.430,133.515 43.052,132.291 41.532 C 131.067 40.012,129.880 38.410,129.654 37.973 C 129.191 37.078,127.111 31.199,127.111 30.786 C 127.111 30.361,129.139 30.475,131.037 31.007 M138.253 35.146 C 139.480 36.166,140.607 37.042,140.757 37.093 C 140.907 37.144,140.643 38.529,140.171 40.170 C 139.698 41.812,139.217 43.785,139.101 44.554 C 138.514 48.470,133.037 37.231,133.037 32.110 C 133.037 31.441,135.570 32.915,138.253 35.146 M162.973 36.664 C 163.139 37.681,163.352 38.712,163.446 38.956 C 163.566 39.268,163.213 39.174,162.252 38.637 C 160.546 37.683,160.396 36.352,161.704 33.762 L 162.519 32.148 162.594 33.481 C 162.636 34.215,162.807 35.647,162.973 36.664 M119.867 35.185 C 120.812 36.448,122.619 38.548,123.885 39.852 L 126.185 42.222 122.574 42.127 C 120.588 42.075,117.240 42.175,115.135 42.350 C 111.738 42.632,111.248 42.614,110.778 42.189 C 110.487 41.925,109.186 41.157,107.888 40.481 L 105.528 39.252 108.144 37.845 L 110.761 36.438 112.640 38.334 C 114.980 40.695,116.568 41.778,117.693 41.778 C 118.902 41.778,118.688 40.972,117.268 40.174 C 116.030 39.479,112.000 36.136,112.000 35.804 C 112.000 35.539,117.248 32.889,117.772 32.889 C 117.980 32.889,118.923 33.922,119.867 35.185 M152.969 38.667 C 152.843 39.807,152.772 42.607,152.811 44.889 L 152.880 49.037 151.551 46.599 C 150.672 44.986,150.216 43.784,150.204 43.044 C 150.195 42.429,149.892 39.978,149.531 37.597 L 148.876 33.269 151.037 34.931 L 153.197 36.593 152.969 38.667 M194.185 35.000 C 194.287 35.509,194.370 36.257,194.370 36.662 L 194.370 37.399 187.926 37.181 C 184.381 37.061,180.900 36.880,180.188 36.778 L 178.895 36.593 179.448 35.924 C 180.082 35.157,185.191 34.469,192.778 34.129 C 193.926 34.077,194.011 34.130,194.185 35.000 M226.914 35.413 C 225.882 35.986,224.470 36.726,223.778 37.056 C 223.085 37.387,222.519 37.866,222.519 38.120 C 222.519 38.692,223.209 38.549,226.475 37.302 C 232.061 35.169,232.489 35.972,231.890 47.481 C 231.548 54.059,232.036 53.969,232.700 47.333 C 232.982 44.522,233.291 41.580,233.388 40.794 L 233.563 39.367 234.591 41.191 C 235.156 42.194,236.532 43.894,237.648 44.969 C 240.633 47.845,241.005 48.881,240.804 53.770 C 240.690 56.537,240.780 58.495,241.120 60.685 C 241.690 64.351,241.469 65.539,239.687 68.387 C 237.985 71.110,238.480 72.714,240.338 70.492 C 242.746 67.611,243.459 64.563,242.628 60.691 C 242.327 59.286,242.347 59.100,242.834 58.825 C 243.132 58.656,244.548 57.421,245.981 56.081 C 250.331 52.011,253.216 51.384,267.111 51.491 C 270.262 51.516,272.070 52.890,269.290 53.149 C 264.842 53.562,255.111 57.855,255.111 59.404 C 255.111 60.017,255.207 59.992,257.285 58.836 C 261.335 56.584,268.936 54.298,273.556 53.943 C 273.913 53.916,273.811 52.895,273.407 52.457 C 273.204 52.236,273.504 52.396,274.074 52.812 C 275.141 53.591,277.536 54.519,278.479 54.519 C 279.884 54.519,278.796 55.659,276.520 56.573 C 275.631 56.930,275.517 56.907,274.986 56.257 C 274.078 55.146,273.493 55.928,274.170 57.349 C 274.684 58.427,275.681 59.010,279.164 60.272 C 282.043 61.314,283.941 63.386,284.355 65.936 C 284.487 66.747,284.409 66.995,283.969 67.164 C 283.666 67.280,281.795 68.466,279.811 69.799 C 277.827 71.133,274.792 72.940,273.066 73.815 C 270.122 75.309,269.390 75.852,270.319 75.852 C 271.635 75.852,278.462 72.487,281.627 70.279 C 283.385 69.052,283.875 68.814,283.531 69.351 C 283.277 69.749,282.363 71.306,281.500 72.811 C 280.088 75.273,279.724 75.684,277.860 76.912 C 275.575 78.417,275.377 79.371,277.583 78.246 C 278.247 77.907,278.857 77.630,278.938 77.630 C 279.236 77.630,277.577 81.729,275.978 84.945 C 272.821 91.292,269.942 93.281,263.455 93.596 C 259.428 93.791,258.343 94.342,260.889 94.900 C 266.497 96.127,274.535 92.523,276.195 88.038 C 276.560 87.052,280.863 88.619,283.156 90.573 C 284.263 91.517,285.404 92.118,287.304 92.761 C 293.900 94.991,296.857 100.207,295.051 106.423 L 294.734 107.512 293.414 106.275 C 289.474 102.580,280.918 97.768,279.664 98.543 C 279.172 98.847,279.735 99.269,282.467 100.640 C 285.870 102.349,289.365 104.656,291.816 106.814 C 292.873 107.745,293.885 108.410,294.113 108.323 C 294.433 108.200,294.416 108.399,294.034 109.269 C 292.849 111.958,293.304 112.853,294.803 110.784 C 299.869 103.790,296.976 95.161,288.302 91.396 C 286.694 90.698,284.561 89.572,283.562 88.893 C 281.196 87.287,280.020 86.815,278.380 86.815 C 276.874 86.815,276.803 86.660,277.595 85.099 C 277.902 84.495,278.855 82.273,279.712 80.162 C 280.570 78.051,282.003 75.117,282.898 73.643 C 287.662 65.796,286.760 62.018,279.458 59.239 L 276.989 58.300 278.501 57.436 C 279.333 56.961,281.622 55.040,283.587 53.167 C 287.451 49.484,289.354 48.206,291.778 47.662 C 293.826 47.203,293.794 46.542,291.650 45.077 C 287.962 42.557,281.309 41.800,276.723 43.380 C 276.012 43.625,275.383 43.778,275.325 43.720 C 275.168 43.564,276.680 40.665,277.031 40.448 C 278.313 39.656,275.854 38.652,273.217 38.891 C 268.962 39.277,262.709 44.049,260.221 48.811 L 259.407 50.369 256.042 50.370 C 252.948 50.370,252.696 50.329,252.905 49.852 C 253.496 48.502,253.379 45.148,252.623 41.778 C 252.202 39.904,251.772 37.737,251.667 36.963 C 251.483 35.613,251.197 35.233,250.823 35.839 C 250.726 35.995,250.464 36.052,250.240 35.966 C 249.562 35.706,246.058 38.836,244.758 40.861 C 243.719 42.481,242.667 45.342,242.667 46.547 C 242.667 47.754,242.264 47.806,241.656 46.676 C 241.362 46.131,240.103 44.759,238.857 43.627 C 237.208 42.129,236.237 40.934,235.282 39.229 C 232.470 34.206,230.612 33.359,226.914 35.413 M157.070 38.482 L 158.733 39.147 158.330 40.318 C 158.108 40.962,157.732 42.520,157.494 43.781 C 157.256 45.042,156.869 46.751,156.635 47.578 C 156.400 48.405,156.112 50.107,155.995 51.360 C 155.877 52.613,155.675 53.704,155.544 53.785 C 155.198 53.999,154.580 51.921,154.771 51.188 C 154.861 50.844,154.817 49.953,154.673 49.208 C 154.530 48.462,154.340 45.406,154.252 42.416 L 154.092 36.981 154.750 37.399 C 155.111 37.629,156.156 38.117,157.070 38.482 M249.734 41.023 C 248.521 43.050,248.466 42.985,249.229 40.431 C 250.119 37.448,250.492 36.871,250.610 38.294 C 250.679 39.127,250.461 39.807,249.734 41.023 M181.833 38.439 C 180.352 38.593,180.557 39.054,182.381 39.667 C 183.190 39.938,183.832 40.291,183.807 40.451 C 183.265 43.978,179.313 56.891,177.657 60.546 C 176.190 63.783,177.585 62.138,179.431 58.455 C 181.460 54.405,183.742 47.856,184.518 43.859 C 184.804 42.389,185.177 41.187,185.347 41.186 C 185.853 41.185,187.712 43.295,188.609 44.889 C 189.068 45.704,189.816 46.924,190.271 47.600 L 191.099 48.831 189.204 54.415 C 188.162 57.487,186.965 60.770,186.544 61.712 C 185.653 63.703,185.653 63.704,186.179 63.704 C 186.703 63.704,188.701 59.377,190.652 54.021 L 192.204 49.759 193.462 51.124 C 196.047 53.929,196.472 56.365,195.136 60.719 C 194.715 62.092,194.368 63.892,194.365 64.719 C 194.336 72.027,191.685 75.653,185.184 77.278 C 182.285 78.003,181.343 78.516,179.126 80.579 C 178.114 81.521,176.930 82.524,176.495 82.809 C 176.060 83.094,175.704 83.512,175.704 83.738 C 175.704 84.021,175.314 84.152,174.444 84.161 C 173.752 84.168,172.690 84.351,172.084 84.567 C 171.089 84.922,171.009 84.914,171.246 84.480 C 172.014 83.076,175.246 80.593,176.305 80.593 C 177.240 80.593,177.512 80.143,177.156 79.185 C 176.873 78.424,175.778 78.276,175.515 78.962 C 175.421 79.206,174.482 80.009,173.427 80.746 L 171.509 82.087 173.366 78.599 C 174.388 76.681,175.932 73.788,176.797 72.170 C 177.662 70.553,178.370 69.109,178.370 68.961 C 178.370 68.231,177.567 69.139,176.456 71.126 C 171.997 79.095,171.140 80.572,171.038 80.470 C 170.894 80.326,172.332 77.452,173.075 76.399 C 173.727 75.474,173.762 75.259,173.257 75.259 C 172.517 75.259,169.614 80.117,168.874 82.595 C 168.667 83.288,168.451 83.809,168.395 83.753 C 168.146 83.504,168.941 70.795,169.302 69.254 C 169.685 67.617,169.498 66.828,168.875 67.451 C 168.496 67.830,167.740 70.968,167.419 73.497 C 167.157 75.565,167.149 75.499,167.285 72.444 C 167.479 68.064,168.177 63.382,169.250 59.259 C 170.409 54.802,170.536 54.085,170.118 54.343 C 169.183 54.921,166.800 64.459,166.182 70.095 C 165.853 73.091,165.768 73.388,165.318 73.107 C 165.044 72.936,164.602 72.879,164.336 72.981 C 163.765 73.200,163.691 74.238,164.222 74.578 C 164.501 74.756,164.556 75.804,164.445 78.815 L 164.296 82.815 163.666 81.333 C 162.120 77.699,161.079 72.636,161.239 69.530 L 161.333 67.704 160.444 67.704 C 159.474 67.704,158.918 69.164,159.765 69.489 C 160.030 69.591,160.189 70.303,160.244 71.636 C 160.336 73.889,161.140 77.601,162.056 80.011 L 162.672 81.630 161.348 80.148 C 160.244 78.913,159.251 77.396,156.811 73.219 C 156.497 72.682,155.259 73.057,155.259 73.690 C 155.259 73.945,155.559 74.450,155.926 74.811 C 156.293 75.173,157.172 76.543,157.881 77.856 C 158.589 79.168,159.851 81.008,160.684 81.943 C 162.409 83.878,161.915 83.751,158.815 81.462 C 155.370 78.919,152.032 74.911,151.398 72.557 C 151.065 71.321,150.299 70.890,149.345 71.401 C 148.333 71.943,148.753 73.481,149.912 73.481 C 150.164 73.481,150.704 74.114,151.112 74.886 C 151.519 75.659,153.252 77.749,154.963 79.530 C 158.184 82.884,157.812 83.233,154.198 80.246 C 152.655 78.971,152.617 78.959,151.872 79.504 C 151.111 80.061,151.503 81.185,152.458 81.185 C 152.852 81.185,153.876 81.719,154.735 82.370 C 155.594 83.022,157.230 83.963,158.370 84.462 L 160.444 85.368 158.520 85.199 C 155.190 84.908,148.482 80.053,140.889 72.438 C 135.692 67.226,131.259 63.876,131.259 65.160 C 131.259 65.309,132.093 66.096,133.111 66.910 C 134.130 67.724,137.363 70.846,140.296 73.848 C 143.230 76.851,146.696 80.145,148.000 81.170 C 149.304 82.195,150.430 83.088,150.503 83.156 C 150.722 83.357,148.396 82.353,146.950 81.622 C 145.195 80.734,142.519 78.318,142.519 77.622 C 142.519 77.005,141.666 76.632,140.915 76.920 C 139.988 77.276,140.403 79.256,141.408 79.272 C 141.943 79.281,142.657 79.696,143.482 80.479 C 145.177 82.086,146.031 82.588,149.333 83.915 C 152.769 85.296,152.076 85.240,144.000 83.485 C 138.396 82.268,132.223 81.777,131.852 82.519 C 131.768 82.686,132.219 82.848,132.889 82.892 C 135.833 83.084,151.886 86.509,156.593 87.950 L 157.481 88.222 156.646 88.556 C 154.741 89.318,151.739 89.605,151.160 89.081 C 150.047 88.074,148.633 89.061,149.327 90.359 C 149.694 91.044,154.069 90.822,158.519 89.892 C 159.224 89.745,159.232 89.759,158.701 90.190 C 157.717 90.987,153.560 93.037,152.928 93.037 C 152.206 93.037,151.599 94.018,151.843 94.788 C 152.009 95.310,151.943 95.313,150.156 94.851 C 147.867 94.259,135.625 94.197,132.230 94.759 C 126.347 95.734,117.953 92.968,115.241 89.160 C 114.396 87.974,114.597 87.864,116.290 88.590 C 117.066 88.922,119.718 89.736,122.183 90.398 C 126.024 91.429,129.519 92.459,130.889 92.964 C 131.093 93.039,131.259 92.904,131.259 92.665 C 131.259 92.161,129.889 91.607,125.926 90.509 C 122.702 89.616,118.477 88.075,115.365 86.657 C 112.868 85.519,112.876 85.535,112.146 79.956 C 111.776 77.131,111.522 76.237,110.561 74.370 C 109.932 73.148,109.337 71.629,109.239 70.995 L 109.061 69.842 110.907 70.015 C 111.923 70.110,113.860 70.595,115.212 71.094 C 117.813 72.053,118.635 72.201,118.462 71.682 C 118.312 71.232,113.050 69.063,111.185 68.681 C 109.491 68.334,109.420 68.228,110.062 66.987 C 110.551 66.041,113.368 63.405,113.884 63.412 C 115.356 63.430,121.286 67.490,125.242 71.189 C 128.070 73.832,130.212 75.259,131.353 75.259 C 132.263 75.259,131.868 74.822,130.443 74.253 C 129.410 73.839,128.173 72.814,125.778 70.384 C 122.188 66.743,120.080 65.046,117.307 63.564 C 115.299 62.491,115.315 62.416,117.704 61.646 C 118.315 61.449,118.815 61.164,118.815 61.014 C 118.815 60.575,117.442 60.697,115.770 61.284 C 113.163 62.200,113.310 61.772,117.003 57.679 C 123.406 50.583,126.097 48.259,130.006 46.446 C 131.103 45.938,132.094 45.381,132.209 45.210 C 132.344 45.007,133.069 45.218,134.277 45.813 L 136.136 46.729 135.183 47.222 C 134.659 47.493,133.795 48.096,133.263 48.561 C 132.473 49.252,131.847 49.467,129.845 49.735 C 125.676 50.293,121.653 52.903,120.068 56.075 C 118.831 58.553,119.791 59.400,121.242 57.111 C 121.681 56.418,122.621 55.284,123.330 54.590 L 124.620 53.328 125.940 53.785 C 126.665 54.036,127.993 54.765,128.889 55.404 C 132.911 58.275,140.396 63.407,140.560 63.407 C 141.542 63.407,130.191 54.452,127.424 53.044 L 126.107 52.373 126.831 51.998 C 128.088 51.346,130.658 51.013,135.791 50.839 C 141.385 50.648,141.683 50.713,144.469 52.708 C 145.773 53.641,146.714 54.022,148.984 54.536 C 154.176 55.711,154.829 56.376,154.692 60.343 C 154.591 63.284,155.171 65.486,156.456 67.037 C 158.010 68.913,158.901 68.354,157.430 66.425 C 155.760 64.236,155.502 61.803,156.293 55.704 C 156.535 53.830,156.810 51.543,156.903 50.623 C 157.034 49.329,157.197 48.916,157.620 48.806 C 158.054 48.692,158.211 48.254,158.378 46.694 C 158.610 44.533,159.306 43.665,162.044 42.127 L 163.259 41.444 162.980 42.178 C 161.998 44.762,160.417 58.667,161.106 58.667 C 161.274 58.667,161.505 57.633,161.619 56.370 C 161.875 53.530,163.667 43.971,164.133 42.963 C 165.369 40.288,165.298 40.314,169.682 40.947 C 172.313 41.328,172.808 41.241,176.508 39.750 L 178.053 39.128 177.809 39.786 C 177.675 40.148,177.407 41.778,177.213 43.407 C 177.019 45.037,176.818 46.674,176.766 47.044 C 176.628 48.034,177.136 48.166,177.356 47.197 C 177.459 46.742,177.718 45.637,177.932 44.741 C 178.145 43.844,178.414 42.511,178.529 41.778 C 179.006 38.730,179.411 38.216,181.291 38.272 C 182.592 38.311,182.712 38.348,181.833 38.439 M194.370 39.601 L 194.370 40.980 190.872 40.792 C 187.732 40.623,187.210 40.513,185.761 39.715 C 184.874 39.226,183.881 38.796,183.556 38.759 C 183.050 38.702,185.882 38.557,192.815 38.284 L 194.370 38.222 194.370 39.601 M248.372 39.447 C 248.281 39.795,247.974 40.140,247.691 40.214 C 247.119 40.363,246.827 41.437,246.792 43.519 C 246.780 44.272,246.605 45.422,246.404 46.074 L 246.040 47.259 245.861 45.630 C 245.492 42.256,245.743 41.160,247.165 39.927 C 248.673 38.618,248.579 38.656,248.372 39.447 M160.793 41.797 C 158.956 43.123,159.032 43.162,159.444 41.108 L 159.777 39.451 161.052 40.070 L 162.327 40.690 160.793 41.797 M273.211 40.755 C 272.002 41.322,270.838 41.932,270.622 42.111 C 270.301 42.377,270.286 42.275,270.540 41.548 C 270.873 40.592,272.284 40.038,275.111 39.755 C 275.274 39.738,274.419 40.189,273.211 40.755 M105.185 40.648 C 105.756 41.003,106.862 41.649,107.644 42.083 L 109.066 42.873 106.495 43.071 C 104.291 43.240,103.628 43.174,101.862 42.605 L 99.801 41.941 101.827 40.995 C 104.298 39.841,103.947 39.877,105.185 40.648 M274.502 41.863 C 274.403 42.119,273.967 42.459,273.532 42.617 C 273.097 42.776,272.207 43.124,271.556 43.391 L 270.370 43.877 271.111 43.262 C 272.784 41.871,274.821 41.031,274.502 41.863 M251.054 43.037 C 251.169 43.798,251.110 44.148,250.866 44.148 C 250.670 44.148,249.678 45.376,248.662 46.878 C 247.646 48.379,246.815 49.536,246.815 49.450 C 246.815 48.922,247.766 46.222,247.952 46.222 C 248.076 46.222,248.698 45.156,249.333 43.852 C 250.553 41.351,250.782 41.242,251.054 43.037 M268.768 43.163 C 268.439 43.786,267.436 45.096,266.540 46.074 L 264.911 47.852 265.460 45.825 C 266.065 43.593,265.976 43.721,267.846 42.391 C 269.362 41.313,269.629 41.536,268.768 43.163 M193.932 43.436 C 193.707 44.185,193.167 45.335,192.733 45.991 L 191.943 47.184 190.342 44.751 C 189.461 43.412,188.741 42.263,188.741 42.196 C 188.741 42.129,190.001 42.074,191.541 42.074 L 194.342 42.074 193.932 43.436 M98.963 42.815 L 99.704 43.238 98.617 43.249 C 97.031 43.264,96.203 42.909,97.185 42.636 C 98.209 42.351,98.139 42.344,98.963 42.815 M143.169 43.147 C 145.900 44.872,148.569 45.967,148.909 45.503 C 149.164 45.155,149.382 45.388,150.017 46.683 C 150.891 48.464,150.860 48.498,149.000 47.833 C 148.287 47.578,146.237 46.990,144.444 46.526 C 140.882 45.603,140.802 45.528,141.327 43.578 C 141.712 42.148,141.620 42.170,143.169 43.147 M120.568 43.378 C 120.500 43.443,119.711 44.046,118.815 44.717 C 116.903 46.150,106.667 55.703,106.667 56.055 C 106.667 56.831,107.973 55.881,111.472 52.562 C 116.165 48.108,119.408 45.600,122.222 44.246 C 124.505 43.147,124.832 43.138,129.185 44.056 L 131.407 44.525 129.622 45.017 C 126.217 45.956,121.888 49.791,115.301 57.705 C 113.775 59.538,112.460 61.037,112.377 61.037 C 110.011 61.037,102.505 51.655,104.041 50.618 C 105.068 49.925,108.085 48.495,110.821 47.405 C 114.314 46.013,116.616 44.887,116.898 44.430 C 117.947 42.732,110.194 45.168,105.421 48.036 C 102.548 49.763,102.860 49.742,101.819 48.271 C 101.353 47.612,100.307 46.548,99.496 45.907 L 98.021 44.741 101.726 44.741 C 104.851 44.741,107.728 44.513,117.926 43.461 C 119.629 43.285,120.699 43.252,120.568 43.378 M245.051 50.489 C 245.094 51.972,244.479 51.489,244.285 49.886 C 244.170 48.930,243.946 47.987,243.789 47.790 C 243.498 47.425,243.630 46.417,244.248 44.296 C 244.575 43.173,244.918 45.816,245.051 50.489 M273.406 44.519 C 273.069 45.987,269.380 48.000,267.026 48.000 C 265.624 48.000,271.658 43.622,273.514 43.291 C 273.614 43.274,273.565 43.826,273.406 44.519 M281.185 43.654 C 281.185 43.709,280.463 44.251,279.581 44.858 C 278.699 45.466,277.056 46.955,275.930 48.167 C 274.002 50.243,272.769 51.077,273.440 49.852 C 274.093 48.660,278.417 43.902,278.963 43.775 C 279.703 43.602,281.185 43.522,281.185 43.654 M284.091 43.807 C 284.768 43.998,282.078 46.222,281.170 46.222 C 281.002 46.222,280.304 46.503,279.618 46.846 C 278.127 47.591,278.424 47.220,281.068 45.034 C 282.888 43.528,282.975 43.493,284.091 43.807 M276.444 44.537 C 276.444 44.588,276.044 45.013,275.556 45.481 C 274.874 46.135,274.667 46.219,274.667 45.843 C 274.667 45.573,275.033 45.153,275.481 44.910 C 276.370 44.428,276.444 44.399,276.444 44.537 M288.288 45.337 L 289.316 45.858 286.588 45.828 C 283.791 45.798,283.649 45.705,285.185 44.911 C 286.124 44.426,286.625 44.495,288.288 45.337 M250.885 46.617 C 250.653 46.807,250.026 47.696,249.492 48.593 C 248.311 50.577,245.598 54.289,245.443 54.134 C 245.206 53.898,246.052 51.973,246.641 51.405 C 246.981 51.078,248.126 49.486,249.185 47.867 C 250.723 45.517,251.131 45.059,251.209 45.597 C 251.263 45.967,251.117 46.426,250.885 46.617 M263.993 46.390 C 263.834 46.808,263.704 47.531,263.704 47.998 C 263.704 48.870,262.559 50.074,261.730 50.074 C 261.232 50.074,261.787 48.872,263.202 46.889 C 264.241 45.432,264.393 45.336,263.993 46.390 M289.819 46.858 C 289.271 47.016,288.308 47.470,287.679 47.868 L 286.534 48.590 284.674 47.886 L 282.815 47.182 284.000 46.979 C 284.652 46.867,285.385 46.733,285.630 46.681 C 286.896 46.413,290.793 46.578,289.819 46.858 M148.593 49.549 C 151.240 50.335,152.593 51.110,152.593 51.841 C 152.593 51.963,151.093 51.555,149.259 50.937 C 144.983 49.494,142.168 48.902,141.999 49.412 C 141.560 50.726,140.441 49.634,140.647 48.094 L 140.810 46.881 143.220 47.776 C 144.545 48.268,146.963 49.066,148.593 49.549 M139.020 48.452 L 139.136 49.442 136.962 49.646 C 134.445 49.882,134.051 49.711,135.408 48.972 C 135.941 48.682,136.717 48.163,137.132 47.820 C 138.154 46.975,138.876 47.216,139.020 48.452 M272.335 47.630 C 271.444 49.288,270.364 50.252,269.630 50.045 C 269.222 49.931,267.962 49.824,266.830 49.807 C 264.308 49.771,264.518 49.135,267.089 49.022 C 268.184 48.973,269.338 48.654,270.584 48.054 C 271.607 47.562,272.482 47.149,272.529 47.135 C 272.575 47.122,272.488 47.344,272.335 47.630 M283.753 48.648 L 285.580 49.344 284.416 50.322 L 283.252 51.299 281.655 50.835 C 280.776 50.580,279.500 50.134,278.819 49.844 L 277.579 49.318 279.160 48.496 C 280.873 47.606,281.031 47.611,283.753 48.648 M250.837 49.911 C 250.696 50.662,250.395 51.088,249.780 51.406 L 248.920 51.851 249.851 50.230 C 250.886 48.428,251.130 48.349,250.837 49.911 M277.880 50.643 C 278.493 50.956,279.822 51.383,280.833 51.592 L 282.670 51.971 281.606 53.062 L 280.541 54.152 278.863 53.641 C 277.940 53.360,276.530 52.796,275.729 52.387 L 274.273 51.643 275.427 50.859 C 276.802 49.925,276.520 49.950,277.880 50.643 M243.260 52.744 C 243.589 54.696,243.572 54.878,242.966 55.781 L 242.322 56.741 242.495 54.845 C 242.589 53.803,242.667 52.436,242.667 51.808 C 242.667 50.103,242.868 50.421,243.260 52.744 M149.833 52.847 C 153.242 54.082,154.101 54.509,154.377 55.105 C 154.705 55.817,154.698 55.824,154.149 55.327 C 153.837 55.045,152.365 54.553,150.877 54.236 C 149.390 53.918,147.801 53.461,147.346 53.221 C 146.203 52.617,144.268 50.857,145.037 51.120 C 145.363 51.232,147.521 52.009,149.833 52.847 M269.630 55.897 C 267.836 56.660,265.481 58.183,265.481 58.581 C 265.481 59.081,265.646 59.063,266.554 58.468 C 266.970 58.196,268.592 57.549,270.159 57.031 C 271.725 56.513,273.058 55.936,273.121 55.748 C 273.285 55.255,270.899 55.357,269.630 55.897 M201.574 67.162 C 205.457 70.813,206.066 71.585,206.681 73.629 L 207.083 74.963 206.134 74.964 C 204.201 74.965,194.574 77.804,194.755 78.319 C 194.923 78.798,201.154 77.700,206.444 76.260 C 206.977 76.116,207.111 76.200,207.111 76.682 C 207.111 77.718,206.776 78.222,206.087 78.222 C 205.181 78.222,203.556 78.812,203.556 79.140 C 203.556 79.287,204.225 79.407,205.043 79.407 C 206.810 79.407,206.814 79.557,205.142 83.207 C 204.595 84.400,204.148 85.567,204.148 85.799 C 204.148 86.360,204.927 86.343,205.144 85.778 C 205.446 84.992,205.755 85.296,206.933 87.540 C 207.569 88.751,208.655 90.389,209.348 91.181 L 210.607 92.620 208.859 94.429 C 207.898 95.423,207.110 96.084,207.108 95.896 C 207.106 95.709,206.504 94.356,205.770 92.889 C 204.776 90.903,204.481 90.014,204.612 89.407 C 204.757 88.734,204.686 88.593,204.203 88.593 C 202.867 88.593,202.912 91.143,204.296 93.798 C 204.867 94.893,205.333 95.854,205.333 95.935 C 205.333 96.088,200.692 95.822,197.962 95.511 C 196.699 95.367,196.397 95.413,196.503 95.730 C 196.654 96.184,199.131 96.751,203.259 97.278 L 206.074 97.637 206.274 98.966 C 206.518 100.594,206.066 103.454,205.340 104.873 C 203.865 107.756,198.827 111.086,197.342 110.159 C 196.491 109.628,196.389 109.946,196.727 112.065 C 197.254 115.362,196.293 118.662,194.250 120.570 C 193.165 121.584,193.416 122.989,194.519 122.074 C 194.842 121.806,195.072 121.821,195.528 122.140 C 196.083 122.529,195.999 122.612,194.134 123.526 C 193.042 124.060,192.315 124.326,192.519 124.115 C 193.508 123.095,192.976 122.288,191.481 122.544 C 184.571 123.730,178.347 114.587,177.303 101.716 C 177.159 99.937,176.992 99.259,176.700 99.259 C 176.266 99.259,176.204 99.899,176.273 103.704 C 176.319 106.273,176.098 106.188,174.478 103.012 C 173.264 100.633,172.928 94.652,173.918 93.050 C 174.315 92.408,176.880 94.796,180.483 99.162 C 182.973 102.180,184.188 103.387,185.842 104.487 C 187.018 105.269,188.423 106.297,188.963 106.772 C 189.951 107.639,190.442 107.668,190.125 106.840 C 190.031 106.596,188.914 105.632,187.644 104.699 C 184.757 102.580,183.962 101.750,180.902 97.658 C 178.330 94.220,174.155 89.990,173.250 89.906 C 172.682 89.854,172.267 89.560,172.472 89.355 C 172.541 89.286,174.088 89.681,175.910 90.234 C 182.476 92.224,184.616 92.248,187.630 90.361 C 189.829 88.985,189.460 88.333,187.173 89.556 C 184.423 91.026,172.498 88.918,172.206 86.911 C 172.040 85.768,177.533 84.674,178.125 85.732 C 178.468 86.344,179.730 86.376,179.959 85.778 C 180.378 84.685,179.374 83.978,177.877 84.312 L 177.037 84.499 177.937 83.922 C 178.432 83.604,179.632 82.611,180.604 81.714 C 182.730 79.752,183.541 79.314,186.565 78.494 C 193.004 76.749,195.852 72.885,195.852 65.896 C 195.852 62.254,196.509 62.400,201.574 67.162 M218.309 79.539 C 217.827 81.341,217.357 82.881,217.267 82.963 C 217.176 83.044,217.178 82.778,217.270 82.370 C 217.363 81.963,217.676 80.208,217.965 78.471 C 218.393 75.906,218.557 75.401,218.839 75.787 C 219.114 76.163,219.002 76.952,218.309 79.539 M212.271 90.210 L 213.431 91.193 212.497 91.676 L 211.563 92.160 210.226 90.344 C 208.211 87.606,209.130 87.546,212.271 90.210 M164.345 92.071 C 163.941 92.711,162.940 94.572,162.119 96.206 C 160.607 99.221,159.437 100.518,155.778 103.243 C 154.324 104.325,154.361 104.165,156.346 100.785 C 158.699 96.778,159.900 95.229,162.543 92.794 C 165.070 90.466,165.456 90.311,164.345 92.071 M172.482 95.111 L 172.213 96.444 172.181 94.926 C 172.163 94.091,172.248 92.957,172.370 92.407 L 172.593 91.407 172.672 92.593 C 172.716 93.244,172.630 94.378,172.482 95.111 M213.810 93.459 C 213.992 93.933,212.714 98.850,211.819 101.120 C 210.736 103.869,209.305 105.622,206.211 107.994 C 203.618 109.982,201.778 111.810,201.778 112.398 C 201.778 112.895,202.617 112.509,203.173 111.757 C 203.513 111.297,204.971 110.108,206.414 109.114 C 210.998 105.954,212.494 103.847,214.250 98.074 L 214.926 95.852 215.145 97.185 C 215.978 102.262,215.307 105.002,211.958 110.194 C 209.980 113.260,209.303 114.963,210.061 114.963 C 210.216 114.963,210.003 115.863,209.586 116.963 C 209.169 118.063,208.736 119.563,208.623 120.296 C 208.443 121.471,208.380 121.559,208.094 121.037 C 207.885 120.655,207.853 119.917,208.004 118.963 C 208.135 118.136,208.123 117.359,207.975 117.204 C 207.819 117.040,207.913 116.704,208.206 116.380 C 208.653 115.887,208.656 115.788,208.243 115.376 C 207.188 114.320,204.363 115.877,202.614 118.479 C 200.591 121.487,199.581 122.049,196.916 121.649 L 195.614 121.454 196.600 119.988 C 197.792 118.217,198.355 115.761,198.127 113.322 L 197.960 111.530 199.989 111.007 C 204.950 109.729,207.746 105.900,207.746 100.383 C 207.746 98.957,207.667 97.662,207.570 97.505 C 207.336 97.126,210.087 94.542,211.617 93.704 C 213.027 92.931,213.584 92.869,213.810 93.459 M223.341 97.021 C 226.961 98.877,227.806 99.480,226.951 99.601 C 225.280 99.837,226.076 100.812,229.330 102.517 C 233.911 104.916,235.973 106.972,238.116 111.280 C 240.074 115.216,240.566 115.744,243.707 117.284 C 246.532 118.668,246.762 118.914,247.928 121.778 C 249.994 126.852,250.121 127.986,249.027 131.596 C 248.615 132.959,247.898 135.548,247.435 137.350 C 246.972 139.152,246.377 141.043,246.114 141.553 C 245.850 142.064,245.706 142.668,245.793 142.897 C 246.298 144.213,243.216 149.035,241.221 150.049 C 239.165 151.094,239.137 151.074,239.321 148.649 C 239.638 144.457,238.577 141.339,235.352 136.991 C 234.390 135.693,233.305 133.939,232.941 133.093 C 232.248 131.481,231.699 131.093,231.710 132.222 C 231.720 133.193,232.675 135.149,234.173 137.261 C 236.005 139.846,237.013 141.966,237.499 144.257 C 237.931 146.296,238.081 150.628,237.699 150.030 C 237.579 149.843,237.158 149.643,236.763 149.585 C 236.151 149.497,235.985 149.221,235.649 147.735 C 235.088 145.259,232.985 141.731,232.411 142.305 C 232.319 142.397,232.642 143.316,233.128 144.347 C 234.013 146.224,234.575 148.148,234.238 148.148 C 234.140 148.148,233.163 147.697,232.067 147.145 C 229.797 146.003,229.000 145.754,224.380 144.742 C 216.198 142.951,214.268 141.016,214.132 134.465 C 214.048 130.445,214.195 130.916,211.426 125.778 C 209.933 123.007,209.996 120.682,211.678 116.497 C 212.288 114.978,212.716 113.548,212.628 113.319 C 212.541 113.091,212.936 112.200,213.507 111.341 C 215.032 109.044,216.248 106.370,216.734 104.245 C 217.150 102.426,217.160 102.548,217.092 108.370 C 217.039 112.855,217.110 114.370,217.374 114.370 C 218.291 114.370,218.573 101.038,217.720 98.000 C 217.089 95.755,217.122 95.780,219.597 99.470 C 223.560 105.376,224.686 108.554,225.036 114.815 C 225.315 119.824,226.005 122.302,227.495 123.649 C 228.344 124.417,228.566 123.796,227.866 122.609 C 226.640 120.531,226.341 119.050,226.086 113.778 C 225.799 107.832,225.109 105.327,222.669 101.370 C 221.953 100.209,221.427 99.259,221.500 99.259 C 221.812 99.259,228.029 107.329,229.427 109.550 C 230.727 111.613,231.704 112.580,231.704 111.803 C 231.704 110.800,226.871 103.329,223.422 98.999 C 222.108 97.350,221.104 96.000,221.190 96.000 C 221.277 96.000,222.245 96.460,223.341 97.021 M169.812 117.249 C 169.638 118.914,169.083 121.847,168.579 123.767 C 167.597 127.515,167.104 131.556,167.631 131.556 C 167.800 131.556,168.088 130.699,168.271 129.652 C 168.453 128.605,169.012 126.372,169.513 124.689 C 170.943 119.885,171.256 117.712,171.292 112.344 C 171.339 105.359,171.626 101.239,171.924 103.259 C 172.379 106.351,175.838 122.074,176.062 122.074 C 176.415 122.074,175.753 116.259,174.324 106.824 L 174.143 105.630 175.213 107.010 C 175.801 107.769,176.391 108.436,176.525 108.491 C 176.658 108.547,177.068 109.659,177.435 110.963 C 178.919 116.232,182.543 122.019,185.598 124.000 C 186.639 124.675,186.937 125.032,186.833 125.481 C 186.758 125.807,186.487 128.207,186.230 130.815 C 185.283 140.439,184.245 142.363,177.630 146.752 C 174.474 148.846,172.300 149.919,171.206 149.923 L 170.412 149.926 171.148 148.115 C 172.350 145.157,173.380 140.860,174.390 134.593 C 174.687 132.751,173.711 133.433,173.330 135.333 C 172.642 138.762,171.788 141.870,170.432 145.883 L 169.045 149.987 167.808 149.818 C 167.128 149.724,165.696 149.298,164.626 148.870 C 162.764 148.124,162.659 148.113,162.156 148.617 C 161.405 149.368,161.337 148.714,161.911 146.240 C 162.437 143.970,162.477 143.407,162.108 143.407 C 161.773 143.407,160.434 147.019,160.158 148.667 C 159.858 150.463,159.405 150.228,159.589 148.370 C 159.886 145.364,160.650 142.041,161.820 138.667 C 163.450 133.969,163.410 134.123,162.962 134.272 C 161.913 134.621,158.519 145.350,158.519 148.313 C 158.519 152.053,152.808 152.184,150.326 148.501 C 148.566 145.890,148.845 143.008,151.407 137.333 C 152.955 133.903,154.667 128.916,154.667 127.833 C 154.667 127.615,155.233 127.042,155.926 126.561 C 159.463 124.104,162.985 118.179,165.347 110.716 C 166.321 107.638,167.558 104.680,167.288 106.074 C 167.209 106.481,167.054 108.681,166.943 110.963 C 166.635 117.330,167.228 115.703,168.515 106.656 L 169.630 98.815 169.880 106.519 C 170.047 111.658,170.024 115.229,169.812 117.249 M163.560 103.608 C 162.355 108.001,158.470 113.253,157.453 111.864 C 157.101 111.382,157.262 111.105,158.941 109.291 C 160.282 107.843,161.279 106.343,162.411 104.074 C 164.222 100.444,164.454 100.350,163.560 103.608 M156.150 106.221 C 154.450 107.935,150.014 111.407,149.523 111.407 C 148.786 111.407,152.405 107.642,154.083 106.662 C 155.153 106.037,156.355 105.253,156.755 104.921 C 158.321 103.618,157.959 104.396,156.150 106.221 M206.815 117.852 C 206.814 118.309,204.349 120.000,203.682 120.000 C 203.311 120.000,204.810 118.489,205.778 117.888 C 206.860 117.216,206.815 117.217,206.815 117.852 M206.388 120.479 C 206.281 120.905,206.117 121.637,206.023 122.105 C 205.874 122.851,205.373 123.199,201.964 124.925 C 197.467 127.201,193.755 129.537,191.866 131.278 L 190.543 132.497 190.350 131.726 C 190.231 131.255,190.309 130.771,190.551 130.480 C 191.528 129.302,199.887 123.259,200.539 123.259 C 200.688 123.259,201.186 122.959,201.648 122.593 C 202.716 121.743,205.994 119.728,206.328 119.714 C 206.468 119.708,206.495 120.053,206.388 120.479 M291.531 121.876 C 291.463 121.930,290.481 122.484,289.348 123.109 L 287.289 124.243 287.928 123.233 C 288.280 122.677,288.873 122.136,289.247 122.030 C 289.960 121.827,291.743 121.707,291.531 121.876 M295.259 122.225 L 296.444 122.427 295.111 122.935 C 292.409 123.965,286.802 127.506,283.931 129.995 C 282.531 131.210,281.897 131.573,281.307 131.502 C 280.605 131.417,280.858 131.130,283.877 128.593 C 287.735 125.350,292.980 121.759,293.630 121.916 C 293.874 121.974,294.607 122.113,295.259 122.225 M208.989 125.642 C 211.241 131.472,211.455 132.502,210.677 133.761 C 209.788 135.199,209.629 135.115,208.868 132.815 C 208.504 131.715,207.785 129.812,207.270 128.586 L 206.334 126.358 206.916 124.212 C 207.237 123.032,207.539 122.107,207.588 122.156 C 207.638 122.206,208.268 123.774,208.989 125.642 M298.579 123.311 L 300.133 123.955 298.586 124.500 C 296.788 125.133,292.876 127.432,291.282 128.793 C 290.576 129.395,289.492 129.908,288.274 130.216 C 287.227 130.481,286.105 130.777,285.780 130.873 C 284.715 131.190,285.833 130.169,289.322 127.642 C 292.877 125.066,295.827 123.426,296.466 123.671 C 297.024 123.885,297.356 123.253,296.853 122.934 C 296.107 122.462,297.004 122.658,298.579 123.311 M197.750 123.214 C 197.835 123.352,196.946 124.119,195.773 124.918 C 194.600 125.717,192.877 127.004,191.944 127.778 C 189.954 129.430,189.992 129.419,189.872 128.370 C 189.714 127.005,197.104 122.169,197.750 123.214 M205.264 124.519 C 205.191 124.722,204.884 125.589,204.581 126.444 C 204.237 127.417,203.859 128.000,203.571 128.000 C 202.286 128.001,193.019 134.733,192.454 136.077 L 192.075 136.979 191.457 135.378 L 190.839 133.778 192.382 132.362 C 195.684 129.334,205.731 123.217,205.264 124.519 M301.912 125.070 L 302.935 125.694 301.804 126.083 C 301.182 126.297,300.040 126.866,299.266 127.347 C 297.982 128.145,294.087 129.149,293.716 128.778 C 293.532 128.594,295.272 127.452,298.222 125.819 C 301.081 124.237,300.679 124.319,301.912 125.070 M190.964 125.332 C 190.759 125.663,189.630 126.318,189.630 126.106 C 189.630 126.030,189.839 125.759,190.095 125.503 C 190.608 124.990,191.254 124.863,190.964 125.332 M305.564 127.630 C 306.562 128.404,307.585 129.197,307.837 129.393 C 308.090 129.589,307.097 129.422,305.632 129.023 C 304.166 128.623,302.233 128.292,301.335 128.287 C 299.486 128.276,299.664 127.915,302.074 126.789 C 303.640 126.057,303.489 126.021,305.564 127.630 M207.270 131.884 L 208.663 136.064 207.930 136.797 L 207.198 137.530 206.850 135.802 C 206.658 134.852,206.117 133.172,205.647 132.069 C 204.819 130.127,204.806 130.028,205.256 128.884 C 205.854 127.361,205.672 127.091,207.270 131.884 M203.154 129.852 C 201.731 133.201,201.537 133.428,199.082 134.600 C 197.507 135.352,196.198 136.260,195.089 137.369 C 193.564 138.893,193.409 138.978,193.049 138.485 C 192.256 137.400,194.141 135.343,199.022 131.971 C 201.010 130.598,202.718 129.343,202.817 129.182 C 203.261 128.463,203.523 128.984,203.154 129.852 M301.037 130.222 C 302.422 130.787,303.822 131.260,304.148 131.273 C 304.474 131.286,303.807 131.610,302.667 131.992 C 301.526 132.375,300.548 132.567,300.494 132.418 C 300.440 132.270,300.003 132.148,299.524 132.148 C 299.045 132.148,297.646 131.726,296.416 131.209 C 293.931 130.166,293.969 129.861,296.610 129.639 C 297.454 129.568,298.218 129.437,298.307 129.348 C 298.396 129.258,298.480 129.187,298.494 129.190 C 298.507 129.193,299.652 129.657,301.037 130.222 M306.519 130.181 L 309.778 130.853 307.579 131.043 C 305.910 131.187,305.303 131.137,305.060 130.835 C 304.885 130.615,304.241 130.277,303.630 130.084 C 301.078 129.275,302.329 129.318,306.519 130.181 M262.505 130.861 C 263.602 131.879,265.085 132.521,267.259 132.922 C 268.319 133.117,268.833 133.289,268.402 133.305 C 264.659 133.441,256.587 137.814,251.550 142.434 C 249.980 143.874,246.521 144.933,246.916 143.852 C 246.976 143.689,247.252 142.866,247.529 142.023 C 248.079 140.350,248.577 139.829,253.433 135.852 C 256.662 133.208,258.570 131.996,260.222 131.542 C 261.600 131.163,261.669 130.667,260.344 130.667 C 258.844 130.667,256.232 132.149,252.296 135.235 C 248.203 138.444,248.331 138.418,249.180 135.866 C 250.578 131.666,259.684 128.246,262.505 130.861 M279.493 130.963 C 279.374 131.420,279.093 131.554,278.262 131.548 L 277.185 131.540 278.370 130.979 C 279.022 130.671,279.576 130.408,279.602 130.394 C 279.627 130.381,279.578 130.637,279.493 130.963 M295.674 132.147 C 298.352 133.215,298.914 133.538,298.512 133.777 C 298.236 133.940,297.412 134.523,296.681 135.072 C 294.911 136.400,293.758 136.273,288.801 134.201 L 285.010 132.616 288.505 131.668 C 290.427 131.147,292.075 130.742,292.167 130.768 C 292.259 130.794,293.837 131.414,295.674 132.147 M204.974 133.852 C 206.280 138.891,206.267 138.507,205.158 139.582 C 204.426 140.292,204.128 140.433,204.018 140.123 C 203.936 139.892,203.542 138.657,203.141 137.377 L 202.414 135.050 203.172 133.303 C 204.144 131.060,204.260 131.096,204.974 133.852 M274.537 133.704 L 275.407 134.667 274.372 133.778 C 273.802 133.289,273.280 132.856,273.211 132.815 C 273.143 132.774,273.217 132.741,273.377 132.741 C 273.536 132.741,274.059 133.174,274.537 133.704 M278.910 135.185 C 281.528 137.826,284.340 139.811,286.989 140.887 L 288.659 141.566 287.283 142.372 L 285.908 143.178 284.786 142.435 C 281.586 140.318,278.274 136.786,276.042 133.111 C 275.381 132.024,276.775 133.031,278.910 135.185 M283.556 133.053 C 283.556 133.588,290.510 136.414,292.866 136.837 L 294.027 137.045 291.680 139.012 L 289.333 140.978 287.407 139.922 C 284.392 138.269,281.969 136.456,280.497 134.751 L 279.145 133.185 280.832 133.013 C 281.759 132.918,282.752 132.818,283.037 132.791 C 283.322 132.763,283.556 132.881,283.556 133.053 M212.567 135.386 C 212.255 136.027,211.600 136.779,211.111 137.057 C 210.622 137.335,209.627 138.111,208.898 138.781 C 208.170 139.451,208.737 138.771,210.158 137.270 C 211.578 135.768,212.741 134.379,212.741 134.183 C 212.741 133.987,212.829 133.916,212.937 134.024 C 213.045 134.132,212.878 134.745,212.567 135.386 M273.972 135.037 C 274.594 135.878,275.556 137.624,275.556 137.911 C 275.556 138.001,275.037 138.074,274.403 138.074 C 270.592 138.074,263.968 140.144,257.823 143.256 C 253.506 145.441,253.295 145.515,252.277 145.179 L 251.219 144.830 254.961 142.047 C 263.662 135.577,272.077 132.474,273.972 135.037 M200.091 136.945 C 199.709 138.117,199.335 139.417,199.261 139.834 C 198.887 141.937,198.507 143.813,198.442 143.870 C 198.403 143.904,197.856 143.435,197.228 142.828 L 196.085 141.723 197.743 139.865 C 199.963 137.376,199.525 136.940,197.160 139.285 C 195.324 141.104,195.266 141.135,194.690 140.613 C 193.952 139.946,195.718 137.863,198.639 135.957 C 200.915 134.471,200.900 134.461,200.091 136.945 M276.733 136.370 C 278.751 138.927,281.526 141.647,283.247 142.757 L 284.864 143.801 283.779 144.177 C 281.412 144.996,278.409 142.859,277.495 139.704 C 277.211 138.726,276.605 137.226,276.148 136.370 C 275.690 135.515,275.359 134.815,275.411 134.815 C 275.463 134.815,276.058 135.515,276.733 136.370 M141.842 138.444 C 141.863 139.300,142.028 140.387,142.209 140.859 C 142.473 141.550,142.463 141.659,142.158 141.416 C 141.949 141.250,141.244 140.953,140.593 140.757 C 139.941 140.560,139.227 140.342,139.006 140.271 C 138.746 140.188,139.160 139.591,140.192 138.566 C 141.064 137.699,141.784 136.967,141.791 136.939 C 141.798 136.911,141.821 137.589,141.842 138.444 M202.686 142.743 C 202.326 143.424,202.095 143.648,202.087 143.323 C 202.080 143.033,201.758 142.166,201.372 141.398 C 200.641 139.943,200.656 139.735,201.664 137.185 C 201.764 136.932,202.148 137.794,202.556 139.187 L 203.271 141.633 202.686 142.743 M112.838 139.466 C 113.543 140.226,114.516 141.424,115.000 142.128 L 115.880 143.407 115.011 143.407 C 114.438 143.407,113.993 143.181,113.704 142.741 C 113.028 141.714,110.967 139.672,109.563 138.636 L 108.296 137.703 109.926 137.893 C 111.380 138.063,111.693 138.232,112.838 139.466 M109.830 140.666 C 112.240 143.056,112.386 143.265,111.692 143.346 C 111.148 143.410,110.594 143.106,109.689 142.245 C 109.001 141.590,107.614 140.495,106.606 139.811 C 105.037 138.745,104.857 138.534,105.350 138.341 C 106.707 137.810,107.217 138.075,109.830 140.666 M211.311 139.444 C 211.126 141.028,207.810 144.377,207.530 143.262 C 207.327 142.452,208.360 140.934,210.234 139.288 C 211.522 138.158,211.462 138.150,211.311 139.444 M213.300 139.179 C 213.589 139.733,213.571 139.811,213.192 139.665 C 212.944 139.570,212.741 139.218,212.741 138.882 C 212.741 138.198,212.809 138.234,213.300 139.179 M276.409 139.983 C 276.842 141.703,276.864 141.629,275.926 141.632 C 272.993 141.642,265.302 144.132,260.781 146.535 C 258.296 147.856,257.481 148.108,257.481 147.556 C 257.481 147.393,257.248 147.254,256.963 147.247 C 256.248 147.230,254.226 146.102,254.881 146.086 C 255.163 146.080,257.429 145.020,259.918 143.732 C 264.588 141.316,267.543 140.238,272.148 139.269 C 276.056 138.447,276.021 138.441,276.409 139.983 M105.145 140.273 C 107.100 141.715,108.686 143.407,108.083 143.407 C 107.820 143.407,107.560 143.286,107.506 143.139 C 107.452 142.991,106.149 142.241,104.611 141.472 C 102.049 140.190,101.862 140.039,102.372 139.666 C 103.199 139.061,103.633 139.156,105.145 140.273 M213.590 141.864 C 214.351 143.051,214.458 143.427,214.239 144.160 C 214.095 144.642,213.965 144.884,213.951 144.698 C 213.937 144.512,213.551 143.958,213.093 143.468 C 212.422 142.749,212.285 142.369,212.385 141.510 C 212.540 140.177,212.500 140.165,213.590 141.864 M103.141 142.148 C 105.432 143.396,105.638 143.704,104.179 143.704 C 103.470 143.704,102.892 143.441,102.219 142.812 C 101.694 142.321,100.947 141.840,100.560 141.743 C 99.811 141.555,99.871 141.037,100.642 141.037 C 100.894 141.037,102.019 141.537,103.141 142.148 M120.148 143.160 C 120.637 143.490,120.793 143.680,120.494 143.583 C 120.196 143.487,119.376 143.407,118.672 143.407 C 117.526 143.407,117.329 143.300,116.786 142.381 L 116.181 141.355 117.720 141.958 C 118.567 142.290,119.659 142.831,120.148 143.160 M140.000 141.931 C 140.652 142.251,140.919 142.458,140.593 142.390 C 140.267 142.322,139.567 142.179,139.037 142.073 C 138.507 141.966,138.074 141.756,138.074 141.606 C 138.074 141.187,138.699 141.292,140.000 141.931 M201.044 143.429 C 201.539 144.918,201.537 144.940,200.859 145.661 L 200.175 146.390 199.819 145.711 C 199.442 144.991,199.841 141.926,200.312 141.926 C 200.440 141.926,200.770 142.602,201.044 143.429 M100.657 143.201 L 101.610 143.850 100.514 144.230 C 99.542 144.566,98.087 144.497,97.383 144.081 C 97.248 144.001,97.509 143.546,97.964 143.071 C 98.856 142.141,99.120 142.154,100.657 143.201 M135.172 144.519 C 134.118 146.723,134.070 146.775,133.980 145.814 C 133.864 144.584,134.394 143.232,135.218 142.655 C 136.301 141.896,136.295 142.171,135.172 144.519 M277.172 143.333 C 277.283 143.944,277.442 144.727,277.524 145.073 C 277.661 145.643,277.484 145.738,275.652 146.078 C 272.737 146.621,269.593 147.724,266.369 149.338 L 263.552 150.747 261.515 149.720 L 259.477 148.693 260.479 148.081 C 262.913 146.595,267.670 144.698,272.593 143.251 C 276.948 141.972,276.926 141.971,277.172 143.333 M136.619 145.271 C 136.293 146.033,135.861 147.451,135.661 148.420 C 135.356 149.896,135.239 150.106,134.945 149.703 C 134.604 149.236,135.063 147.529,136.638 143.407 C 137.014 142.424,137.039 142.409,137.124 143.128 C 137.173 143.544,136.946 144.509,136.619 145.271 M210.963 143.407 C 210.963 143.899,210.805 144.296,210.609 144.296 C 210.414 144.296,209.881 144.655,209.424 145.092 C 208.019 146.438,208.614 144.922,210.172 143.185 C 210.935 142.335,210.963 142.342,210.963 143.407 M218.086 144.843 C 217.769 145.113,217.237 145.667,216.904 146.074 L 216.297 146.815 216.502 145.481 C 216.614 144.748,216.709 143.936,216.713 143.677 C 216.719 143.267,216.845 143.280,217.691 143.779 C 218.640 144.339,218.649 144.364,218.086 144.843 M279.752 144.839 C 278.947 144.953,278.956 144.959,278.669 144.030 L 278.450 143.319 279.447 144.030 C 280.405 144.712,280.417 144.745,279.752 144.839 M142.152 144.769 L 143.259 145.834 142.074 145.007 C 140.437 143.866,140.265 143.704,140.686 143.704 C 140.884 143.704,141.544 144.183,142.152 144.769 M142.000 146.483 C 143.751 147.806,144.000 148.114,144.000 148.960 C 144.000 150.165,144.138 150.210,142.192 148.370 C 141.287 147.515,140.057 146.551,139.459 146.229 C 138.592 145.762,138.370 145.469,138.370 144.787 L 138.370 143.932 139.185 144.452 C 139.633 144.739,140.900 145.653,142.000 146.483 M213.031 145.173 C 213.924 146.924,213.722 150.784,212.790 149.775 C 212.502 149.464,212.019 144.000,212.280 144.000 C 212.364 144.000,212.702 144.528,213.031 145.173 M131.084 145.037 C 130.528 145.885,130.287 145.946,129.802 145.362 C 129.524 145.028,129.619 144.887,130.284 144.645 C 131.529 144.191,131.612 144.231,131.084 145.037 M97.283 145.208 C 97.631 145.230,95.789 146.009,95.287 146.052 C 95.140 146.064,95.265 145.803,95.565 145.471 C 95.865 145.139,96.297 144.939,96.524 145.027 C 96.751 145.114,97.093 145.195,97.283 145.208 M105.185 144.987 C 105.185 145.344,102.429 146.963,101.821 146.963 C 100.892 146.963,100.536 146.475,101.290 146.236 C 101.597 146.139,102.086 145.796,102.377 145.474 C 102.821 144.984,105.185 144.574,105.185 144.987 M108.268 145.516 C 107.061 146.857,105.165 147.933,104.518 147.645 C 103.965 147.398,104.085 147.251,105.764 146.130 C 107.845 144.741,109.284 144.388,108.268 145.516 M110.696 146.841 C 108.930 148.732,108.839 148.786,107.770 148.586 C 106.406 148.330,106.401 148.184,107.719 147.286 C 108.296 146.893,109.038 146.193,109.367 145.730 C 109.866 145.029,110.179 144.889,111.242 144.889 L 112.518 144.889 110.696 146.841 M114.965 146.071 C 113.288 148.188,110.899 149.812,110.316 149.230 C 110.220 149.134,110.893 148.243,111.812 147.251 C 112.730 146.259,113.481 145.322,113.481 145.168 C 113.481 145.015,114.026 144.889,114.692 144.889 L 115.902 144.889 114.965 146.071 M117.926 145.003 C 117.926 145.066,117.583 145.342,117.164 145.617 C 116.419 146.105,116.409 146.102,116.729 145.503 C 117.001 144.996,117.926 144.609,117.926 145.003 M122.370 145.352 C 122.615 145.406,123.463 145.535,124.255 145.637 C 125.640 145.817,125.671 145.841,125.058 146.271 C 124.480 146.675,124.211 146.652,122.207 146.030 C 120.641 145.545,120.146 145.283,120.515 145.137 C 120.802 145.023,121.237 145.003,121.481 145.091 C 121.726 145.180,122.126 145.297,122.370 145.352 M223.407 146.142 C 223.407 146.268,223.210 146.370,222.969 146.370 C 222.496 146.370,218.847 149.849,217.085 151.979 L 216.000 153.292 216.000 151.335 C 216.000 149.216,216.161 148.912,218.730 146.200 L 219.874 144.993 221.640 145.453 C 222.612 145.706,223.407 146.016,223.407 146.142 M211.199 147.642 L 211.111 148.786 210.304 147.940 L 209.497 147.095 210.122 146.066 L 210.747 145.038 211.017 145.768 C 211.166 146.169,211.248 147.012,211.199 147.642 M247.593 145.639 C 246.477 148.547,245.972 154.716,246.606 157.704 C 247.056 159.827,247.287 158.791,247.298 154.593 C 247.308 150.983,247.415 150.026,248.033 148.000 L 248.756 145.630 249.858 145.695 C 250.960 145.760,254.851 147.232,255.848 147.960 C 256.262 148.263,256.431 149.014,256.633 151.432 C 256.774 153.130,257.165 156.165,257.503 158.176 C 257.840 160.188,258.074 161.868,258.021 161.909 C 257.932 161.979,252.933 161.180,252.850 161.083 C 252.315 160.454,252.013 148.653,252.511 147.855 C 253.005 147.064,252.389 146.370,251.621 146.853 C 250.771 147.387,251.128 159.181,252.039 160.656 C 252.239 160.979,252.170 160.967,249.883 160.270 C 246.363 159.198,244.457 158.225,244.248 157.396 C 243.916 156.072,244.394 150.195,244.897 149.428 C 245.150 149.041,245.278 148.594,245.179 148.435 C 244.994 148.135,246.145 145.795,246.667 145.412 C 247.198 145.022,247.776 145.163,247.593 145.639 M99.892 146.033 C 99.453 146.371,98.903 146.516,98.414 146.423 C 97.683 146.283,97.707 146.252,98.818 145.909 C 100.485 145.394,100.693 145.418,99.892 146.033 M129.319 146.475 C 129.550 147.130,129.485 147.388,128.948 147.924 L 128.296 148.576 128.296 147.004 C 128.296 145.285,128.805 145.021,129.319 146.475 M137.336 150.089 C 136.326 153.217,136.135 152.025,136.955 147.722 L 137.290 145.962 137.610 147.104 C 137.875 148.047,137.827 148.566,137.336 150.089 M121.263 146.838 C 122.039 146.944,122.756 147.164,122.856 147.325 C 122.973 147.516,122.686 147.530,122.037 147.365 C 121.487 147.225,120.224 147.111,119.229 147.111 C 117.738 147.111,117.505 147.047,117.896 146.746 C 118.157 146.545,118.704 146.440,119.111 146.513 C 119.519 146.585,120.487 146.731,121.263 146.838 M127.110 148.301 C 126.928 149.424,126.600 150.262,126.191 150.653 L 125.556 151.259 125.741 150.259 C 125.843 149.709,125.926 148.881,125.926 148.419 C 125.926 147.710,127.012 146.172,127.305 146.466 C 127.354 146.515,127.267 147.341,127.110 148.301 M278.322 148.440 C 278.941 150.667,278.967 150.519,277.959 150.519 C 276.403 150.519,272.230 151.436,270.334 152.196 L 268.467 152.943 266.752 152.152 L 265.037 151.362 266.074 150.806 C 269.751 148.833,275.350 146.735,277.063 146.688 C 277.751 146.669,277.879 146.846,278.322 148.440 M225.452 148.519 C 225.621 149.374,225.845 150.884,225.949 151.873 L 226.139 153.672 224.106 154.882 C 222.989 155.547,221.050 156.967,219.799 158.036 L 217.524 159.981 217.331 159.101 C 217.120 158.142,217.612 157.605,222.370 153.601 C 224.707 151.635,225.457 150.835,225.472 150.296 C 225.501 149.177,223.775 150.399,219.810 154.303 L 216.657 157.407 216.449 156.174 C 216.086 154.025,222.463 147.117,224.942 146.975 C 225.053 146.968,225.282 147.663,225.452 148.519 M229.973 147.821 C 232.053 148.731,235.690 156.905,234.875 158.840 L 234.449 159.852 234.242 158.667 C 233.691 155.498,230.419 149.587,228.029 147.442 L 227.407 146.884 228.147 147.115 C 228.554 147.242,229.375 147.559,229.973 147.821 M140.779 148.657 C 142.508 150.274,143.512 151.591,143.290 151.950 C 143.117 152.230,139.747 149.059,139.269 148.167 C 138.552 146.827,138.966 146.961,140.779 148.657 M121.481 148.112 C 121.481 148.596,119.863 148.993,117.852 149.004 C 115.552 149.017,115.178 148.569,117.259 148.296 C 118.033 148.194,118.867 148.068,119.111 148.016 C 120.079 147.809,121.481 147.866,121.481 148.112 M124.553 149.790 C 123.863 152.435,123.542 152.730,123.760 150.519 C 123.881 149.280,124.117 148.469,124.418 148.246 C 125.068 147.768,125.071 147.803,124.553 149.790 M227.259 148.557 C 227.259 148.747,228.129 149.966,229.193 151.266 C 231.366 153.922,233.023 156.962,233.338 158.870 C 233.454 159.573,233.659 160.286,233.794 160.454 C 233.935 160.630,233.707 161.276,233.255 161.980 L 232.470 163.201 231.338 159.752 C 230.232 156.382,228.191 152.408,227.414 152.110 C 227.200 152.027,226.934 151.336,226.824 150.573 C 226.714 149.810,226.552 148.884,226.464 148.515 C 226.339 147.988,226.406 147.884,226.782 148.028 C 227.044 148.129,227.259 148.367,227.259 148.557 M122.553 150.973 C 121.919 153.401,121.476 153.681,121.682 151.524 C 121.782 150.464,122.029 149.633,122.310 149.410 C 123.002 148.860,123.041 149.106,122.553 150.973 M261.094 150.926 C 261.376 151.098,261.580 151.564,261.558 151.987 C 261.527 152.610,261.958 156.435,262.655 161.724 C 262.777 162.654,262.741 162.699,261.985 162.559 C 261.545 162.477,260.685 162.329,260.074 162.229 C 259.463 162.129,258.963 161.953,258.963 161.838 C 258.963 161.723,258.696 159.296,258.370 156.444 C 258.044 153.593,257.778 150.747,257.778 150.120 L 257.778 148.981 259.185 149.800 C 259.959 150.250,260.818 150.757,261.094 150.926 M235.165 150.829 C 235.911 151.290,236.334 153.443,235.988 155.017 C 235.782 155.955,235.752 155.916,234.979 153.726 C 234.540 152.484,233.957 151.125,233.683 150.707 C 233.009 149.679,233.057 149.478,233.852 149.995 C 234.219 150.233,234.810 150.608,235.165 150.829 M120.576 151.928 C 119.987 153.758,118.157 154.869,118.628 153.111 C 118.726 152.744,118.809 152.102,118.811 151.683 C 118.814 151.119,119.063 150.804,119.778 150.462 C 120.944 149.905,121.123 150.232,120.576 151.928 M138.864 150.893 C 139.313 152.357,138.421 154.733,137.854 153.581 C 137.561 152.985,137.970 149.926,138.343 149.926 C 138.466 149.926,138.701 150.361,138.864 150.893 M243.259 153.630 C 243.259 155.504,243.153 157.037,243.023 157.037 C 242.621 157.037,240.384 154.753,239.436 153.374 L 238.536 152.066 239.786 151.743 C 240.474 151.566,241.437 151.161,241.926 150.843 C 242.415 150.525,242.915 150.256,243.037 150.244 C 243.159 150.232,243.259 151.756,243.259 153.630 M115.137 151.578 C 113.938 152.017,113.577 151.972,113.914 151.427 C 114.021 151.253,114.601 151.121,115.203 151.132 L 116.296 151.153 115.137 151.578 M279.881 152.261 L 280.502 153.407 278.776 153.587 C 277.826 153.686,276.251 154.036,275.275 154.365 L 273.502 154.962 271.936 154.345 C 271.075 154.006,270.323 153.681,270.266 153.624 C 270.060 153.418,277.208 151.408,279.111 151.137 C 279.193 151.125,279.539 151.631,279.881 152.261 M117.632 153.029 C 117.169 154.682,116.741 154.764,116.741 153.200 C 116.741 152.395,116.902 151.939,117.257 151.741 C 117.997 151.326,118.054 151.521,117.632 153.029 M141.662 152.370 L 142.327 153.333 141.534 152.615 C 141.098 152.220,140.741 151.787,140.741 151.652 C 140.741 151.204,140.991 151.399,141.662 152.370 M265.186 154.154 C 265.187 154.680,265.380 156.244,265.615 157.630 C 265.850 159.015,266.090 160.815,266.148 161.630 L 266.254 163.111 265.032 163.011 L 263.810 162.912 263.414 159.160 C 263.196 157.096,262.960 154.632,262.889 153.684 L 262.760 151.960 263.973 152.579 C 265.013 153.110,265.185 153.333,265.186 154.154 M115.428 154.035 C 115.174 154.525,114.841 155.003,114.688 155.098 C 114.308 155.333,114.829 153.555,115.310 152.976 C 115.874 152.296,115.954 153.017,115.428 154.035 M139.962 155.109 C 140.143 156.486,140.126 156.544,139.710 155.951 C 139.417 155.533,139.327 154.994,139.449 154.387 C 139.681 153.226,139.723 153.286,139.962 155.109 M267.350 154.255 C 268.106 154.615,268.324 154.886,268.243 155.366 C 268.184 155.715,268.712 157.704,269.417 159.787 C 270.282 162.345,270.564 163.523,270.288 163.417 C 270.062 163.330,269.248 163.259,268.480 163.259 L 267.082 163.259 267.207 162.184 C 267.337 161.078,266.818 156.451,266.373 154.741 C 266.081 153.622,266.052 153.636,267.350 154.255 M141.880 155.364 C 141.371 156.343,141.333 156.327,141.333 155.124 C 141.333 154.167,141.398 154.055,141.772 154.365 C 142.115 154.651,142.139 154.866,141.880 155.364 M282.254 155.495 L 283.471 156.889 280.946 156.889 C 278.089 156.889,277.516 157.302,279.237 158.123 C 279.819 158.401,280.296 158.745,280.296 158.887 C 280.296 159.030,280.970 159.859,281.794 160.730 L 283.291 162.313 282.061 162.521 C 281.385 162.635,280.734 162.614,280.614 162.475 C 279.561 161.251,277.037 157.232,277.037 156.779 C 277.037 156.402,276.716 156.094,276.100 155.880 C 274.899 155.461,275.012 155.374,277.655 154.682 C 280.705 153.883,280.873 153.913,282.254 155.495 M228.844 157.213 C 231.813 163.323,231.969 163.957,230.838 165.321 L 229.988 166.346 229.347 164.136 C 228.994 162.921,228.313 160.726,227.834 159.259 C 226.134 154.052,226.725 152.853,228.844 157.213 M270.857 155.764 C 271.125 155.841,271.415 156.259,271.503 156.693 C 271.724 157.791,274.322 162.303,275.012 162.786 C 275.713 163.277,275.014 163.545,273.011 163.552 L 271.801 163.556 270.690 159.926 C 269.101 154.737,269.178 155.134,269.818 155.396 C 270.122 155.521,270.589 155.686,270.857 155.764 M225.775 156.222 C 225.763 158.520,225.493 158.978,223.599 159.912 C 222.597 160.406,221.147 161.292,220.375 161.881 L 218.972 162.952 218.524 162.085 C 218.015 161.101,219.021 160.036,223.342 156.984 C 225.633 155.365,225.779 155.320,225.775 156.222 M274.519 156.890 C 275.360 157.073,279.725 162.447,279.343 162.829 C 279.034 163.139,276.358 163.342,276.544 163.042 C 276.649 162.871,276.403 162.514,275.997 162.247 C 275.011 161.602,272.329 156.329,273.096 156.546 C 273.389 156.629,274.030 156.784,274.519 156.890 M286.112 158.704 C 287.069 159.295,287.652 159.715,287.407 159.636 C 284.408 158.677,282.074 157.853,282.074 157.753 C 282.074 157.178,284.607 157.774,286.112 158.704 M285.610 160.178 C 286.822 160.412,287.852 160.642,287.898 160.689 C 287.945 160.735,287.122 161.054,286.069 161.396 L 284.154 162.019 283.262 160.893 C 282.244 159.608,282.147 159.256,282.889 159.548 C 283.174 159.660,284.399 159.943,285.610 160.178 M227.827 163.553 C 229.043 167.349,229.048 167.658,227.908 168.690 C 227.242 169.293,227.162 169.061,226.350 164.144 C 226.034 162.233,226.152 159.387,226.531 159.766 C 226.599 159.833,227.182 161.537,227.827 163.553 M224.872 160.963 C 224.798 162.532,223.150 165.743,222.364 165.848 C 221.904 165.910,221.281 166.092,220.980 166.253 C 220.512 166.503,220.350 166.361,219.868 165.273 L 219.305 164.000 220.202 163.212 C 221.907 161.713,224.904 160.270,224.872 160.963 M225.929 167.938 C 226.692 171.385,226.014 172.357,224.706 169.691 L 223.893 168.033 224.452 166.386 C 225.096 164.493,225.188 164.590,225.929 167.938 M222.519 167.223 C 222.519 167.448,222.296 168.148,222.024 168.779 L 221.529 169.926 221.177 168.741 C 220.853 167.651,220.875 167.527,221.449 167.196 C 222.271 166.722,222.519 166.728,222.519 167.223 M224.246 171.185 L 224.801 172.296 223.835 173.543 C 222.547 175.205,222.034 173.981,222.862 171.220 C 223.290 169.789,223.546 169.783,224.246 171.185 " stroke="none" fill="#000000" fill-rule="evenodd"></path></g></svg>