<svg id="svg" version="1.1" xmlns="http://www.w3.org/2000/svg" xmlns:xlink="http://www.w3.org/1999/xlink" width="400" height="192.59259259259258" viewBox="0, 0, 400,192.59259259259258"><g id="svgg"><path id="path0" d="M185.211 16.162 C 182.895 17.486,180.980 19.024,181.277 19.321 C 181.451 19.496,182.547 19.037,184.201 18.096 C 187.106 16.444,187.408 16.367,188.191 17.076 C 188.697 17.534,188.636 17.613,187.029 18.574 C 183.397 20.748,183.376 21.749,186.999 19.983 C 190.179 18.432,190.640 17.431,188.831 16.008 C 187.820 15.212,186.797 15.255,185.211 16.162 M190.022 19.778 C 189.993 20.226,189.876 21.037,189.762 21.580 C 189.604 22.334,189.697 22.760,190.152 23.375 L 190.748 24.182 189.316 24.839 C 187.503 25.671,185.547 27.617,184.593 29.539 L 183.852 31.032 182.465 30.336 C 180.633 29.417,180.547 29.189,181.879 28.790 C 183.038 28.443,184.551 27.119,184.195 26.763 C 184.084 26.652,183.494 26.805,182.885 27.104 C 182.276 27.402,181.217 27.738,180.533 27.848 L 179.287 28.050 180.174 26.930 C 181.226 25.602,182.560 24.443,183.739 23.833 C 184.833 23.268,184.872 22.680,183.798 22.950 C 182.466 23.284,180.496 24.586,179.420 25.843 L 178.400 27.035 178.204 26.256 C 177.939 25.200,178.267 23.578,179.131 21.668 C 179.989 19.773,180.040 19.181,179.333 19.312 C 177.765 19.601,176.321 25.301,177.325 27.242 C 177.801 28.164,177.796 28.275,177.217 29.620 C 176.454 31.394,175.885 34.975,176.113 36.566 L 176.287 37.778 175.477 36.781 C 173.910 34.853,170.979 30.643,169.423 28.088 C 168.099 25.913,167.111 24.882,167.111 25.675 C 167.111 26.823,173.957 37.166,177.866 41.926 L 178.596 42.815 176.779 42.730 C 173.840 42.593,170.519 43.031,170.519 43.556 C 170.519 43.930,171.038 43.984,173.833 43.896 C 178.694 43.743,179.469 44.064,183.488 47.902 C 186.815 51.079,190.685 54.281,194.133 56.708 C 195.390 57.592,196.069 58.262,195.985 58.534 C 195.912 58.770,195.783 59.180,195.699 59.445 C 195.582 59.811,195.330 59.629,194.649 58.690 C 189.289 51.290,170.812 50.953,163.531 58.122 C 160.858 60.753,161.208 61.811,163.952 59.394 C 172.032 52.276,190.222 53.794,194.374 61.933 L 194.946 63.054 193.399 62.671 C 192.548 62.460,190.421 61.738,188.673 61.065 C 183.350 59.017,181.892 59.102,177.341 61.726 C 173.857 63.736,172.031 63.812,167.789 62.123 C 164.457 60.797,161.481 60.633,161.481 61.776 C 161.481 62.038,162.140 62.193,163.609 62.276 C 164.932 62.350,165.783 62.533,165.858 62.759 C 166.127 63.567,168.344 66.227,169.642 67.299 C 171.850 69.124,171.758 68.302,169.480 65.863 C 167.098 63.312,167.059 63.140,169.069 64.046 C 171.614 65.193,174.375 65.015,177.630 63.494 C 182.508 61.213,183.860 61.205,189.543 63.421 C 191.207 64.070,193.161 64.682,193.885 64.781 L 195.202 64.962 195.540 67.275 C 196.225 71.960,198.030 76.921,200.612 81.217 C 201.402 82.531,201.855 83.447,201.620 83.251 C 201.385 83.056,200.881 82.975,200.499 83.071 C 199.966 83.205,199.572 83.003,198.792 82.192 C 198.234 81.613,196.761 80.425,195.518 79.552 C 192.874 77.694,192.089 76.786,191.624 75.048 C 191.177 73.378,190.697 73.417,190.888 75.109 C 191.084 76.846,191.922 77.909,195.590 81.066 C 198.443 83.523,199.835 85.088,200.787 86.913 L 201.226 87.752 199.798 86.925 C 199.013 86.470,196.479 84.878,194.168 83.387 C 189.869 80.615,188.482 79.948,184.593 78.782 C 182.776 78.238,182.106 77.856,180.921 76.688 C 179.357 75.147,179.259 75.083,179.259 75.602 C 179.259 77.078,181.879 78.875,186.534 80.591 C 190.796 82.161,196.121 85.637,195.916 86.713 C 195.775 87.448,195.804 87.447,193.108 86.773 C 192.495 86.620,190.373 85.766,188.391 84.877 C 184.297 83.039,184.593 83.134,184.593 83.656 C 184.593 84.583,193.035 88.096,196.545 88.630 C 197.712 88.807,199.000 89.146,199.407 89.383 C 200.116 89.795,202.880 91.115,204.444 91.789 C 205.029 92.041,204.421 92.112,201.552 92.128 C 199.133 92.141,197.715 92.024,197.311 91.778 C 196.671 91.388,195.035 92.730,195.410 93.338 C 195.498 93.480,194.944 93.873,194.179 94.211 C 193.254 94.620,191.833 95.802,189.940 97.734 C 187.833 99.886,186.726 100.782,185.684 101.180 C 184.248 101.729,183.928 102.455,185.206 102.266 C 186.906 102.016,188.704 100.805,191.259 98.193 C 193.978 95.413,195.582 94.519,197.851 94.519 C 198.240 94.519,198.813 94.382,199.126 94.215 C 199.469 94.030,200.221 94.001,201.029 94.140 L 202.364 94.370 199.923 95.590 C 198.580 96.260,196.329 97.367,194.921 98.049 C 191.587 99.665,189.443 101.871,187.410 105.778 C 184.792 110.810,181.006 113.954,174.519 116.483 C 171.011 117.850,171.136 117.782,171.383 118.183 C 171.596 118.527,174.512 117.591,177.575 116.198 C 182.571 113.925,185.872 110.907,188.296 106.399 C 189.907 103.403,191.670 101.115,191.691 101.993 C 191.730 103.576,194.550 103.768,194.862 102.209 C 195.033 101.354,195.746 100.662,198.222 98.945 L 199.259 98.226 198.593 99.261 C 198.227 99.830,197.227 101.558,196.371 103.099 C 195.515 104.641,194.043 106.730,193.100 107.741 C 191.289 109.684,191.246 110.571,193.030 109.211 C 194.488 108.099,195.838 106.334,197.905 102.838 C 200.439 98.554,201.815 97.042,204.019 96.121 L 205.109 95.666 204.505 96.648 C 204.173 97.188,203.670 98.230,203.387 98.963 C 203.104 99.696,202.615 100.583,202.301 100.934 C 201.505 101.821,201.720 102.879,202.772 103.247 C 203.830 103.618,204.891 102.564,204.605 101.426 C 204.408 100.640,205.253 98.801,206.594 97.097 C 207.695 95.698,207.941 95.855,207.132 97.441 C 206.794 98.102,206.519 98.973,206.519 99.377 C 206.519 100.263,201.447 110.082,198.829 114.264 C 194.729 120.812,190.653 126.052,185.656 131.194 C 183.224 133.697,182.217 134.928,182.427 135.139 C 183.115 135.827,192.214 126.275,196.989 119.852 C 198.201 118.222,199.105 117.222,198.998 117.630 C 198.662 118.916,197.930 123.956,197.922 125.037 C 197.900 128.380,192.388 132.966,181.810 138.444 C 173.264 142.870,173.469 142.779,173.916 141.945 C 174.085 141.629,174.806 139.699,175.518 137.655 C 176.935 133.590,178.341 131.020,180.869 127.873 C 181.776 126.744,182.519 125.644,182.519 125.429 C 182.519 125.213,182.631 125.037,182.769 125.037 C 183.485 125.037,189.654 120.555,191.967 118.354 C 196.219 114.307,198.997 110.296,200.721 105.713 C 202.313 101.480,200.564 101.727,198.158 106.074 C 191.015 118.977,180.555 126.956,170.815 126.933 C 166.692 126.924,165.456 126.102,161.123 120.487 C 159.564 118.466,158.147 117.310,157.734 117.723 C 157.615 117.842,158.126 118.570,158.870 119.340 C 159.614 120.110,160.913 121.702,161.756 122.877 C 165.848 128.578,171.243 130.034,177.925 127.239 C 178.514 126.993,178.514 126.996,177.940 127.866 C 176.547 129.980,175.956 131.387,174.654 135.704 C 173.141 140.718,172.338 142.536,170.932 144.138 C 169.824 145.400,169.902 146.491,171.041 145.654 C 171.405 145.386,173.037 144.526,174.667 143.743 C 186.151 138.225,193.022 134.148,196.039 131.061 C 198.123 128.930,198.222 128.867,198.222 129.679 C 198.222 130.826,199.288 134.604,200.011 136.022 C 202.078 140.073,204.425 141.038,213.630 141.620 C 216.156 141.780,218.475 141.948,218.783 141.993 C 219.883 142.152,219.558 141.399,218.309 140.893 C 217.444 140.543,215.630 140.298,212.637 140.128 C 206.259 139.766,205.694 139.446,205.610 136.148 C 205.598 135.659,205.478 134.993,205.344 134.667 C 204.928 133.655,204.639 134.892,204.821 136.901 L 204.979 138.651 204.286 138.140 C 203.368 137.465,203.104 135.600,203.135 130.000 C 203.148 127.596,203.064 125.630,202.949 125.630 C 202.606 125.630,202.076 129.891,202.053 132.827 L 202.032 135.556 201.490 134.337 C 199.185 129.156,199.749 121.013,202.988 112.716 C 204.373 109.169,208.955 100.077,209.439 99.915 C 210.043 99.714,209.800 100.696,208.723 102.810 C 207.956 104.315,207.693 105.179,207.760 105.973 C 207.892 107.539,208.483 107.548,208.659 105.986 C 208.811 104.636,210.842 100.631,211.247 100.882 C 211.375 100.960,211.220 101.928,210.902 103.031 C 210.150 105.646,210.066 109.443,210.733 110.688 C 211.329 111.803,212.033 112.426,212.267 112.048 C 212.361 111.896,212.256 111.620,212.034 111.435 C 211.106 110.666,210.869 108.643,211.400 106.025 C 212.006 103.033,211.989 103.054,212.419 104.763 C 212.865 106.532,213.896 108.551,216.815 113.366 C 220.924 120.146,222.363 124.674,221.677 128.672 C 221.316 130.780,221.387 131.324,221.951 130.760 C 224.107 128.604,222.367 121.151,217.789 112.925 C 214.708 107.389,212.707 102.157,213.404 101.460 C 213.489 101.375,214.909 102.630,216.559 104.249 C 219.692 107.324,220.444 108.515,221.058 111.376 C 221.478 113.336,222.112 113.258,221.981 111.263 C 221.798 108.476,220.880 106.778,217.891 103.698 L 215.131 100.853 215.639 99.770 C 215.921 99.170,216.369 98.682,216.642 98.676 C 216.914 98.671,217.321 98.596,217.546 98.510 C 217.808 98.409,218.146 98.755,218.483 99.472 C 220.050 102.798,222.632 106.186,227.156 110.854 C 234.140 118.061,235.824 123.389,233.368 130.507 C 231.795 135.068,226.232 141.287,223.688 141.331 C 223.401 141.335,222.532 138.574,222.299 136.913 C 221.958 134.492,221.191 134.451,221.410 136.866 C 221.611 139.086,222.771 142.519,223.321 142.519 C 226.420 142.519,232.047 137.599,234.165 133.037 C 234.657 131.978,235.091 131.069,235.130 131.017 C 235.169 130.965,235.847 131.247,236.637 131.643 C 241.929 134.295,249.643 132.842,257.799 127.656 C 258.684 127.093,259.580 126.529,259.791 126.402 C 260.002 126.275,259.754 126.854,259.240 127.689 C 253.120 137.636,253.455 148.549,260.106 155.904 C 261.238 157.155,262.572 158.773,263.072 159.499 C 265.502 163.030,268.565 163.837,272.405 161.958 C 274.033 161.162,277.037 158.715,277.037 158.185 C 277.037 157.391,276.015 157.706,274.457 158.980 C 269.931 162.682,267.688 162.356,264.139 157.481 C 263.664 156.830,262.406 155.285,261.342 154.050 C 255.314 147.051,255.303 139.210,261.304 128.782 C 262.255 127.130,263.335 125.178,263.704 124.444 C 264.073 123.711,265.134 122.378,266.062 121.481 C 266.990 120.585,268.206 119.291,268.764 118.604 C 269.962 117.130,272.296 116.966,272.296 118.356 C 272.296 120.121,270.519 124.444,269.793 124.444 C 268.592 124.444,268.039 126.790,269.087 127.438 C 269.319 127.582,269.171 128.077,268.608 129.037 C 266.166 133.205,265.266 135.926,264.977 140.019 C 264.707 143.842,265.956 150.074,266.991 150.074 C 267.443 150.074,267.438 150.022,266.780 147.578 C 265.225 141.811,266.396 134.749,269.737 129.735 C 272.225 126.002,274.334 123.257,274.504 123.532 C 274.865 124.115,274.375 125.856,273.237 128.033 C 271.791 130.801,271.247 133.185,271.597 135.217 C 271.946 137.242,272.694 137.499,272.429 135.503 C 272.058 132.709,274.306 127.097,276.095 126.350 C 277.076 125.940,277.108 125.876,276.948 124.677 C 276.766 123.325,276.975 121.778,277.338 121.778 C 277.758 121.778,278.445 123.974,279.100 127.405 C 279.973 131.986,281.148 134.646,282.050 134.089 C 282.234 133.975,282.124 133.539,281.763 132.952 C 281.004 131.717,280.691 130.510,280.298 127.311 L 279.978 124.695 280.730 124.104 C 281.634 123.392,281.689 122.650,280.889 121.926 C 280.563 121.631,280.292 121.244,280.286 121.065 C 280.281 120.887,279.831 119.570,279.287 118.138 L 278.296 115.536 279.074 116.041 C 279.502 116.318,280.284 116.823,280.811 117.162 C 281.342 117.502,281.772 118.032,281.774 118.347 C 281.776 118.660,282.011 119.174,282.296 119.489 C 282.695 119.929,282.821 120.622,282.844 122.475 C 282.879 125.439,283.605 128.163,285.605 132.833 C 289.396 141.683,288.885 147.609,283.914 152.466 L 282.222 154.119 282.074 149.874 C 281.910 145.183,281.481 144.324,281.321 148.369 C 281.092 154.167,280.942 154.882,279.809 155.582 C 278.746 156.239,278.614 156.961,279.587 156.791 C 279.896 156.737,280.418 156.661,280.747 156.623 C 281.076 156.585,281.685 156.229,282.099 155.832 C 282.513 155.436,283.676 154.526,284.684 153.810 C 288.331 151.221,289.852 147.738,289.897 141.871 L 289.926 138.112 291.111 139.311 C 293.490 141.719,296.184 143.171,301.393 144.852 C 302.973 145.362,305.307 146.260,306.578 146.848 C 311.381 149.069,314.582 148.438,316.882 144.818 C 317.367 144.054,317.368 143.995,316.891 143.812 C 316.612 143.705,316.284 143.779,316.162 143.978 C 316.037 144.180,315.867 143.647,315.776 142.762 C 315.463 139.746,310.279 127.232,309.617 127.894 C 309.421 128.090,309.636 128.880,310.255 130.243 C 316.531 144.057,315.893 148.813,308.148 145.940 C 294.465 140.863,293.454 140.268,290.210 135.390 C 287.958 132.002,285.182 124.240,285.391 121.913 L 285.481 120.897 287.004 121.605 C 289.011 122.538,290.731 124.127,292.056 126.274 C 293.505 128.621,294.042 128.116,292.725 125.645 C 291.492 123.332,288.787 120.791,286.809 120.089 C 285.649 119.677,285.333 119.426,285.333 118.917 L 285.333 118.270 287.778 119.020 C 293.619 120.811,295.562 122.954,299.582 132.041 C 302.009 137.525,302.214 137.905,302.563 137.556 C 302.914 137.204,297.383 124.780,295.828 122.430 C 294.638 120.630,292.284 118.963,289.690 118.081 C 287.470 117.327,287.556 117.037,290.000 117.039 C 292.239 117.041,295.774 117.808,298.799 118.946 C 301.129 119.823,301.333 119.850,301.333 119.283 C 301.333 119.041,300.697 118.651,299.833 118.364 C 297.874 117.713,298.084 117.585,300.532 117.937 C 301.625 118.094,303.418 118.352,304.518 118.510 C 310.527 119.374,316.037 124.651,317.059 130.520 C 317.488 132.985,317.254 138.714,316.632 140.962 C 316.227 142.428,316.428 143.294,317.018 142.626 C 317.497 142.085,318.307 139.615,318.657 137.630 L 319.023 135.556 319.529 137.185 C 320.004 138.713,320.152 139.760,320.878 146.741 C 321.505 152.771,327.081 159.397,331.844 159.771 L 332.873 159.852 333.073 158.074 C 333.183 157.096,333.420 155.004,333.600 153.425 C 334.767 143.146,331.526 137.776,320.949 132.469 C 319.923 131.955,319.040 131.372,318.987 131.174 C 318.934 130.976,318.729 129.958,318.533 128.910 C 318.189 127.068,316.773 123.794,316.156 123.412 C 315.991 123.310,315.713 122.961,315.539 122.636 C 314.294 120.310,329.170 130.456,331.108 133.256 C 334.824 138.621,339.085 141.505,345.666 143.112 C 350.829 144.373,353.194 145.549,358.012 149.253 C 361.048 151.587,361.164 149.743,358.341 144.000 C 354.012 135.190,341.707 128.921,332.783 130.979 C 331.268 131.328,330.963 131.176,327.810 128.492 C 326.105 127.040,324.326 125.789,319.221 122.453 C 318.790 122.171,318.778 122.127,319.166 122.255 C 321.311 122.960,327.872 121.116,332.213 118.587 C 336.786 115.924,338.050 115.350,340.414 114.861 C 343.822 114.156,343.741 114.034,338.141 111.454 C 329.351 107.403,323.705 106.189,319.151 107.370 C 317.603 107.772,317.582 107.768,317.752 107.148 C 318.823 103.239,318.504 99.745,317.091 99.908 C 316.299 100.000,316.296 100.010,316.109 103.111 C 315.913 106.348,315.377 109.037,314.928 109.037 C 314.784 109.037,314.667 109.241,314.667 109.489 C 314.667 110.303,312.183 112.475,310.657 112.995 C 308.428 113.754,305.931 113.849,298.519 113.458 C 289.830 112.999,287.314 113.025,285.495 113.593 C 283.741 114.142,283.812 114.186,284.241 112.818 C 284.849 110.876,287.007 110.300,296.148 109.640 C 300.924 109.295,303.021 108.812,305.926 107.386 C 308.214 106.262,310.922 104.117,310.636 103.655 C 310.532 103.485,310.120 103.677,309.671 104.104 C 306.412 107.209,302.729 108.243,293.299 108.704 C 288.478 108.940,287.577 109.065,285.945 109.724 C 284.244 110.411,283.259 110.493,283.259 109.946 C 283.259 109.467,290.168 106.331,293.407 105.340 C 296.273 104.464,297.782 103.704,296.654 103.704 C 295.634 103.704,288.493 106.051,286.270 107.117 C 283.029 108.672,283.152 108.651,282.725 107.713 C 282.347 106.884,284.031 105.365,287.481 103.421 C 289.189 102.460,289.774 101.708,288.519 102.088 C 287.112 102.514,283.796 104.419,282.547 105.518 C 280.919 106.951,279.711 107.071,279.187 105.852 C 278.994 105.404,278.665 104.796,278.455 104.501 C 278.137 104.054,278.152 103.907,278.546 103.612 C 278.805 103.418,280.251 101.326,281.758 98.963 C 289.054 87.528,293.049 85.342,300.858 88.515 C 301.983 88.972,303.691 89.341,305.460 89.508 C 307.007 89.655,308.728 89.860,309.284 89.964 L 310.296 90.154 307.963 91.329 C 305.280 92.681,302.467 94.526,302.292 95.049 C 302.085 95.672,302.740 95.443,304.591 94.246 C 306.195 93.210,309.509 91.675,311.333 91.125 C 312.254 90.846,314.870 93.487,315.962 95.797 C 316.772 97.511,317.566 97.938,317.390 96.565 C 316.815 92.098,312.447 88.844,306.299 88.303 C 303.819 88.085,302.665 87.826,301.073 87.127 C 294.048 84.044,288.745 86.071,283.220 93.954 C 282.182 95.435,281.166 96.867,280.962 97.138 C 280.757 97.408,281.057 96.520,281.627 95.163 C 284.678 87.901,284.626 82.839,281.472 80.185 C 280.574 79.430,279.302 79.156,278.995 79.651 C 278.912 79.786,279.314 80.552,279.889 81.355 C 282.608 85.156,282.541 87.491,279.509 94.573 C 278.624 96.640,277.603 99.508,277.239 100.946 C 276.533 103.738,275.818 104.348,275.444 102.478 C 275.345 101.983,274.763 100.767,274.150 99.775 C 272.993 97.900,272.625 95.209,273.279 93.407 C 273.683 92.296,272.907 92.625,272.429 93.768 C 271.656 95.620,271.874 97.473,273.185 100.185 C 274.571 103.050,274.601 103.327,273.625 104.253 C 273.220 104.637,272.889 105.070,272.889 105.216 C 272.889 105.362,272.756 105.481,272.593 105.481 C 272.430 105.481,272.296 105.206,272.296 104.868 C 272.296 104.495,271.136 103.047,269.326 101.163 C 265.753 97.443,264.173 95.089,263.329 92.222 C 262.351 88.901,261.804 89.413,262.688 92.822 C 263.452 95.772,264.745 97.943,267.376 100.698 C 269.726 103.158,270.815 104.496,270.815 104.926 C 270.815 105.881,265.250 102.512,264.818 101.296 C 264.739 101.072,264.571 100.985,264.445 101.102 C 263.619 101.871,265.722 104.064,268.361 105.186 C 270.609 106.141,270.898 106.629,269.118 106.465 C 266.536 106.226,264.769 105.715,262.001 104.406 C 260.494 103.694,259.127 103.111,258.962 103.111 C 258.798 103.111,259.068 102.552,259.562 101.870 C 263.027 97.086,262.025 87.866,257.261 80.690 C 256.291 79.230,255.704 78.733,255.704 79.374 C 255.704 79.519,256.295 80.752,257.018 82.115 C 258.723 85.331,259.739 88.415,260.178 91.715 C 260.967 97.641,259.778 99.782,254.999 101.044 C 253.594 101.416,252.444 101.833,252.444 101.971 C 252.444 102.440,254.659 102.209,256.645 101.533 L 258.623 100.858 258.073 101.631 C 257.770 102.056,256.502 103.374,255.254 104.559 C 252.466 107.207,252.606 107.590,255.601 105.508 C 258.286 103.641,258.322 103.649,261.333 106.679 C 265.020 110.389,265.562 111.110,264.667 111.112 C 264.239 111.114,257.009 114.448,256.645 114.812 C 255.885 115.571,257.506 115.238,260.223 114.076 C 264.375 112.301,265.778 112.001,265.778 112.890 C 265.778 113.798,266.536 115.115,267.436 115.770 L 268.222 116.343 264.460 119.727 C 257.882 125.645,253.051 128.946,248.588 130.575 C 244.319 132.132,235.071 131.347,235.506 129.465 C 236.933 123.286,235.376 117.481,230.973 112.561 C 223.295 103.983,219.143 98.271,219.742 97.111 C 220.253 96.124,219.938 96.099,222.357 97.316 C 227.976 100.143,237.966 102.798,240.782 102.214 C 243.062 101.740,242.739 101.352,240.222 101.539 C 236.169 101.841,225.188 97.904,220.297 94.396 C 218.581 93.164,218.598 93.139,220.635 93.913 C 224.659 95.442,233.519 95.524,237.574 94.070 C 238.702 93.665,237.424 93.442,236.073 93.808 C 229.178 95.673,218.710 93.535,217.777 90.073 C 217.606 89.436,217.253 88.703,216.994 88.444 C 216.734 88.184,216.571 87.934,216.631 87.888 C 216.692 87.842,217.941 87.166,219.407 86.385 C 222.731 84.615,226.418 82.233,229.404 79.926 C 234.186 76.230,244.876 73.962,249.852 75.588 C 251.278 76.054,251.251 76.264,249.704 76.727 C 247.201 77.476,241.185 80.773,241.185 81.395 C 241.185 81.937,241.390 81.884,242.930 80.943 C 244.583 79.932,248.745 78.145,250.918 77.513 C 252.595 77.025,253.588 77.249,254.473 78.316 C 255.021 78.976,256.357 78.716,258.673 77.499 C 259.834 76.889,260.818 76.435,260.859 76.491 C 260.900 76.547,261.078 77.393,261.255 78.370 C 261.678 80.711,262.733 83.164,263.141 82.756 C 263.350 82.547,263.300 81.682,262.982 80.007 C 262.212 75.949,261.923 76.281,266.219 76.289 C 270.619 76.298,270.247 75.874,270.447 81.111 C 270.559 84.072,270.691 85.037,270.983 85.037 C 271.554 85.037,271.808 82.746,271.628 79.215 L 271.471 76.148 272.321 76.148 C 272.789 76.148,274.026 76.470,275.071 76.863 C 278.131 78.015,278.809 76.647,275.845 75.302 L 274.061 74.492 274.955 73.831 C 275.447 73.467,276.765 71.806,277.884 70.140 C 281.295 65.061,284.528 61.702,287.704 59.934 C 289.654 58.848,288.786 58.043,285.039 57.462 C 280.310 56.728,273.846 58.438,269.132 61.669 C 267.484 62.799,267.456 62.783,267.688 60.815 C 268.407 54.726,269.636 52.037,273.365 48.393 C 276.639 45.194,276.697 44.818,273.924 44.777 C 258.964 44.552,244.800 56.296,243.214 70.238 L 242.888 73.106 241.074 73.287 C 240.076 73.386,238.399 73.733,237.349 74.058 C 235.001 74.783,235.061 74.877,236.460 72.678 C 239.504 67.890,240.235 60.338,237.988 56.889 C 237.722 56.481,237.467 55.910,237.419 55.618 C 236.913 52.488,233.136 49.297,225.316 45.392 C 219.081 42.278,216.874 42.065,212.193 44.127 C 210.377 44.927,208.642 45.453,207.156 45.655 C 204.430 46.025,202.668 46.811,201.700 48.089 C 199.627 50.824,200.035 51.585,202.377 49.351 C 203.327 48.445,204.147 47.696,204.200 47.687 C 204.253 47.678,205.630 47.570,207.259 47.447 C 209.856 47.252,210.555 47.071,212.916 45.983 C 216.153 44.491,217.427 44.411,220.688 45.500 C 226.268 47.362,234.963 53.029,234.963 54.803 C 234.963 55.893,231.006 55.505,227.934 54.114 C 224.514 52.566,223.305 52.484,219.852 53.571 C 214.863 55.142,214.285 55.098,210.951 52.902 C 207.597 50.692,204.751 50.107,201.738 51.010 C 200.401 51.411,200.087 52.294,201.407 51.942 C 203.706 51.328,209.778 52.685,209.778 53.812 C 209.778 53.863,209.373 54.543,208.878 55.323 C 207.409 57.638,206.029 62.815,206.881 62.815 C 207.133 62.815,207.449 62.207,207.689 61.259 C 208.391 58.490,210.261 54.815,210.969 54.815 C 211.113 54.815,210.973 55.381,210.659 56.074 C 209.966 57.600,209.933 58.074,210.519 58.074 C 210.763 58.074,210.963 57.907,210.964 57.704 C 210.965 57.500,211.224 56.909,211.541 56.390 L 212.116 55.446 213.374 56.054 C 214.965 56.822,216.453 56.665,219.704 55.384 C 222.661 54.218,224.454 54.288,227.200 55.674 C 230.744 57.463,233.215 57.714,235.102 56.477 C 235.801 56.020,236.384 56.267,236.015 56.864 C 235.923 57.014,236.046 57.980,236.290 59.012 C 237.751 65.210,235.685 71.071,230.269 76.096 C 226.030 80.029,215.158 87.234,213.884 86.954 C 210.628 86.239,213.829 81.276,220.494 76.707 C 226.876 72.331,228.741 70.077,228.741 66.739 C 228.741 65.755,228.628 65.220,228.444 65.333 C 228.281 65.434,228.148 65.926,228.148 66.428 C 228.148 69.322,225.791 72.214,221.333 74.787 C 215.969 77.884,213.149 80.557,212.114 83.527 C 211.761 84.539,211.342 84.708,211.053 83.954 C 210.706 83.051,211.556 80.760,213.037 78.606 C 213.845 77.432,214.394 76.403,214.259 76.319 C 213.647 75.941,210.552 80.393,210.041 82.386 C 209.752 83.515,209.533 83.852,209.086 83.852 C 207.543 83.852,209.106 75.674,211.454 71.459 C 212.522 69.543,212.560 68.615,211.518 69.900 C 209.131 72.844,207.324 77.882,207.286 81.696 L 207.259 84.429 206.523 83.694 C 205.846 83.017,205.778 82.700,205.676 79.702 C 205.614 77.910,205.451 76.444,205.312 76.444 C 204.863 76.444,204.394 78.861,204.495 80.652 C 204.590 82.356,204.576 82.394,203.860 82.309 C 202.474 82.145,197.128 69.586,196.823 65.778 C 196.392 60.399,196.394 60.196,196.893 59.144 C 197.166 58.568,197.331 57.925,197.260 57.715 C 197.090 57.219,198.019 55.043,199.168 53.248 C 200.139 51.731,200.052 50.914,199.052 52.148 C 198.722 52.556,197.996 53.794,197.438 54.901 L 196.425 56.913 194.658 55.674 C 193.686 54.992,191.791 53.546,190.446 52.461 L 188.000 50.487 187.320 47.836 C 186.483 44.570,186.170 41.396,186.598 40.507 C 186.771 40.147,187.067 39.185,187.254 38.370 C 187.442 37.556,187.939 36.119,188.359 35.179 C 189.135 33.443,189.066 32.550,188.239 33.630 C 187.638 34.414,186.370 37.235,186.370 37.786 C 186.370 38.663,185.729 38.188,185.152 36.882 C 183.394 32.910,186.940 26.024,191.067 25.394 C 192.255 25.213,192.387 24.746,191.535 23.734 C 190.530 22.539,190.678 22.407,192.375 22.985 C 194.908 23.848,196.239 25.676,195.001 26.592 C 194.045 27.299,192.341 30.370,192.709 30.723 C 192.846 30.855,193.109 30.705,193.294 30.390 C 193.742 29.625,195.879 27.257,196.112 27.267 C 196.213 27.272,196.763 27.673,197.333 28.160 L 198.370 29.044 197.493 29.768 C 196.483 30.601,196.674 31.057,197.858 30.639 C 198.610 30.374,198.702 30.433,199.171 31.473 C 199.664 32.569,200.069 32.775,201.013 32.413 C 201.605 32.185,201.628 31.407,201.043 31.407 C 200.801 31.407,200.521 31.041,200.420 30.593 C 199.853 28.073,199.663 27.634,198.986 27.271 C 198.588 27.059,197.853 26.115,197.352 25.175 C 195.841 22.340,194.084 21.129,191.861 21.389 C 190.927 21.498,190.849 21.449,190.998 20.856 C 191.160 20.208,190.692 18.963,190.286 18.963 C 190.169 18.963,190.050 19.330,190.022 19.778 M179.683 30.504 C 180.383 30.986,181.474 31.587,182.109 31.841 C 183.241 32.294,183.261 32.329,183.156 33.645 C 182.997 35.643,183.316 36.841,184.454 38.533 C 185.303 39.795,185.452 40.243,185.318 41.139 C 185.228 41.735,185.343 43.622,185.572 45.333 C 185.801 47.044,185.954 48.487,185.912 48.539 C 185.600 48.925,178.027 40.640,177.722 39.579 C 177.256 37.958,177.270 34.089,177.750 31.630 C 178.205 29.305,178.061 29.389,179.683 30.504 M202.185 32.434 C 202.088 32.687,202.202 33.192,202.437 33.558 C 203.423 35.086,203.295 35.945,202.205 35.121 C 201.468 34.563,200.296 34.538,200.296 35.080 C 200.296 35.411,202.859 37.037,203.381 37.037 C 203.821 37.037,204.444 35.973,204.444 35.223 C 204.444 33.498,202.634 31.263,202.185 32.434 M192.780 36.135 C 191.741 37.497,190.450 38.515,188.178 39.764 C 186.957 40.435,187.017 40.719,188.538 41.455 C 192.725 43.482,199.407 40.062,199.407 35.893 C 199.407 33.964,198.485 34.453,197.251 37.037 C 196.072 39.505,192.487 41.373,190.088 40.771 C 189.302 40.574,189.307 40.566,190.719 39.619 C 192.337 38.536,194.655 35.426,194.191 34.961 C 193.998 34.768,193.516 35.169,192.780 36.135 M271.103 48.066 C 268.137 51.176,267.086 53.886,265.767 61.829 C 264.309 70.608,262.872 73.699,259.477 75.360 C 258.614 75.783,257.362 76.595,256.695 77.166 C 255.538 78.156,255.461 78.180,255.001 77.671 C 254.332 76.932,254.356 76.860,255.811 75.243 C 258.030 72.774,259.254 69.439,259.264 65.837 C 259.269 63.686,259.956 60.765,260.896 58.893 C 261.694 57.304,261.786 56.889,261.337 56.889 C 260.315 56.889,258.485 61.478,257.769 65.835 C 257.087 69.987,255.854 72.948,254.100 74.644 L 253.052 75.658 251.637 74.891 C 250.003 74.005,247.060 73.185,245.513 73.185 C 244.239 73.185,244.238 73.184,245.004 69.476 C 247.502 57.370,258.958 47.719,272.216 46.551 C 272.416 46.533,271.915 47.215,271.103 48.066 M118.953 55.077 C 108.640 58.792,110.421 71.593,122.138 77.981 C 123.325 78.628,124.030 79.064,123.704 78.950 C 121.977 78.345,101.702 78.632,101.846 79.259 C 101.883 79.422,103.483 80.109,105.401 80.785 C 107.319 81.462,110.556 82.613,112.593 83.343 C 114.630 84.074,117.063 84.842,118.000 85.050 C 120.136 85.523,120.125 85.645,117.883 86.344 C 115.672 87.034,111.828 88.868,110.095 90.060 L 108.818 90.938 107.680 90.358 C 107.054 90.039,106.357 89.778,106.132 89.778 C 105.907 89.778,104.902 89.033,103.898 88.122 C 99.522 84.149,94.882 82.386,88.000 82.081 C 85.370 81.965,83.120 81.724,82.736 81.519 C 81.652 80.938,81.600 81.814,82.593 83.936 C 84.972 89.020,88.000 90.346,98.997 91.120 C 108.003 91.754,107.954 91.352,99.536 95.574 L 92.296 99.205 91.407 98.372 C 87.407 94.626,80.846 93.213,74.667 94.769 C 71.562 95.551,70.725 95.555,69.060 94.800 C 65.654 93.255,67.847 97.745,71.373 99.535 C 72.843 100.282,79.371 102.401,82.051 103.002 L 84.251 103.495 83.144 104.118 C 82.535 104.460,80.312 105.831,78.203 107.164 L 74.370 109.586 72.684 108.571 C 66.946 105.116,59.160 105.204,51.891 108.807 C 48.495 110.489,48.518 110.655,52.373 112.419 C 58.245 115.106,63.124 115.704,67.608 114.287 L 68.994 113.849 67.227 115.485 C 66.255 116.384,64.632 117.985,63.619 119.042 C 62.327 120.390,61.223 121.215,59.918 121.806 C 56.116 123.529,53.987 125.463,50.972 129.931 C 49.870 131.563,48.751 133.079,48.484 133.300 C 46.167 135.223,50.512 134.176,55.684 131.565 C 59.187 129.797,61.067 127.463,62.030 123.688 C 62.453 122.030,62.667 121.747,65.662 118.892 C 69.248 115.474,69.317 115.442,68.337 117.658 C 65.832 123.323,66.492 136.252,69.232 135.200 C 69.479 135.106,69.630 134.567,69.630 133.783 C 69.630 131.837,70.305 130.329,72.774 126.767 C 76.881 120.841,77.351 116.669,74.280 113.410 L 73.515 112.598 74.757 111.746 C 77.013 110.199,84.519 105.778,84.889 105.778 C 84.932 105.778,84.432 107.076,83.778 108.662 C 80.557 116.486,79.852 123.111,81.972 125.630 C 83.073 126.938,83.582 126.698,83.712 124.812 C 83.848 122.818,84.847 120.978,87.495 117.844 C 92.635 111.761,93.694 107.319,90.743 104.225 C 90.318 103.779,90.026 103.361,90.096 103.297 C 90.856 102.593,95.750 100.488,95.575 100.940 C 92.746 108.247,93.187 115.353,96.730 119.556 C 97.579 120.563,98.370 120.093,98.370 118.581 C 98.370 117.428,99.162 116.075,101.379 113.439 C 103.663 110.724,104.882 108.509,104.886 107.065 C 104.888 106.276,104.982 106.154,105.481 106.285 C 106.358 106.514,106.235 105.650,105.333 105.239 C 101.709 103.588,103.440 98.401,109.205 93.633 C 113.612 89.987,115.412 89.220,123.159 87.685 C 125.673 87.187,128.274 86.587,128.939 86.353 C 131.738 85.365,131.251 86.036,127.123 88.856 C 123.385 91.410,123.062 91.695,123.560 92.003 C 123.823 92.165,125.709 91.088,129.421 88.656 C 129.844 88.379,129.513 88.830,128.685 89.657 C 126.728 91.615,125.738 93.216,124.679 96.138 C 124.205 97.447,123.491 99.016,123.093 99.623 C 122.260 100.897,122.227 101.037,122.763 101.037 C 123.488 101.037,124.454 99.666,125.329 97.394 C 126.462 94.452,127.385 93.022,129.714 90.605 C 130.905 89.369,131.566 88.454,131.463 88.185 C 131.325 87.827,131.441 87.835,132.137 88.235 L 132.977 88.717 131.992 89.867 C 130.562 91.538,129.189 94.352,127.264 99.556 C 123.465 109.825,120.658 113.228,115.987 113.228 C 113.991 113.228,111.887 112.205,112.311 111.440 C 112.456 111.178,112.758 110.230,112.983 109.333 C 113.208 108.437,113.445 107.520,113.511 107.296 C 113.576 107.072,113.475 106.832,113.286 106.762 C 112.922 106.628,111.704 109.528,111.704 110.530 C 111.704 111.358,111.250 111.249,110.539 110.251 C 109.748 109.140,109.755 109.062,110.856 106.880 C 112.160 104.293,114.081 101.897,116.154 100.268 C 117.993 98.823,118.291 98.370,117.406 98.370 C 115.925 98.370,111.074 103.610,109.588 106.815 C 109.210 107.630,108.868 108.349,108.828 108.413 C 108.788 108.477,108.554 108.362,108.307 108.157 C 108.061 107.953,107.647 107.867,107.387 107.967 C 106.667 108.243,112.082 113.565,113.587 114.061 C 119.036 115.856,124.151 111.496,127.999 101.778 C 129.791 97.251,130.745 95.248,132.058 93.259 C 133.605 90.917,133.735 90.831,133.178 92.519 C 131.428 97.817,128.642 117.185,129.630 117.185 C 130.355 117.185,137.140 100.488,138.118 96.296 L 138.637 94.074 138.430 96.741 C 137.627 107.065,138.723 111.158,143.000 113.801 L 144.016 114.429 142.437 115.380 C 140.424 116.592,133.348 121.878,131.407 123.619 C 130.476 124.456,129.521 125.024,128.836 125.151 C 123.114 126.209,118.587 131.305,116.710 138.798 C 116.096 141.249,115.442 143.086,114.805 144.143 C 113.824 145.773,114.050 147.403,115.069 146.045 C 115.255 145.797,116.474 145.012,117.778 144.300 C 129.343 137.984,133.003 133.064,131.476 125.892 C 131.223 124.704,132.069 123.935,138.352 119.636 C 141.249 117.654,141.455 117.591,140.809 118.885 C 139.875 120.758,139.962 124.235,141.047 128.336 C 141.709 130.839,142.034 132.778,142.073 134.457 C 142.147 137.674,142.289 137.759,144.597 135.977 C 152.055 130.216,155.853 124.172,155.499 118.627 C 155.405 117.141,155.457 116.832,155.761 117.084 C 156.450 117.656,157.216 117.133,156.633 116.489 C 155.920 115.702,156.022 115.422,157.333 114.554 C 158.358 113.875,158.874 113.185,158.356 113.185 C 158.039 113.185,156.289 114.152,155.751 114.624 C 155.246 115.068,155.175 115.061,154.788 114.532 C 154.166 113.681,154.269 113.431,155.709 112.296 C 156.820 111.421,158.009 110.668,162.667 107.890 C 162.911 107.744,163.010 107.519,162.885 107.389 C 162.409 106.892,156.392 110.233,154.472 112.061 C 152.910 113.548,152.076 110.626,153.015 106.953 C 155.989 95.320,165.918 91.010,184.406 93.326 C 188.401 93.826,191.814 93.223,191.646 92.046 C 191.571 91.518,191.375 91.417,190.519 91.462 C 186.996 91.646,183.587 91.536,179.556 91.107 C 177.030 90.838,174.447 90.700,173.817 90.800 C 172.865 90.950,172.700 90.904,172.845 90.527 C 173.100 89.862,166.846 86.914,161.495 85.177 L 159.880 84.653 161.495 84.241 C 162.384 84.014,164.006 83.297,165.101 82.648 L 167.090 81.467 168.953 82.840 C 175.395 87.589,196.178 93.074,194.876 89.682 C 194.590 88.936,191.548 88.018,186.840 87.259 C 169.588 84.474,157.354 73.362,160.706 63.522 C 161.242 61.951,160.887 60.955,160.273 62.304 C 159.974 62.959,159.822 63.029,159.202 62.793 C 156.353 61.710,153.034 63.437,147.125 69.079 C 144.076 71.990,143.960 72.068,144.143 71.091 C 144.247 70.530,144.059 68.233,143.722 65.971 C 143.034 61.348,142.954 58.663,143.447 56.705 C 144.211 53.670,142.320 54.786,139.883 58.808 C 138.272 61.465,136.941 64.886,136.396 67.767 L 135.880 70.496 135.387 68.060 C 134.090 61.652,129.060 55.541,124.357 54.658 C 122.818 54.370,122.813 55.256,124.352 55.681 C 128.868 56.928,132.866 63.065,133.782 70.156 C 133.893 71.016,134.167 72.413,134.390 73.261 C 134.976 75.482,134.544 75.643,132.661 73.903 C 131.793 73.101,130.334 71.813,129.418 71.041 C 128.358 70.148,127.501 69.102,127.061 68.164 C 126.312 66.568,125.924 66.283,125.929 67.333 C 125.934 68.552,127.615 70.932,130.342 73.581 C 131.824 75.022,133.037 76.388,133.037 76.618 C 133.037 77.170,132.841 77.147,131.898 76.486 C 131.465 76.183,129.943 75.391,128.515 74.726 C 125.689 73.409,123.005 71.142,121.552 68.841 C 120.729 67.538,120.296 67.232,120.296 67.954 C 120.296 69.676,124.293 73.844,127.458 75.423 C 128.652 76.019,130.176 76.847,130.845 77.264 L 132.060 78.021 131.078 78.884 L 130.095 79.747 128.825 78.884 C 128.127 78.409,125.956 77.306,124.000 76.433 C 112.114 71.122,109.922 58.517,120.370 55.552 C 121.307 55.287,122.074 54.945,122.074 54.794 C 122.074 54.357,120.575 54.493,118.953 55.077 M140.978 60.222 C 140.477 61.793,140.414 62.572,140.562 65.355 C 140.763 69.122,140.396 72.669,139.550 75.127 C 138.790 77.337,138.794 77.723,139.577 77.475 C 140.282 77.251,141.164 77.924,141.816 79.184 C 142.331 80.182,141.412 80.315,139.259 79.556 C 136.530 78.593,135.099 78.979,133.468 81.116 C 132.321 82.621,131.464 83.238,130.519 83.239 C 129.982 83.240,129.972 83.205,130.414 82.869 C 130.682 82.665,131.105 82.011,131.353 81.417 C 131.635 80.742,132.176 80.148,132.791 79.836 C 133.334 79.561,134.025 79.119,134.327 78.853 C 134.630 78.588,134.963 78.401,135.068 78.438 C 135.173 78.475,135.259 78.153,135.259 77.723 C 135.259 76.680,135.797 76.556,136.902 77.342 C 138.189 78.259,138.190 78.252,138.208 71.620 C 138.225 65.069,138.631 63.024,140.570 59.716 C 141.614 57.933,141.681 58.016,140.978 60.222 M142.758 68.152 C 143.220 70.676,142.444 73.376,140.886 74.669 C 140.514 74.978,140.520 74.834,140.929 73.740 C 141.434 72.385,141.611 67.958,141.347 63.259 C 141.255 61.624,141.347 60.529,141.644 59.730 C 142.066 58.593,142.078 58.643,142.267 62.545 C 142.373 64.730,142.594 67.254,142.758 68.152 M285.728 59.244 C 286.170 59.402,285.895 59.719,284.246 60.954 C 281.549 62.974,279.620 64.996,276.822 68.736 C 273.651 72.974,272.402 73.880,269.091 74.349 C 267.676 74.549,266.285 74.756,266.000 74.810 C 265.022 74.994,265.211 74.468,266.309 73.951 C 270.102 72.167,273.511 69.348,274.575 67.118 C 275.159 65.892,274.810 65.301,274.133 66.370 C 272.830 68.431,270.253 70.491,266.932 72.124 C 262.853 74.131,262.916 74.127,264.145 72.300 C 265.319 70.556,266.302 68.066,266.745 65.715 C 267.028 64.209,267.164 63.988,267.976 63.706 C 268.478 63.531,270.022 62.745,271.407 61.958 C 276.244 59.212,282.388 58.048,285.728 59.244 M159.567 67.037 C 159.577 70.030,159.661 70.550,160.388 72.126 C 161.188 73.858,161.135 74.344,160.148 74.369 C 159.985 74.373,159.137 74.786,158.262 75.287 C 155.968 76.603,156.696 76.970,159.394 75.857 C 160.587 75.365,161.599 74.963,161.643 74.963 C 161.686 74.963,162.218 75.653,162.824 76.497 C 163.430 77.341,164.525 78.671,165.258 79.454 L 166.589 80.878 164.414 81.920 C 161.943 83.105,160.222 83.246,157.185 82.513 C 154.887 81.958,151.319 81.960,148.148 82.519 C 144.933 83.085,144.675 83.077,144.317 82.409 C 144.052 81.915,144.422 81.649,147.714 79.971 C 150.982 78.305,151.976 77.630,151.157 77.630 C 150.546 77.630,147.347 78.886,145.609 79.809 L 143.704 80.821 143.704 80.001 C 143.704 78.968,145.632 77.672,151.481 74.771 C 154.799 73.126,156.391 72.000,155.399 72.000 C 155.034 72.000,144.982 76.845,144.217 77.390 L 143.378 77.987 142.726 77.290 L 142.074 76.593 147.704 70.908 C 153.917 64.635,155.245 63.712,158.074 63.707 L 159.556 63.704 159.567 67.037 M121.926 80.567 C 123.393 80.874,125.793 81.533,127.259 82.031 L 129.926 82.937 128.148 82.782 C 127.170 82.696,124.980 82.356,123.281 82.025 C 121.582 81.694,117.915 81.117,115.133 80.743 L 110.074 80.063 114.667 80.035 C 118.112 80.015,119.925 80.147,121.926 80.567 M137.185 81.224 C 137.185 81.735,137.465 82.605,137.807 83.159 C 138.307 83.968,138.358 84.250,138.067 84.601 C 137.669 85.081,136.889 85.193,136.889 84.770 C 136.889 84.623,136.427 84.230,135.861 83.897 C 134.420 83.046,134.171 81.898,135.231 80.986 C 136.409 79.973,137.185 80.067,137.185 81.224 M140.889 81.383 C 141.704 81.682,142.424 82.059,142.490 82.222 C 142.555 82.385,143.056 82.944,143.602 83.463 C 144.188 84.019,144.468 84.486,144.286 84.599 C 144.115 84.704,144.055 85.039,144.151 85.342 C 144.322 85.880,143.859 86.062,141.665 86.322 C 141.434 86.349,141.076 85.856,140.841 85.187 C 140.612 84.535,139.896 83.464,139.250 82.805 C 137.132 80.647,137.650 80.197,140.889 81.383 M114.976 81.779 C 119.636 82.426,126.467 83.702,126.742 83.976 C 127.173 84.407,120.562 84.095,118.222 83.574 C 115.949 83.068,110.137 81.284,110.531 81.214 C 110.620 81.198,112.620 81.453,114.976 81.779 M87.962 83.279 C 93.390 83.724,96.554 84.701,99.647 86.885 C 100.768 87.676,100.550 87.767,98.801 87.238 C 97.043 86.706,92.325 86.387,91.191 86.723 C 89.631 87.185,90.218 87.535,92.667 87.602 C 95.260 87.674,97.575 88.160,100.000 89.144 L 101.481 89.745 98.815 89.751 C 94.200 89.761,88.486 88.421,86.254 86.804 C 84.505 85.537,82.481 82.305,83.740 82.788 C 84.004 82.889,85.904 83.110,87.962 83.279 M134.611 84.370 C 135.070 84.878,135.111 85.037,134.781 85.037 C 134.543 85.037,133.833 85.299,133.204 85.620 C 131.903 86.283,131.556 86.191,131.556 85.183 C 131.556 84.142,133.367 82.493,133.738 83.195 C 133.886 83.475,134.279 84.004,134.611 84.370 M203.556 85.816 C 203.556 86.164,203.364 86.110,202.717 85.578 C 202.196 85.151,201.929 84.690,202.012 84.366 C 202.174 83.731,203.556 85.029,203.556 85.816 M157.333 85.315 C 159.798 86.036,167.209 88.890,167.044 89.055 C 166.986 89.113,165.478 88.904,163.692 88.590 C 161.906 88.277,158.017 87.744,155.049 87.406 C 148.864 86.701,145.481 85.745,145.481 84.700 C 145.481 84.131,154.971 84.624,157.333 85.315 M206.347 86.712 C 206.574 87.305,207.536 87.195,208.161 86.504 C 208.963 85.618,210.062 85.862,210.893 87.111 C 211.342 87.785,212.225 88.459,213.415 89.037 C 215.434 90.017,215.624 90.347,215.674 92.951 C 215.702 94.420,216.433 95.704,217.241 95.704 C 217.373 95.704,217.481 95.882,217.481 96.101 C 217.481 96.635,216.202 97.185,214.959 97.185 C 213.885 97.185,213.333 97.782,213.333 98.943 C 213.333 99.985,210.862 99.468,209.724 98.188 C 209.251 97.656,209.293 97.515,210.538 95.473 C 212.122 92.876,212.143 92.596,210.815 91.813 C 210.244 91.476,209.778 91.015,209.778 90.789 C 209.778 90.562,208.743 89.857,207.479 89.221 C 205.161 88.056,204.444 87.183,204.444 85.526 C 204.444 84.943,206.053 85.946,206.347 86.712 M139.978 87.372 C 140.598 88.376,137.315 88.886,136.303 87.943 C 135.818 87.490,135.283 87.310,134.544 87.349 C 133.674 87.395,133.577 87.349,134.009 87.091 C 134.299 86.917,135.330 86.735,136.302 86.685 C 137.273 86.636,138.369 86.394,138.738 86.147 C 139.364 85.729,139.420 85.745,139.598 86.382 C 139.703 86.758,139.874 87.203,139.978 87.372 M145.937 88.312 C 147.036 89.899,148.291 90.851,151.818 92.773 C 153.765 93.835,155.087 94.785,155.760 95.606 L 156.773 96.841 155.699 98.249 C 152.143 102.908,150.776 109.062,152.516 112.576 C 153.343 114.247,153.414 114.204,149.835 114.214 C 142.237 114.235,138.772 109.202,139.981 99.903 C 140.564 95.428,140.570 92.577,140.000 90.963 C 139.756 90.270,139.556 89.657,139.556 89.600 C 139.556 89.543,139.960 89.287,140.455 89.031 L 141.355 88.566 141.914 89.839 C 142.222 90.539,142.757 92.644,143.102 94.519 C 144.120 100.039,145.075 102.386,147.411 105.111 C 149.245 107.251,149.695 106.639,147.953 104.373 C 146.339 102.272,145.264 99.655,144.742 96.551 C 143.892 91.500,143.654 90.530,142.951 89.250 L 142.254 87.982 143.062 88.558 C 143.957 89.195,146.013 91.360,147.456 93.185 C 147.972 93.837,148.499 94.265,148.628 94.136 C 149.008 93.758,147.542 91.348,145.714 89.344 C 144.782 88.322,144.104 87.402,144.207 87.299 C 144.633 86.873,145.150 87.176,145.937 88.312 M155.852 88.496 L 161.333 89.333 158.370 89.420 C 155.147 89.514,152.102 88.989,150.074 87.988 C 149.243 87.578,149.110 87.442,149.630 87.531 C 150.037 87.602,152.837 88.036,155.852 88.496 M203.704 88.484 L 204.889 89.537 203.481 88.858 C 202.707 88.484,202.074 88.005,202.074 87.793 C 202.074 87.197,202.419 87.343,203.704 88.484 M161.185 90.256 C 170.233 90.322,173.682 90.634,170.519 91.099 C 166.108 91.748,161.884 93.227,159.034 95.121 L 157.327 96.255 156.911 95.461 C 156.227 94.155,154.673 92.861,151.852 91.250 C 148.298 89.221,147.861 88.758,150.249 89.556 C 152.002 90.141,152.844 90.195,161.185 90.256 M245.704 90.958 C 243.814 91.833,243.323 92.447,244.519 92.442 C 245.298 92.438,248.296 90.790,248.296 90.364 C 248.296 89.902,247.684 90.042,245.704 90.958 M134.395 95.023 C 133.903 97.935,132.522 103.585,132.471 102.887 C 132.356 101.281,134.366 91.600,134.738 91.972 C 134.819 92.053,134.665 93.426,134.395 95.023 M136.425 94.815 C 136.259 96.390,135.118 100.846,134.929 100.658 C 134.878 100.607,135.096 99.304,135.414 97.764 C 135.732 96.223,135.996 94.363,136.001 93.630 C 136.007 92.644,136.086 92.412,136.303 92.741 C 136.466 92.986,136.520 93.914,136.425 94.815 M83.704 96.628 C 85.701 97.249,90.132 99.582,90.306 100.104 C 90.609 101.013,85.680 100.201,80.812 98.540 C 78.733 97.830,76.958 97.370,76.866 97.518 C 76.625 97.909,81.260 100.051,84.483 101.038 C 87.687 102.020,86.948 102.210,82.644 101.511 C 75.006 100.271,66.568 96.652,71.314 96.652 C 72.262 96.652,73.837 96.507,74.815 96.329 C 75.793 96.152,76.926 95.953,77.333 95.888 C 78.628 95.680,81.865 96.056,83.704 96.628 M103.445 97.798 C 102.233 100.239,101.861 102.954,102.584 104.072 C 102.915 104.584,102.967 105.209,102.807 106.733 C 102.573 108.945,102.467 109.148,99.921 112.263 C 98.092 114.499,97.749 115.035,97.154 116.593 L 96.814 117.481 96.235 116.192 C 94.117 111.480,96.814 98.234,99.921 98.085 C 100.041 98.079,99.753 98.841,99.281 99.778 C 97.335 103.643,96.699 109.926,98.254 109.926 C 98.560 109.926,98.667 109.476,98.667 108.189 C 98.667 103.455,101.551 97.249,104.464 95.714 C 104.475 95.708,104.017 96.646,103.445 97.798 M221.359 98.651 C 220.727 99.041,221.253 100.041,223.170 102.090 C 227.795 107.034,235.422 110.281,241.320 109.816 C 245.334 109.500,245.902 109.125,242.370 109.124 C 235.847 109.122,231.606 107.281,225.966 102.005 C 222.715 98.963,221.860 98.341,221.359 98.651 M293.398 100.584 C 292.071 100.998,291.259 101.521,291.259 101.962 C 291.259 102.298,292.241 102.300,292.607 101.965 C 292.762 101.823,293.520 101.473,294.290 101.186 C 296.531 100.353,295.774 99.842,293.398 100.584 M89.914 108.296 C 89.928 111.251,89.245 112.842,86.112 117.146 C 83.843 120.264,82.667 122.229,82.667 122.902 C 82.667 123.118,82.517 123.202,82.334 123.089 C 81.056 122.299,82.687 114.208,85.166 109.037 L 86.232 106.815 86.052 108.279 C 85.953 109.085,85.617 110.744,85.304 111.966 C 84.936 113.406,84.837 114.289,85.024 114.476 C 85.438 114.890,86.327 112.657,87.261 108.855 C 87.692 107.098,88.257 105.254,88.516 104.756 L 88.987 103.852 89.445 104.889 C 89.728 105.531,89.907 106.829,89.914 108.296 M276.899 105.664 C 277.301 105.927,277.630 106.337,277.630 106.575 C 277.630 107.368,279.297 108.741,280.259 108.741 C 281.219 108.741,281.240 108.855,280.717 111.143 C 280.507 112.060,281.283 112.531,282.015 111.931 C 282.362 111.647,282.344 111.755,281.944 112.370 C 281.652 112.819,281.243 113.185,281.035 113.185 C 280.826 113.185,280.578 113.388,280.483 113.636 C 280.255 114.230,281.391 115.357,281.986 115.129 C 282.240 115.032,282.601 115.165,282.792 115.426 C 283.100 115.848,283.473 115.861,286.217 115.542 C 290.043 115.097,292.300 115.295,295.059 116.318 C 297.757 117.318,297.674 117.441,294.815 116.683 C 292.459 116.058,289.197 115.910,284.687 116.223 L 282.114 116.401 280.094 114.648 C 278.983 113.683,277.407 112.357,276.593 111.700 C 273.487 109.196,273.479 109.194,272.249 110.572 C 271.281 111.655,271.295 111.540,271.852 114.074 C 272.403 116.579,272.427 116.444,271.437 116.444 C 270.768 116.444,270.441 116.214,269.965 115.407 C 269.585 114.763,269.125 114.370,268.751 114.370 C 267.990 114.370,267.905 112.357,268.597 110.703 C 268.998 109.741,269.160 109.630,270.152 109.629 C 271.769 109.627,273.117 108.677,273.840 107.029 C 274.710 105.047,275.453 104.716,276.899 105.664 M67.548 108.457 C 68.603 108.808,70.203 109.476,71.104 109.941 L 72.741 110.787 67.262 110.655 C 61.643 110.521,60.741 110.597,60.741 111.205 C 60.741 111.443,61.478 111.562,63.037 111.574 C 64.300 111.585,66.133 111.705,67.111 111.842 L 68.889 112.091 66.667 112.814 C 62.079 114.306,58.497 114.056,53.852 111.921 C 50.673 110.459,50.667 110.561,54.000 109.393 C 59.676 107.404,63.572 107.134,67.548 108.457 M266.846 108.265 L 267.766 108.593 266.825 109.211 L 265.883 109.829 265.213 108.664 L 264.543 107.500 265.234 107.718 C 265.615 107.838,266.340 108.084,266.846 108.265 M328.889 109.625 C 330.274 109.978,333.314 111.013,335.645 111.925 L 339.883 113.583 338.297 114.229 C 337.425 114.583,335.445 115.619,333.897 116.530 C 327.094 120.534,318.075 121.530,312.361 118.908 C 311.103 118.332,308.941 117.406,307.556 116.851 C 305.259 115.932,305.154 115.857,306.370 115.997 C 315.973 117.108,322.661 116.887,326.437 115.335 C 327.773 114.785,328.235 113.882,327.037 114.160 C 322.647 115.180,321.964 115.259,317.630 115.237 C 313.742 115.217,308.790 114.838,310.667 114.703 C 310.993 114.680,311.939 114.345,312.769 113.958 C 314.114 113.331,314.822 112.665,316.663 110.289 C 317.890 108.707,323.985 108.376,328.889 109.625 M74.105 116.296 C 74.944 119.296,74.085 122.116,70.799 127.156 C 69.667 128.892,68.725 130.492,68.706 130.712 C 68.575 132.194,67.904 127.558,67.885 125.037 C 67.858 121.525,68.353 118.976,69.532 116.570 C 70.537 114.517,70.609 114.636,70.070 117.454 C 69.393 120.993,69.465 124.148,70.222 124.148 C 70.548 124.148,70.817 123.981,70.820 123.778 C 70.846 121.874,71.544 117.396,72.067 115.771 L 72.718 113.751 73.246 114.431 C 73.537 114.805,73.923 115.644,74.105 116.296 M262.641 115.088 C 262.137 115.307,260.404 116.391,258.789 117.496 C 254.376 120.515,249.805 122.332,245.362 122.835 C 244.129 122.975,243.556 123.168,243.556 123.446 C 243.556 124.321,248.499 123.733,252.590 122.371 C 254.348 121.786,255.662 121.059,260.488 117.998 C 262.123 116.962,263.516 116.323,264.657 116.087 C 266.322 115.743,266.855 115.212,265.902 114.847 C 265.132 114.551,263.616 114.663,262.641 115.088 M153.384 116.074 C 154.562 121.880,152.510 127.199,147.345 131.728 C 146.075 132.840,144.701 134.052,144.291 134.420 L 143.545 135.090 143.653 132.950 C 143.738 131.279,143.581 130.161,142.939 127.849 C 140.832 120.259,143.467 114.218,148.227 115.729 C 148.783 115.905,148.808 116.085,148.623 118.543 C 148.340 122.283,147.672 124.731,145.574 129.704 C 145.486 129.913,145.630 130.074,145.907 130.074 C 147.199 130.074,149.862 122.739,150.139 118.419 C 150.238 116.885,150.443 115.767,150.635 115.719 C 150.815 115.673,151.363 115.499,151.852 115.331 C 152.341 115.163,152.835 115.012,152.950 114.994 C 153.064 114.977,153.260 115.463,153.384 116.074 M276.292 119.066 C 276.031 119.327,275.557 118.716,275.566 118.131 C 275.576 117.505,275.591 117.508,275.986 118.222 C 276.212 118.629,276.349 119.009,276.292 119.066 M59.525 123.926 C 59.334 124.293,58.130 125.620,56.848 126.875 C 54.322 129.350,54.234 129.481,55.094 129.481 C 55.835 129.481,58.958 126.593,60.131 124.822 C 61.230 123.162,61.284 123.366,60.296 125.454 C 59.419 127.308,57.974 128.872,56.148 129.942 C 54.250 131.054,50.004 132.802,50.256 132.367 C 51.734 129.821,55.081 126.226,57.605 124.475 C 59.596 123.094,60.022 122.972,59.525 123.926 M129.143 128.452 C 128.727 131.902,127.212 134.176,123.117 137.499 C 121.429 138.868,120.977 139.556,121.762 139.556 C 122.240 139.556,125.207 137.389,126.781 135.890 C 128.254 134.488,128.334 134.448,127.818 135.371 C 127.124 136.614,124.350 138.879,120.356 141.463 C 117.254 143.470,116.206 144.032,116.522 143.521 C 116.619 143.365,117.185 141.576,117.780 139.545 C 119.718 132.929,121.810 130.360,127.704 127.356 C 128.600 126.900,129.343 126.524,129.354 126.522 C 129.366 126.520,129.271 127.389,129.143 128.452 M341.046 133.481 C 347.813 134.616,354.100 139.350,357.318 145.732 C 358.161 147.404,357.971 147.522,356.296 146.370 C 353.996 144.788,349.672 142.938,346.004 141.967 C 341.780 140.849,339.402 139.792,336.975 137.954 C 335.022 136.475,332.761 133.939,333.725 134.309 C 334.019 134.422,335.826 134.907,337.741 135.386 C 341.287 136.274,343.816 137.192,347.942 139.086 C 350.378 140.204,350.815 140.323,350.815 139.869 C 350.815 138.957,342.358 134.975,337.798 133.740 C 336.239 133.317,334.911 132.923,334.847 132.863 C 334.652 132.682,338.673 133.083,341.046 133.481 M322.799 137.722 C 324.437 140.253,325.744 143.415,327.694 149.556 C 329.040 153.796,330.074 155.738,330.074 154.024 C 330.074 152.669,326.132 139.642,325.126 137.673 L 324.694 136.828 325.637 137.377 C 329.816 139.810,332.305 144.123,332.277 148.881 C 332.255 152.786,332.036 158.512,331.910 158.516 C 331.529 158.528,328.144 155.915,326.872 154.628 C 324.088 151.812,323.007 148.766,322.520 142.370 C 322.361 140.282,321.815 137.511,321.296 136.158 C 320.901 135.127,321.574 135.828,322.799 137.722 " stroke="none" fill="#000000" fill-rule="evenodd"></path></g></svg>