<svg id="svg" version="1.1" xmlns="http://www.w3.org/2000/svg" xmlns:xlink="http://www.w3.org/1999/xlink" width="400" height="192.59259259259258" viewBox="0, 0, 400,192.59259259259258"><g id="svgg"><path id="path0" d="M108.860 37.340 C 101.692 38.093,96.182 42.231,95.650 47.259 L 95.556 48.148 97.437 48.148 C 99.317 48.148,99.319 48.149,100.563 49.581 L 101.808 51.014 100.954 52.692 C 99.834 54.893,99.932 56.687,101.288 58.806 L 102.231 60.278 98.745 63.792 C 94.551 68.019,90.187 71.611,87.861 72.749 C 85.941 73.689,86.718 73.754,79.556 72.054 C 77.437 71.551,73.104 70.665,69.926 70.085 C 62.223 68.679,53.945 66.590,44.593 63.691 C 28.330 58.651,25.059 57.816,24.161 58.472 C 22.866 59.419,24.673 61.326,26.444 60.881 C 26.977 60.747,28.506 61.173,31.601 62.316 C 39.264 65.146,48.382 67.829,63.111 71.588 C 67.919 72.815,72.352 73.948,72.964 74.106 C 73.874 74.342,74.206 74.647,74.791 75.789 C 75.184 76.557,76.189 78.314,77.023 79.695 C 79.450 83.710,79.685 85.053,78.926 90.576 C 78.680 92.369,79.777 94.549,82.235 97.155 C 84.813 99.888,85.377 99.913,86.659 97.346 C 88.778 93.105,86.947 87.049,83.021 85.311 C 82.206 84.951,77.896 76.079,78.327 75.648 C 78.390 75.586,81.958 76.397,86.257 77.451 C 90.557 78.505,94.320 79.410,94.621 79.462 C 95.128 79.549,95.165 79.907,95.129 84.444 C 95.107 87.133,95.234 90.667,95.410 92.296 C 95.871 96.569,96.921 104.107,97.094 104.388 C 97.485 105.023,97.144 107.648,96.429 109.503 C 94.953 113.330,95.380 115.541,98.430 119.867 C 102.680 125.895,102.508 125.844,104.949 121.778 C 108.433 115.976,108.036 112.714,103.091 106.519 C 101.920 105.052,100.853 103.713,100.719 103.544 C 99.793 102.372,97.643 88.052,97.860 84.501 C 98.045 81.480,97.867 81.637,100.653 82.041 C 101.924 82.225,106.684 82.773,111.231 83.259 C 115.779 83.745,119.530 84.177,119.566 84.219 C 119.602 84.262,120.475 86.398,121.507 88.966 L 123.382 93.636 122.654 94.131 C 117.992 97.297,115.839 105.168,118.564 109.083 C 119.616 110.595,119.054 110.890,116.704 110.061 C 114.345 109.228,113.326 110.249,113.399 113.371 C 113.580 121.122,130.089 124.450,133.038 117.330 C 133.250 116.818,133.627 116.444,133.930 116.444 C 134.485 116.444,134.815 115.882,134.815 114.935 C 134.815 114.392,134.870 114.386,135.888 114.811 C 137.678 115.559,139.087 115.391,140.823 114.222 C 141.782 113.576,142.718 113.185,143.306 113.185 C 146.654 113.185,151.203 105.618,151.241 99.986 C 151.269 95.799,148.823 91.164,147.577 93.043 C 146.383 94.844,146.208 94.947,144.074 95.106 L 142.012 95.259 141.528 93.896 C 140.353 90.588,138.833 89.760,133.405 89.471 C 129.777 89.278,129.387 89.200,128.302 88.448 C 126.935 87.501,126.283 87.624,126.032 88.877 C 125.934 89.367,125.755 89.707,125.635 89.633 C 125.301 89.427,123.787 85.003,123.983 84.807 C 124.314 84.476,130.278 85.351,134.676 86.375 C 147.151 89.279,151.626 91.296,156.976 96.425 L 159.166 98.525 158.229 100.486 C 157.456 102.105,157.091 102.538,156.134 102.969 C 154.407 103.748,154.395 104.299,156.048 106.788 C 156.836 107.974,157.847 109.570,158.294 110.333 C 158.741 111.097,159.575 111.997,160.146 112.334 C 161.379 113.062,161.376 113.037,160.489 115.029 C 159.535 117.170,157.687 119.416,155.400 121.213 C 153.050 123.060,153.034 123.335,155.138 125.607 C 157.500 128.158,159.855 129.277,162.904 129.294 C 164.727 129.305,165.261 129.412,165.564 129.827 C 167.922 133.061,175.842 127.288,176.465 121.881 C 176.868 118.390,177.120 118.341,179.865 121.220 L 181.875 123.328 182.383 122.347 C 182.882 121.380,182.777 119.992,182.063 118.148 C 181.904 117.737,182.020 117.630,182.617 117.630 C 183.654 117.630,183.803 117.243,183.107 116.358 C 182.286 115.315,182.331 115.259,184.000 115.259 C 185.428 115.259,186.025 114.741,185.190 114.225 C 184.830 114.003,186.521 112.328,187.793 111.647 C 189.699 110.626,190.672 107.723,189.804 105.646 C 189.330 104.512,189.197 102.611,189.511 101.443 C 189.893 100.017,197.666 102.987,199.452 105.241 L 200.408 106.448 199.908 107.856 C 199.200 109.849,199.267 111.359,200.118 112.613 C 200.700 113.468,200.801 113.910,200.675 115.033 C 200.329 118.100,201.785 120.478,204.805 121.777 C 207.617 122.987,213.095 122.270,214.910 120.455 C 215.331 120.035,216.023 119.911,218.316 119.849 C 222.103 119.745,224.593 118.729,224.593 117.287 C 224.593 115.280,229.395 121.033,230.191 123.995 C 230.502 125.151,230.482 125.202,229.215 126.513 C 227.560 128.225,227.259 128.838,227.259 130.505 C 227.259 131.485,227.037 132.201,226.461 133.070 C 224.733 135.682,225.286 139.369,227.746 141.637 C 230.145 143.848,235.066 145.524,236.615 144.657 C 237.040 144.419,237.560 144.552,238.950 145.253 C 244.752 148.182,246.808 147.964,247.280 144.370 C 247.481 142.839,247.500 142.815,248.490 142.815 C 249.293 142.815,249.553 142.664,249.781 142.066 C 250.234 140.875,250.490 134.231,250.132 132.951 L 249.819 131.827 251.502 132.000 C 255.155 132.376,255.802 131.442,254.121 128.217 C 251.041 122.309,247.098 119.374,242.860 119.835 C 238.256 120.335,237.272 120.316,235.603 119.692 C 234.707 119.356,233.684 119.120,233.329 119.166 C 231.776 119.370,225.185 113.471,225.185 111.878 C 225.185 110.767,223.214 106.552,221.725 104.480 C 220.131 102.261,220.497 102.174,227.420 103.130 C 238.174 104.615,245.269 106.840,249.675 110.110 L 251.203 111.243 251.042 112.799 C 250.633 116.764,253.122 119.954,257.046 120.492 C 258.308 120.665,258.426 120.761,258.991 122.073 C 260.728 126.111,267.518 128.492,271.367 126.414 C 272.320 125.900,272.477 125.898,274.894 126.378 C 280.370 127.464,282.257 126.706,281.945 123.545 L 281.754 121.609 282.803 121.230 C 284.045 120.781,284.068 120.580,283.279 117.090 C 282.769 114.835,282.763 114.641,283.213 114.824 C 283.483 114.934,284.433 115.280,285.324 115.592 C 289.484 117.052,293.630 119.703,293.630 120.904 C 293.630 121.213,294.012 122.436,294.478 123.622 C 295.736 126.815,295.841 127.752,295.125 129.372 C 294.791 130.125,294.519 131.166,294.519 131.685 C 294.519 132.203,294.323 132.886,294.083 133.203 C 293.844 133.519,293.644 133.986,293.639 134.241 C 293.634 134.496,293.225 135.092,292.730 135.566 C 290.255 137.937,290.563 142.849,293.498 147.852 C 296.046 152.193,297.486 152.495,298.789 148.963 C 299.382 147.356,299.367 147.364,300.327 148.120 C 301.134 148.754,307.302 151.407,307.971 151.407 C 308.209 151.407,308.686 151.011,309.031 150.527 C 309.658 149.647,309.660 149.646,310.804 150.104 C 313.739 151.279,314.798 149.887,314.808 144.846 C 314.813 142.402,314.921 141.568,315.285 141.142 C 316.838 139.324,317.137 134.235,315.839 131.696 C 314.585 129.241,312.717 128.188,309.973 128.391 C 308.160 128.524,307.642 128.456,306.862 127.980 C 305.669 127.253,305.005 127.261,302.945 128.032 L 301.276 128.657 300.130 127.538 C 298.546 125.991,295.854 120.640,296.390 120.104 C 296.474 120.020,297.854 120.154,299.457 120.403 C 301.059 120.651,304.570 121.071,307.259 121.336 C 313.763 121.977,313.212 121.746,317.752 125.748 C 322.138 129.614,322.513 130.161,322.966 133.354 C 323.518 137.249,323.803 137.472,329.886 138.777 L 333.104 139.467 333.549 138.402 C 334.182 136.887,333.933 133.288,333.080 131.630 C 332.217 129.951,330.790 129.071,327.407 128.131 C 325.859 127.700,324.085 127.199,323.466 127.016 C 322.368 126.693,318.538 123.141,318.898 122.781 C 319.102 122.577,324.423 123.878,327.928 124.989 C 330.767 125.889,332.807 127.572,335.354 131.116 C 336.405 132.579,337.026 139.377,336.243 140.841 C 334.834 143.473,337.021 147.946,341.333 151.256 C 345.540 154.484,346.963 154.364,346.963 150.780 L 346.963 149.017 348.519 149.249 C 352.369 149.824,357.037 149.394,357.037 148.463 C 357.037 147.270,357.363 146.963,358.632 146.963 C 361.429 146.963,362.018 144.374,360.149 140.296 C 359.459 138.791,359.328 138.088,359.290 135.704 C 359.183 128.933,353.731 124.401,349.304 127.402 C 348.165 128.174,347.825 128.263,346.611 128.107 C 345.094 127.912,343.926 128.428,342.536 129.907 C 341.153 131.380,338.347 130.084,334.894 126.378 L 332.593 123.908 327.852 122.523 C 321.947 120.799,322.259 120.901,322.423 120.737 C 322.499 120.662,324.922 120.200,327.808 119.711 C 330.694 119.222,335.151 118.338,337.713 117.745 C 340.830 117.023,343.401 116.618,345.485 116.520 L 348.600 116.374 350.621 117.446 C 351.732 118.036,352.851 118.519,353.106 118.519 C 353.362 118.519,354.584 119.577,355.822 120.870 C 359.580 124.794,365.733 125.169,371.037 121.797 C 372.913 120.604,372.870 120.044,370.782 118.467 L 369.119 117.212 369.840 116.606 C 372.766 114.147,375.470 109.112,374.222 108.444 C 373.458 108.035,373.475 107.809,374.370 106.490 C 376.091 103.955,374.150 102.238,368.565 101.355 C 367.391 101.170,366.869 100.917,366.440 100.329 C 362.663 95.144,350.915 98.248,352.726 103.952 C 352.843 104.322,352.742 104.585,352.438 104.702 C 351.534 105.049,350.727 107.494,350.897 109.368 L 351.052 111.078 349.733 112.106 C 348.115 113.366,346.795 113.678,341.481 114.058 C 338.847 114.247,335.234 114.789,331.578 115.543 C 315.987 118.763,305.028 118.232,292.990 113.675 C 290.653 112.790,287.807 111.782,286.667 111.435 C 285.526 111.087,284.263 110.619,283.861 110.393 L 283.129 109.984 284.367 109.650 C 286.492 109.078,286.415 108.058,284.060 105.558 C 279.430 100.642,274.552 99.014,270.370 100.988 C 268.131 102.046,267.316 102.257,264.741 102.449 C 260.835 102.740,260.077 102.662,258.222 101.779 L 256.444 100.933 259.259 100.697 C 267.504 100.006,269.791 99.760,273.037 99.217 C 277.123 98.534,281.318 97.520,285.189 96.280 C 287.415 95.567,288.064 95.467,288.904 95.708 C 289.464 95.869,290.483 96.000,291.169 96.000 C 293.850 96.000,295.380 96.566,297.297 98.268 C 300.195 100.839,300.826 101.549,301.939 103.493 C 303.818 106.776,306.170 107.722,311.835 107.476 C 317.890 107.212,319.078 105.883,315.861 102.972 C 315.014 102.205,315.108 101.812,316.268 101.258 C 317.612 100.618,322.360 96.273,322.366 95.680 C 322.370 95.229,322.979 94.967,328.700 92.952 C 330.229 92.413,330.583 92.384,331.663 92.712 C 332.337 92.917,333.556 93.194,334.370 93.327 C 336.307 93.643,337.908 94.264,338.738 95.020 C 341.852 97.857,349.588 96.093,353.481 91.659 C 354.899 90.044,354.537 89.357,351.798 88.465 L 350.262 87.966 350.844 86.980 C 351.712 85.509,353.778 80.063,353.778 79.246 C 353.778 78.750,353.500 78.390,352.865 78.062 C 352.190 77.713,352.007 77.460,352.165 77.091 C 353.713 73.466,352.215 72.336,346.273 72.648 C 344.294 72.752,343.744 72.684,343.324 72.285 C 342.186 71.205,337.821 70.715,335.431 71.401 C 331.998 72.385,329.787 76.168,330.792 79.336 C 330.892 79.652,330.773 80.297,330.526 80.770 C 329.810 82.143,329.962 83.615,331.095 86.277 C 331.560 87.369,327.233 90.777,324.222 91.690 C 323.628 91.870,323.556 91.789,323.556 90.944 C 323.556 89.466,318.823 85.932,316.834 85.925 C 316.701 85.925,316.259 85.291,315.852 84.518 C 315.201 83.281,314.807 82.956,312.593 81.824 C 310.182 80.593,310.065 80.487,309.861 79.342 C 309.361 76.539,308.232 76.270,302.118 77.499 C 298.917 78.142,298.454 78.537,297.179 81.716 C 296.571 83.231,296.024 84.508,295.963 84.555 C 284.860 93.120,274.903 96.454,260.593 96.401 C 252.297 96.370,228.211 94.357,228.822 93.746 C 228.890 93.678,231.600 92.955,234.843 92.139 C 241.837 90.380,244.358 89.573,248.809 87.671 C 253.827 85.527,255.703 85.015,257.751 85.229 L 259.478 85.410 260.136 86.997 C 260.897 88.833,262.057 89.927,263.715 90.373 C 264.500 90.585,265.023 90.953,265.305 91.492 C 266.892 94.531,270.445 95.396,274.013 93.614 C 276.681 92.280,279.704 88.436,279.704 86.376 C 279.704 85.803,279.834 85.333,279.994 85.333 C 280.451 85.333,283.564 82.064,284.493 80.609 C 285.900 78.403,285.564 77.323,283.161 76.331 C 282.119 75.901,282.041 75.789,282.217 74.985 C 282.510 73.651,281.916 72.915,279.751 71.929 C 277.359 70.841,273.874 69.630,273.133 69.630 C 272.463 69.630,272.463 69.636,273.327 67.119 C 274.390 64.024,273.537 63.553,268.669 64.547 C 262.494 65.809,259.280 68.424,258.340 72.953 C 257.785 75.628,257.102 77.464,256.505 77.893 C 256.189 78.119,255.624 78.999,255.248 79.848 C 254.530 81.472,252.782 82.914,250.251 83.970 C 248.627 84.647,248.650 84.484,250.502 82.184 C 251.403 81.064,252.142 79.985,252.144 79.786 C 252.146 79.586,253.002 78.042,254.045 76.354 C 256.275 72.747,257.629 70.099,258.950 66.762 C 259.880 64.415,259.945 64.333,261.035 64.149 C 267.056 63.131,270.794 58.010,270.810 50.760 C 270.819 46.327,270.459 46.142,265.115 47.829 C 258.099 50.043,255.446 53.638,255.845 60.393 C 256.038 63.662,256.006 63.971,255.264 66.016 C 254.833 67.206,254.536 68.339,254.605 68.534 C 255.240 70.327,246.209 82.539,242.683 84.657 C 239.560 86.532,226.544 89.853,212.593 92.333 C 209.686 92.849,193.598 93.268,190.677 92.903 L 189.087 92.704 188.733 91.225 C 188.301 89.424,187.544 89.954,194.370 87.277 C 197.548 86.031,202.015 84.086,204.296 82.955 C 208.334 80.954,208.543 80.887,212.148 80.436 C 214.185 80.181,216.908 79.619,218.198 79.187 L 220.545 78.402 222.008 79.219 C 223.818 80.229,225.893 80.505,227.771 79.986 C 229.693 79.454,233.029 76.225,232.815 75.105 C 232.738 74.701,232.785 74.370,232.920 74.370 C 235.034 74.370,238.219 67.229,237.427 64.262 C 237.126 63.136,237.187 62.874,238.294 60.512 C 240.609 55.572,240.230 53.633,236.862 53.192 C 235.431 53.005,235.340 52.939,235.084 51.922 C 234.861 51.032,234.638 50.802,233.778 50.576 C 232.725 50.299,225.841 50.484,224.724 50.819 C 224.148 50.992,224.115 50.887,224.131 48.919 C 224.161 45.273,222.891 45.073,218.644 48.056 C 213.411 51.731,211.230 55.726,212.445 59.409 C 213.015 61.136,213.064 64.158,212.543 65.406 C 212.294 66.003,212.158 66.908,212.241 67.420 C 212.467 68.811,211.611 70.372,209.152 73.056 C 207.948 74.369,206.533 76.069,206.006 76.833 C 203.769 80.081,196.226 83.598,185.292 86.493 C 176.514 88.817,174.539 89.005,169.778 87.973 C 168.230 87.637,165.696 87.106,164.148 86.793 C 160.585 86.073,157.926 85.308,157.926 85.003 C 157.926 84.874,158.959 83.979,160.222 83.016 C 162.737 81.099,166.051 77.748,168.625 74.519 C 171.049 71.477,170.877 71.562,173.195 72.278 C 177.802 73.701,183.814 72.728,185.033 70.361 C 185.945 68.591,186.226 68.786,186.543 71.405 C 186.886 74.238,187.630 74.649,190.551 73.618 C 197.280 71.244,195.480 54.824,188.491 54.816 C 187.736 54.815,187.462 54.668,187.339 54.197 C 187.202 53.674,187.025 53.608,186.181 53.766 L 185.185 53.953 185.185 52.597 C 185.185 50.717,184.573 49.436,183.117 48.266 C 182.434 47.717,181.699 46.845,181.483 46.329 C 180.316 43.535,171.425 41.714,167.111 43.384 C 166.378 43.668,164.550 44.007,163.049 44.137 C 158.369 44.543,156.805 45.962,154.629 51.781 C 152.497 57.480,151.593 58.688,141.995 68.647 C 129.671 81.434,130.688 80.804,123.165 80.312 C 108.618 79.360,101.930 78.313,94.296 75.793 C 90.982 74.699,90.953 75.030,94.611 72.098 C 96.271 70.767,99.136 68.334,100.978 66.691 C 105.071 63.039,105.129 63.030,105.625 66.021 C 105.888 67.610,106.435 67.850,107.888 67.014 C 109.232 66.240,109.565 66.220,110.279 66.866 C 110.794 67.332,110.882 67.321,111.746 66.682 L 112.666 66.002 114.435 66.538 C 119.345 68.025,126.695 64.139,127.821 59.460 C 128.105 58.280,128.607 58.584,129.608 60.542 C 130.891 63.049,132.347 63.123,134.607 60.796 C 139.735 55.517,132.035 41.880,124.841 43.500 C 123.888 43.714,123.513 43.682,123.190 43.360 C 122.831 43.001,122.665 43.027,122.000 43.550 C 121.175 44.199,121.077 44.147,120.782 42.912 C 120.370 41.186,118.535 39.677,116.370 39.285 C 115.759 39.175,115.259 38.960,115.259 38.807 C 115.259 37.803,111.865 37.025,108.860 37.340 M112.537 38.503 C 113.075 38.657,113.959 39.173,114.502 39.649 C 115.126 40.197,115.975 40.588,116.815 40.714 C 118.384 40.949,120.676 43.259,119.340 43.259 C 119.151 43.259,118.615 43.624,118.150 44.069 C 117.167 45.011,116.613 44.615,116.913 43.185 C 117.069 42.441,117.008 42.370,116.208 42.370 C 114.998 42.370,114.519 43.079,114.519 44.866 L 114.519 46.383 112.700 45.006 C 110.833 43.593,108.489 42.504,107.807 42.731 C 107.595 42.802,108.085 43.234,108.896 43.692 C 111.739 45.299,113.469 46.520,113.957 47.266 C 114.645 48.315,114.350 48.430,112.903 47.676 C 110.859 46.611,105.730 47.378,103.749 49.044 C 102.632 49.984,102.741 50.009,101.040 48.418 C 99.959 47.407,99.278 47.018,98.386 46.898 C 97.008 46.713,96.965 46.567,97.790 44.863 C 99.831 40.648,107.893 37.171,112.537 38.503 M116.720 46.815 C 116.717 47.222,116.532 48.222,116.308 49.037 L 115.902 50.519 115.937 48.296 C 115.957 47.074,115.878 45.541,115.761 44.889 L 115.550 43.704 116.137 44.889 C 116.461 45.541,116.723 46.407,116.720 46.815 M177.197 44.705 C 179.176 45.332,180.498 46.378,180.870 47.612 C 180.978 47.969,181.726 48.736,182.533 49.315 C 184.057 50.410,184.878 53.059,183.534 52.543 C 183.277 52.445,182.679 52.652,182.201 53.006 L 181.333 53.647 181.333 53.026 C 181.333 52.685,181.476 52.139,181.650 51.813 C 181.998 51.164,181.577 50.370,180.885 50.370 C 180.199 50.370,179.242 51.393,178.846 52.551 L 178.454 53.694 177.806 52.354 C 177.100 50.896,175.089 48.464,174.192 47.984 C 173.294 47.503,173.530 48.034,174.991 49.780 C 177.461 52.731,178.821 56.450,176.629 54.258 C 174.769 52.399,171.200 51.447,168.091 51.981 L 166.848 52.195 166.110 50.737 C 165.704 49.936,164.868 48.838,164.254 48.299 L 163.136 47.317 164.408 46.188 C 167.146 43.759,172.316 43.159,177.197 44.705 M119.704 45.426 C 119.704 45.783,119.237 46.732,118.667 47.535 C 117.499 49.177,117.429 49.084,118.104 46.795 C 118.787 44.479,119.704 43.695,119.704 45.426 M122.655 44.815 C 122.649 45.019,121.907 45.985,121.007 46.963 C 119.267 48.853,119.347 48.193,121.161 45.704 C 122.067 44.459,122.678 44.096,122.655 44.815 M128.851 45.314 C 129.452 45.621,130.552 46.650,131.294 47.602 C 136.257 53.963,136.487 58.606,131.964 61.135 C 131.773 61.242,131.166 60.621,130.541 59.678 C 129.941 58.775,128.998 57.769,128.445 57.443 C 127.808 57.066,127.315 56.469,127.096 55.807 C 126.595 54.288,125.103 52.739,123.408 51.977 C 120.882 50.842,120.609 50.538,121.398 49.739 L 122.054 49.073 125.546 49.595 C 128.591 50.050,129.765 50.349,132.593 51.386 C 133.004 51.536,132.913 51.368,132.296 50.836 C 130.812 49.556,126.265 48.296,123.129 48.296 C 122.530 48.296,123.745 47.413,124.890 47.017 C 126.242 46.550,126.523 45.866,125.730 44.971 C 125.028 44.179,127.065 44.403,128.851 45.314 M124.260 46.080 C 123.791 46.283,122.948 46.931,122.386 47.521 C 121.825 48.110,121.235 48.593,121.075 48.593 C 120.916 48.593,121.109 48.241,121.504 47.812 C 122.599 46.621,124.482 45.322,124.815 45.528 C 124.978 45.628,124.728 45.877,124.260 46.080 M163.259 45.436 C 163.259 45.493,162.793 46.019,162.222 46.607 C 161.652 47.194,161.185 47.914,161.185 48.208 C 161.184 48.519,160.614 49.101,159.813 49.607 C 158.089 50.696,156.741 51.823,156.741 52.174 C 156.741 52.675,157.179 52.450,159.679 50.667 C 162.360 48.754,162.758 48.630,163.817 49.372 C 167.176 51.724,163.865 55.704,158.550 55.704 C 157.245 55.704,156.797 56.113,155.806 58.208 C 155.183 59.525,153.713 60.973,152.063 61.897 C 151.786 62.051,151.653 62.270,151.766 62.384 C 152.187 62.804,153.485 62.177,155.776 60.448 C 158.892 58.095,161.683 57.734,162.177 59.620 C 162.416 60.533,162.270 60.636,160.431 60.852 C 158.679 61.058,156.444 62.013,156.444 62.556 C 156.444 62.741,156.665 62.793,156.963 62.678 C 157.927 62.307,161.032 61.638,161.813 61.634 C 162.485 61.630,162.641 61.815,162.973 63.000 C 163.434 64.644,163.299 64.923,161.306 66.443 C 159.103 68.124,158.359 67.953,155.336 65.077 L 154.079 63.882 152.077 64.535 C 148.025 65.857,147.074 66.533,144.074 70.227 C 142.555 72.099,139.650 75.386,137.619 77.532 C 133.358 82.035,133.493 81.778,135.392 81.778 C 137.825 81.778,143.344 82.604,147.004 83.516 C 152.698 84.935,155.407 83.996,160.309 78.906 C 162.975 76.138,166.405 72.087,167.034 70.963 C 167.397 70.315,170.074 69.995,170.074 70.600 C 170.074 71.602,161.072 81.310,157.806 83.830 C 156.894 84.533,156.148 85.217,156.148 85.348 C 156.148 85.647,158.776 86.628,160.741 87.063 C 161.556 87.243,164.289 87.885,166.815 88.491 C 174.225 90.266,176.470 90.114,187.309 87.101 C 199.903 83.601,203.141 81.709,209.788 73.967 C 213.284 69.894,213.329 69.813,213.331 67.531 C 213.334 65.227,213.461 65.029,214.485 65.738 C 214.911 66.033,215.496 66.359,215.784 66.464 C 216.073 66.568,216.384 66.890,216.474 67.178 C 216.565 67.467,216.843 68.082,217.093 68.545 C 217.624 69.531,217.517 69.657,215.556 70.354 C 213.383 71.126,207.110 77.823,207.507 78.947 C 207.693 79.473,211.479 79.197,215.230 78.384 C 217.169 77.964,218.800 77.664,218.853 77.717 C 219.119 77.983,214.558 79.132,211.556 79.556 C 208.411 79.999,207.806 80.198,203.716 82.132 C 193.860 86.792,185.348 89.702,179.192 90.516 C 175.696 90.978,180.007 93.037,184.471 93.037 C 186.418 93.037,185.112 94.574,182.708 95.112 C 181.871 95.299,180.821 95.591,180.376 95.760 C 179.087 96.250,178.160 95.815,175.865 93.642 C 172.497 90.454,168.674 90.001,166.037 92.479 C 165.466 93.016,165.266 93.043,164.107 92.739 C 160.311 91.744,157.210 90.610,155.993 89.773 C 151.514 86.691,134.468 80.908,136.272 83.082 C 136.462 83.310,137.694 83.788,139.010 84.143 C 149.372 86.939,154.872 89.553,160.249 94.238 L 162.424 96.133 161.504 96.955 C 160.278 98.050,160.404 98.099,157.726 95.481 C 153.934 91.775,148.251 88.846,141.437 87.086 C 139.506 86.587,136.894 85.858,135.632 85.465 C 134.228 85.029,131.586 84.577,128.818 84.300 C 126.331 84.051,123.854 83.701,123.313 83.524 C 121.721 82.999,121.865 84.050,124.045 88.852 C 125.225 91.452,125.193 91.160,124.320 91.327 C 123.659 91.454,123.532 91.267,122.672 88.917 C 120.308 82.459,121.386 83.081,111.111 82.237 C 107.933 81.976,104.467 81.570,103.407 81.336 C 100.580 80.710,97.606 80.745,97.324 81.407 C 96.375 83.633,96.876 90.006,98.669 98.519 C 99.819 103.979,100.120 104.669,102.780 107.950 C 107.055 113.223,107.393 115.889,104.381 120.596 C 102.658 123.290,102.667 123.310,102.667 116.789 L 102.667 111.259 101.640 109.333 C 100.417 107.038,99.974 107.721,101.000 110.322 C 101.822 112.408,101.948 113.869,101.697 118.370 L 101.481 122.222 99.930 120.148 C 96.541 115.618,95.861 112.950,97.247 109.615 L 97.902 108.040 96.906 97.010 C 96.154 88.678,95.966 85.412,96.138 83.657 C 96.661 78.320,97.156 78.816,89.823 77.319 C 85.129 76.361,79.963 74.939,77.962 74.055 C 77.249 73.739,76.601 73.481,76.523 73.481 C 76.198 73.481,76.874 75.253,78.662 79.079 C 79.704 81.310,80.803 83.797,81.103 84.605 C 81.497 85.669,81.891 86.186,82.528 86.481 C 85.716 87.957,87.625 93.000,86.108 95.935 C 85.390 97.322,85.164 97.132,84.782 94.821 C 84.381 92.393,83.457 89.784,82.660 88.827 C 81.856 87.864,81.865 88.787,82.681 91.139 C 83.359 93.091,84.226 96.910,84.035 97.101 C 83.901 97.235,81.342 94.573,80.604 93.532 C 80.241 93.020,80.148 91.949,80.148 88.264 L 80.148 83.639 77.778 78.986 C 74.871 73.281,75.347 73.692,70.212 72.432 C 58.987 69.676,46.028 66.051,36.855 63.102 C 31.295 61.314,26.337 59.852,25.835 59.852 C 25.334 59.852,24.841 59.719,24.741 59.556 C 24.050 58.437,28.170 59.486,41.037 63.703 C 53.229 67.698,60.789 69.648,70.370 71.266 C 72.815 71.679,77.370 72.634,80.492 73.389 C 85.732 74.655,86.245 74.729,87.159 74.352 C 89.485 73.393,93.529 70.276,97.896 66.074 C 102.375 61.766,103.243 61.154,103.591 62.060 C 103.893 62.846,102.180 64.499,94.222 71.097 C 89.223 75.242,89.537 74.925,90.074 75.269 C 92.053 76.534,103.297 79.490,109.139 80.280 C 111.672 80.623,126.188 81.609,128.220 81.576 C 130.262 81.544,132.312 80.040,137.434 74.815 C 146.979 65.078,153.396 57.791,154.002 56.000 C 156.210 49.476,158.221 46.407,160.796 45.635 C 161.645 45.380,163.259 45.250,163.259 45.436 M222.815 49.537 C 222.815 50.871,222.606 52.794,222.351 53.810 C 221.943 55.440,221.939 55.807,222.317 56.925 C 222.853 58.513,222.523 59.153,220.946 59.579 C 219.343 60.012,217.644 61.670,216.857 63.570 C 216.489 64.458,216.070 65.185,215.926 65.185 C 214.202 65.185,213.069 60.623,214.593 59.816 C 215.415 59.380,219.556 55.404,219.556 55.051 C 219.556 54.623,218.321 55.413,216.444 57.042 C 215.467 57.890,214.347 58.751,213.957 58.955 L 213.247 59.326 213.399 57.432 C 213.692 53.777,216.217 50.637,221.110 47.839 C 222.844 46.847,222.815 46.818,222.815 49.537 M112.499 48.612 C 114.613 49.413,115.148 50.749,113.934 52.193 C 113.118 53.162,112.000 56.448,112.000 57.875 C 112.000 59.039,112.423 58.496,113.457 56.000 C 115.462 51.165,117.729 49.670,120.000 51.687 C 120.407 52.049,121.274 52.497,121.926 52.683 C 125.654 53.745,127.615 58.076,125.784 61.201 C 123.894 64.427,117.857 66.450,113.570 65.294 C 112.586 65.029,112.164 65.042,111.553 65.360 C 110.944 65.676,110.659 65.686,110.211 65.406 C 109.649 65.055,109.484 65.086,107.481 65.921 C 107.109 66.076,106.963 65.999,106.963 65.647 C 106.963 64.906,106.176 63.514,104.266 60.878 C 100.713 55.972,100.565 53.947,103.540 50.889 C 105.662 48.707,109.905 47.629,112.499 48.612 M265.083 51.581 C 262.597 54.876,259.925 59.431,260.273 59.779 C 260.551 60.057,261.031 59.430,263.275 55.861 C 265.205 52.791,268.750 48.593,269.411 48.593 C 269.858 48.593,269.476 54.651,268.914 56.475 C 268.025 59.357,265.023 61.881,261.185 62.973 C 258.871 63.632,258.874 63.628,257.934 66.303 C 256.015 71.759,253.212 76.613,247.664 84.082 C 245.499 86.997,245.566 87.198,248.293 85.972 C 249.435 85.458,251.293 84.622,252.420 84.115 C 254.850 83.023,255.831 82.074,256.279 80.383 C 256.932 77.916,258.985 79.468,259.152 82.555 L 259.238 84.148 257.020 84.148 C 255.036 84.148,254.560 84.269,252.512 85.296 C 246.596 88.260,234.051 91.754,222.593 93.628 C 218.553 94.289,219.637 94.658,226.963 95.116 C 229.815 95.295,236.152 95.831,241.047 96.308 C 269.636 99.095,279.382 97.659,291.259 88.906 C 292.970 87.645,294.970 86.221,295.704 85.740 C 296.863 84.981,297.192 84.510,298.222 82.135 L 299.407 79.404 301.377 78.793 C 302.461 78.458,303.861 78.225,304.488 78.277 L 305.630 78.370 303.890 79.041 C 302.050 79.750,300.044 81.162,299.540 82.103 C 299.026 83.063,299.930 82.779,301.586 81.460 C 302.918 80.400,308.030 78.005,308.327 78.302 C 309.258 79.233,308.717 80.183,307.061 80.525 C 304.162 81.123,302.222 82.970,302.222 85.130 C 302.222 86.006,300.703 86.411,298.569 86.105 C 297.383 85.935,297.165 86.043,293.185 88.776 C 286.111 93.634,286.261 93.424,289.610 93.769 C 290.599 93.871,292.361 94.089,293.528 94.253 C 295.486 94.528,295.779 94.495,297.379 93.819 L 299.111 93.087 299.339 94.150 C 299.465 94.734,299.687 95.357,299.833 95.533 C 299.995 95.728,299.939 96.144,299.690 96.593 C 299.465 97.000,299.276 97.567,299.270 97.852 C 299.252 98.728,298.547 98.432,297.409 97.070 C 296.231 95.661,294.493 95.121,291.087 95.104 C 290.285 95.100,289.051 94.963,288.343 94.800 C 287.226 94.542,286.584 94.638,283.454 95.530 C 274.174 98.175,270.792 98.792,262.963 99.266 C 260.030 99.444,257.074 99.696,256.395 99.827 C 255.367 100.026,254.847 99.929,253.284 99.248 C 251.196 98.338,246.035 97.636,247.852 98.509 C 248.341 98.744,248.968 98.942,249.245 98.950 C 250.899 98.993,252.977 99.759,254.969 101.060 C 259.482 104.006,260.595 104.354,263.245 103.645 C 264.873 103.209,264.899 103.235,264.508 104.895 C 264.116 106.560,261.795 108.595,261.213 107.782 C 261.035 107.533,260.462 106.718,259.940 105.972 C 259.257 104.996,258.468 104.353,257.125 103.680 C 256.099 103.166,254.526 102.298,253.630 101.752 C 252.297 100.939,251.352 100.653,248.444 100.180 C 246.489 99.862,242.956 99.259,240.593 98.841 C 234.456 97.755,229.129 97.185,225.104 97.185 C 221.789 97.185,221.521 97.139,219.795 96.267 C 214.996 93.845,210.675 93.780,208.090 96.092 C 205.876 98.072,207.077 98.046,193.490 96.412 C 189.230 95.899,189.654 96.082,189.423 94.658 L 189.241 93.539 190.546 93.729 C 200.272 95.146,211.210 94.092,228.359 90.088 C 243.061 86.655,243.925 86.220,249.087 79.640 C 255.365 71.638,257.409 66.488,257.002 59.701 C 256.747 55.454,257.750 53.289,261.118 50.814 C 262.026 50.148,266.445 48.368,267.336 48.311 C 267.459 48.303,266.445 49.774,265.083 51.581 M161.842 50.712 C 161.915 50.932,162.213 51.157,162.503 51.213 C 162.841 51.279,162.983 51.172,162.898 50.917 C 162.825 50.698,162.528 50.472,162.238 50.416 C 161.900 50.351,161.757 50.457,161.842 50.712 M106.489 51.899 C 106.267 52.258,106.370 52.361,107.080 52.490 C 107.389 52.547,107.695 52.443,107.759 52.260 C 107.906 51.842,106.731 51.508,106.489 51.899 M227.549 51.778 C 227.533 52.314,226.446 53.399,226.247 53.077 C 225.834 52.409,224.942 52.750,224.314 53.815 C 223.965 54.406,223.605 54.815,223.514 54.724 C 223.379 54.589,223.924 52.455,224.097 52.440 C 224.125 52.438,224.681 52.243,225.333 52.009 C 226.650 51.534,227.559 51.439,227.549 51.778 M232.684 51.742 C 233.992 51.921,234.046 51.969,234.133 53.001 L 234.222 54.074 236.000 54.294 C 238.631 54.620,238.617 54.608,238.376 56.226 C 238.097 58.106,236.493 62.222,236.039 62.222 C 235.087 62.222,230.698 60.498,231.162 60.307 C 231.434 60.194,231.934 60.251,232.273 60.432 C 232.986 60.814,233.893 60.454,234.194 59.670 C 234.477 58.932,233.591 57.778,232.740 57.778 C 232.077 57.778,232.042 57.714,232.342 57.056 C 232.851 55.938,232.463 55.300,231.403 55.512 C 230.636 55.665,230.517 55.602,230.506 55.030 C 230.498 54.667,230.304 53.841,230.074 53.195 C 229.490 51.555,229.852 51.354,232.684 51.742 M160.296 52.296 C 160.296 52.775,160.568 52.845,161.309 52.561 C 162.030 52.284,161.865 51.852,161.037 51.852 C 160.576 51.852,160.296 52.020,160.296 52.296 M179.572 55.879 C 179.074 56.446,178.667 57.060,178.667 57.245 C 178.667 57.429,178.584 57.497,178.483 57.396 C 178.381 57.295,178.648 56.616,179.075 55.887 C 179.502 55.158,179.852 54.162,179.852 53.675 C 179.852 51.958,180.292 51.629,180.386 53.276 C 180.466 54.672,180.375 54.964,179.572 55.879 M172.793 53.455 C 177.366 54.814,178.157 56.694,175.148 59.058 C 173.352 60.469,171.711 62.542,171.913 63.145 C 171.981 63.351,172.929 62.660,174.125 61.532 C 177.328 58.510,179.495 57.872,180.792 59.567 C 181.171 60.063,182.159 61.171,182.988 62.030 C 189.950 69.251,178.848 75.851,170.332 69.554 C 169.837 69.188,169.278 69.021,168.888 69.123 C 168.482 69.229,168.046 69.083,167.682 68.719 C 167.296 68.333,166.700 68.148,165.844 68.148 L 164.577 68.148 164.689 66.974 C 164.750 66.329,164.434 64.155,163.986 62.143 C 162.806 56.847,163.215 55.616,166.815 53.620 C 168.651 52.603,169.814 52.570,172.793 53.455 M229.037 53.153 C 229.037 53.380,228.834 53.644,228.585 53.740 C 228.081 53.933,226.963 56.326,226.963 57.210 C 226.963 58.018,227.750 57.913,228.330 57.028 C 228.600 56.615,228.888 56.345,228.970 56.427 C 229.052 56.509,228.768 57.038,228.338 57.602 C 226.723 59.719,227.915 59.907,229.990 57.863 C 230.769 57.095,231.407 56.611,231.407 56.788 C 231.407 56.965,230.807 57.663,230.074 58.339 C 229.341 59.015,228.741 59.765,228.741 60.006 C 228.741 60.605,225.704 60.625,225.209 60.029 C 225.020 59.801,224.570 59.540,224.210 59.449 C 223.038 59.155,223.321 55.723,224.519 55.708 C 224.722 55.706,224.889 56.015,224.889 56.395 C 224.889 58.689,226.765 56.770,227.954 53.259 C 228.162 52.644,229.037 52.559,229.037 53.153 M261.630 53.481 C 261.630 53.726,261.763 53.926,261.926 53.926 C 262.089 53.926,262.222 53.726,262.222 53.481 C 262.222 53.237,262.089 53.037,261.926 53.037 C 261.763 53.037,261.630 53.237,261.630 53.481 M183.650 54.276 C 183.591 54.681,182.950 55.308,181.932 55.958 L 180.308 56.994 180.859 56.126 C 182.236 53.960,183.854 52.887,183.650 54.276 M106.074 54.667 C 106.476 55.151,107.719 55.270,107.979 54.849 C 108.149 54.574,107.209 54.233,106.260 54.226 C 105.800 54.223,105.768 54.298,106.074 54.667 M185.896 55.421 C 185.571 55.746,184.579 56.285,183.690 56.619 C 181.690 57.372,182.147 56.768,184.585 55.437 C 186.332 54.483,186.840 54.477,185.896 55.421 M265.772 54.970 C 265.566 55.219,265.470 55.495,265.560 55.585 C 265.729 55.754,267.556 54.907,267.556 54.659 C 267.556 54.312,266.108 54.565,265.772 54.970 M259.601 55.275 C 259.658 55.565,259.883 55.862,260.102 55.935 C 260.357 56.020,260.464 55.878,260.399 55.540 C 260.342 55.250,260.117 54.952,259.898 54.879 C 259.643 54.794,259.536 54.937,259.601 55.275 M170.839 56.104 C 171.096 56.773,171.917 57.004,171.796 56.373 C 171.741 56.090,171.466 55.814,171.183 55.760 C 170.829 55.691,170.722 55.798,170.839 56.104 M190.105 56.563 C 193.117 58.400,194.734 66.347,192.861 70.112 C 191.691 72.465,187.852 73.975,187.852 72.082 C 187.852 70.974,187.333 69.422,186.621 68.399 C 186.276 67.903,186.072 67.082,186.068 66.176 C 186.059 64.261,185.200 62.472,183.492 60.812 L 182.087 59.446 183.060 59.049 C 184.243 58.566,188.585 60.904,191.333 63.504 C 193.101 65.176,193.277 65.115,192.006 63.268 C 191.026 61.844,189.030 60.269,186.885 59.229 C 185.085 58.356,185.233 57.949,187.388 57.836 C 189.099 57.746,189.100 57.746,188.972 56.873 C 188.821 55.846,188.895 55.825,190.105 56.563 M162.370 56.568 C 162.370 57.506,161.988 57.755,160.787 57.601 C 160.086 57.511,158.959 57.627,158.171 57.871 L 156.786 58.299 157.107 57.594 C 157.353 57.055,157.678 56.881,158.492 56.854 C 159.077 56.835,159.956 56.717,160.444 56.593 C 161.729 56.266,162.370 56.258,162.370 56.568 M188.000 56.593 C 188.110 56.770,187.730 56.892,187.055 56.895 C 186.434 56.899,185.345 57.166,184.634 57.488 C 183.075 58.196,182.623 58.238,183.852 57.561 C 184.600 57.148,186.906 56.385,187.612 56.316 C 187.725 56.305,187.899 56.430,188.000 56.593 M120.158 57.603 C 120.435 58.025,120.862 58.370,121.107 58.370 C 121.733 58.370,120.883 57.079,120.163 56.937 C 119.685 56.842,119.685 56.881,120.158 57.603 M115.259 57.701 C 115.259 58.282,116.229 59.297,116.512 59.014 C 116.675 58.851,116.718 58.574,116.610 58.398 C 116.339 57.960,115.259 57.403,115.259 57.701 M264.074 58.066 C 263.381 58.380,262.815 58.771,262.815 58.934 C 262.815 59.285,264.898 58.707,266.222 57.988 L 267.111 57.505 266.222 57.500 C 265.733 57.497,264.767 57.752,264.074 58.066 M169.231 58.238 C 169.287 58.528,169.513 58.825,169.732 58.898 C 169.987 58.983,170.094 58.841,170.028 58.503 C 169.972 58.213,169.747 57.915,169.527 57.842 C 169.272 57.757,169.165 57.900,169.231 58.238 M233.292 59.111 C 233.474 59.585,233.225 59.666,232.470 59.376 C 232.214 59.278,232.077 59.078,232.167 58.932 C 232.426 58.514,233.105 58.622,233.292 59.111 M224.627 60.999 C 225.173 61.429,225.864 61.560,227.678 61.581 C 232.771 61.639,236.741 63.233,236.741 65.220 C 236.741 67.645,233.961 72.706,232.156 73.566 C 230.256 74.472,227.566 74.146,226.171 72.839 C 225.647 72.348,225.305 72.274,224.326 72.440 C 222.874 72.685,221.361 72.235,220.479 71.296 L 219.834 70.609 222.663 70.423 C 225.852 70.214,231.269 69.059,230.438 68.766 C 230.149 68.664,229.016 68.673,227.919 68.787 C 219.940 69.613,218.759 69.446,217.892 67.372 C 216.267 63.482,221.492 58.538,224.627 60.999 M157.930 63.333 C 157.936 64.006,158.429 64.781,158.686 64.524 C 158.965 64.245,158.572 62.815,158.217 62.815 C 158.057 62.815,157.928 63.048,157.930 63.333 M178.370 63.531 C 178.370 63.820,180.494 64.938,180.682 64.749 C 180.974 64.456,179.604 63.407,178.930 63.407 C 178.622 63.407,178.370 63.463,178.370 63.531 M159.986 64.322 C 159.805 64.662,159.730 65.014,159.821 65.105 C 160.065 65.349,160.889 64.584,160.889 64.112 C 160.889 63.498,160.361 63.621,159.986 64.322 M175.704 65.156 C 175.704 65.368,177.219 66.074,177.674 66.074 C 178.075 66.074,177.642 65.515,177.023 65.233 C 176.117 64.820,175.704 64.796,175.704 65.156 M155.697 66.845 C 157.001 68.298,157.351 68.522,158.519 68.649 C 159.901 68.798,159.970 68.766,162.666 66.712 L 163.579 66.017 163.493 67.601 L 163.407 69.185 165.136 69.125 L 166.864 69.066 166.340 69.866 C 165.033 71.864,160.196 77.658,158.431 79.340 C 154.511 83.077,151.642 83.734,145.630 82.273 C 143.837 81.837,140.886 81.320,139.071 81.124 L 135.772 80.768 138.827 77.495 C 141.907 74.195,143.947 71.739,145.688 69.240 C 146.725 67.750,147.863 67.064,151.158 65.941 C 154.053 64.955,153.992 64.943,155.697 66.845 M272.161 66.925 C 271.643 68.485,269.780 71.569,268.940 72.259 C 268.602 72.536,268.444 73.118,268.444 74.094 C 268.444 75.964,267.742 76.529,265.743 76.264 C 263.730 75.997,262.444 76.540,260.895 78.310 C 259.301 80.133,258.496 79.871,258.545 77.545 C 258.602 74.869,259.030 74.264,261.275 73.686 C 264.176 72.939,267.178 71.461,265.859 71.430 C 265.333 71.418,264.066 71.720,263.044 72.102 C 259.200 73.539,258.969 73.434,260.282 70.844 C 261.803 67.842,265.627 65.998,271.556 65.409 C 272.742 65.291,272.721 65.238,272.161 66.925 M221.312 73.417 C 221.702 73.651,219.658 76.739,219.111 76.741 C 218.785 76.742,216.852 77.073,214.815 77.476 C 208.510 78.723,208.177 78.616,210.371 76.052 C 214.532 71.191,217.485 69.895,219.697 71.958 C 220.509 72.714,221.235 73.371,221.312 73.417 M274.815 71.249 C 275.304 71.472,275.512 71.666,275.278 71.680 C 275.044 71.693,274.544 71.994,274.167 72.348 L 273.481 72.992 273.481 72.348 C 273.481 71.500,272.301 71.472,271.549 72.303 C 270.769 73.166,270.301 72.555,271.004 71.591 C 271.645 70.711,273.314 70.561,274.815 71.249 M342.222 72.707 C 343.771 73.414,343.726 77.820,342.129 81.761 C 341.562 83.162,341.441 83.772,341.675 84.054 C 342.770 85.374,340.347 88.689,338.033 89.036 C 333.136 89.771,332.164 86.556,335.382 80.274 C 336.395 78.298,337.162 76.618,337.086 76.542 C 336.634 76.091,332.170 83.805,332.139 85.092 C 332.133 85.334,331.965 85.264,331.694 84.906 C 331.089 84.105,331.147 81.819,331.801 80.742 C 332.290 79.937,332.300 79.754,331.911 78.763 C 330.201 74.410,337.090 70.363,342.222 72.707 M279.310 73.047 C 281.394 73.968,281.251 73.796,280.859 74.921 C 280.450 76.096,280.807 76.600,282.595 77.366 C 284.765 78.296,284.269 80.006,280.981 82.937 C 278.833 84.851,279.409 85.028,275.131 81.149 C 274.485 80.564,275.288 80.596,276.088 81.188 C 277.818 82.467,279.794 80.632,278.132 79.290 C 277.384 78.686,277.349 78.578,277.776 78.224 C 278.507 77.617,278.220 76.609,277.285 76.501 C 276.547 76.416,276.513 76.348,276.766 75.466 C 276.915 74.947,277.037 74.022,277.037 73.409 C 277.037 72.090,277.117 72.077,279.310 73.047 M276.148 73.333 C 276.148 73.606,275.871 73.778,275.430 73.778 C 274.941 73.778,274.332 74.224,273.514 75.180 C 272.114 76.818,272.294 77.431,273.944 76.644 C 275.368 75.964,274.937 76.591,273.461 77.344 C 271.257 78.468,272.418 79.265,274.774 78.245 C 277.226 77.183,277.260 77.174,276.741 77.701 C 276.496 77.949,275.596 78.379,274.741 78.656 C 273.763 78.972,273.185 79.327,273.185 79.611 C 273.185 79.930,273.032 79.997,272.667 79.840 C 272.381 79.717,271.713 79.469,271.182 79.290 C 270.650 79.111,270.142 78.734,270.053 78.453 C 269.964 78.171,269.582 77.699,269.205 77.402 C 268.528 76.870,268.527 76.852,269.074 76.176 C 269.380 75.799,269.630 75.179,269.630 74.799 C 269.630 73.966,270.025 73.675,270.817 73.927 C 271.308 74.082,271.353 74.215,271.083 74.718 C 270.175 76.415,272.131 76.053,273.944 74.188 C 275.218 72.876,276.148 72.516,276.148 73.333 M226.151 74.296 C 226.930 75.044,227.193 75.111,229.324 75.111 L 231.648 75.111 231.157 75.959 C 229.486 78.846,225.527 79.918,222.762 78.232 C 222.201 77.890,221.205 77.616,220.444 77.596 C 219.349 77.566,219.260 77.526,219.943 77.372 C 220.551 77.236,220.991 76.787,221.573 75.711 C 222.828 73.390,224.626 72.835,226.151 74.296 M350.771 74.103 C 351.855 74.481,351.839 74.401,351.246 76.397 C 350.739 78.103,350.826 78.425,351.904 78.835 C 352.720 79.145,352.681 80.061,351.773 81.967 L 351.328 82.899 350.012 81.894 C 349.288 81.341,348.552 80.889,348.376 80.889 C 348.200 80.889,348.268 80.655,348.526 80.370 C 349.132 79.701,348.684 78.815,347.740 78.815 C 347.169 78.815,347.084 78.687,347.188 77.983 C 347.454 76.169,345.262 75.843,344.809 77.630 C 344.413 79.191,343.881 79.528,344.106 78.074 C 344.207 77.422,344.291 76.189,344.293 75.333 L 344.296 73.778 347.067 73.778 C 348.591 73.778,350.257 73.924,350.771 74.103 M267.829 77.803 C 268.607 78.114,269.033 78.485,269.094 78.903 C 269.161 79.369,269.658 79.718,270.991 80.240 C 276.311 82.321,279.355 85.512,278.232 87.832 C 275.492 93.491,267.853 95.176,265.919 90.547 C 265.610 89.808,265.256 89.544,264.189 89.259 C 262.779 88.882,261.758 88.031,261.297 86.848 C 260.913 85.865,260.954 85.862,263.269 86.702 C 265.200 87.403,267.948 88.040,270.641 88.411 C 272.752 88.702,271.345 88.030,267.566 86.942 C 261.377 85.160,259.746 83.917,260.437 81.506 C 261.451 77.972,264.471 76.459,267.829 77.803 M346.370 77.760 C 346.370 77.995,346.251 78.261,346.105 78.351 C 345.800 78.540,345.432 77.778,345.699 77.510 C 346.017 77.193,346.370 77.324,346.370 77.760 M277.577 80.394 C 277.644 80.738,277.532 80.833,277.207 80.708 C 276.659 80.498,276.566 79.596,277.111 79.778 C 277.315 79.845,277.525 80.123,277.577 80.394 M347.556 79.868 C 347.556 79.959,346.840 80.349,345.966 80.736 C 343.236 81.943,343.999 83.025,346.789 81.905 C 347.188 81.745,347.293 81.780,347.142 82.024 C 347.024 82.214,346.686 82.370,346.389 82.370 C 345.785 82.370,345.085 83.060,345.385 83.361 C 345.722 83.697,348.722 83.572,349.324 83.196 C 349.942 82.811,350.406 83.018,350.086 83.536 C 349.979 83.710,349.174 83.852,348.298 83.852 C 345.731 83.852,344.056 84.935,345.778 85.481 C 346.423 85.686,346.548 86.078,346.063 86.377 C 345.058 86.998,342.869 85.837,342.744 84.617 C 342.558 82.793,343.341 80.892,344.286 80.876 C 344.699 80.870,345.504 80.609,346.074 80.296 C 347.153 79.705,347.556 79.589,347.556 79.868 M311.781 82.489 C 316.629 84.808,316.633 86.972,311.798 91.790 C 310.345 93.238,309.333 94.491,309.333 94.842 C 309.333 98.036,302.355 98.163,300.845 94.996 C 299.895 93.005,300.882 91.608,305.597 88.268 C 307.300 87.062,308.582 86.033,308.445 85.983 C 307.785 85.743,303.112 88.566,301.259 90.325 L 300.148 91.380 300.148 90.416 C 300.148 89.067,300.843 87.872,302.067 87.116 C 302.726 86.708,303.111 86.240,303.111 85.847 C 303.111 82.151,307.512 80.446,311.781 82.489 M300.612 83.238 C 300.304 83.578,300.144 83.947,300.256 84.058 C 300.537 84.339,301.429 83.397,301.286 82.969 C 301.213 82.749,300.965 82.848,300.612 83.238 M350.505 85.382 C 349.645 87.048,346.963 88.357,346.963 87.111 C 346.963 86.948,347.347 86.815,347.816 86.815 C 348.735 86.815,349.469 86.180,349.261 85.566 C 349.190 85.356,349.477 85.037,349.899 84.857 C 350.863 84.444,350.951 84.520,350.505 85.382 M299.767 87.240 C 299.802 87.266,299.635 87.935,299.397 88.728 C 299.158 89.520,298.958 90.580,298.951 91.084 C 298.928 92.934,295.160 93.817,290.391 93.089 L 289.078 92.889 290.835 91.790 C 291.802 91.185,293.659 89.838,294.963 88.796 C 297.207 87.003,298.770 86.496,299.767 87.240 M344.656 87.662 C 345.449 88.351,345.987 88.537,347.556 88.660 C 349.524 88.815,352.940 89.985,352.982 90.519 C 353.093 91.941,345.281 95.550,342.523 95.350 C 339.226 95.112,339.220 94.254,342.501 92.600 C 344.852 91.415,346.157 90.218,344.617 90.660 C 344.100 90.808,342.584 91.519,341.246 92.239 C 338.724 93.598,338.286 93.647,336.624 92.758 C 336.071 92.462,335.111 90.859,335.111 90.232 C 335.111 90.145,335.987 90.074,337.057 90.074 C 339.364 90.074,339.904 89.838,341.523 88.118 C 342.966 86.586,343.355 86.530,344.656 87.662 M319.554 88.391 C 322.646 90.047,323.005 90.815,321.397 92.332 C 320.176 93.484,320.047 94.048,320.809 94.891 C 321.302 95.435,321.267 95.510,319.891 96.809 L 318.461 98.161 317.601 96.589 C 316.620 94.795,316.564 94.519,317.185 94.519 C 317.889 94.519,317.736 93.115,316.990 92.715 C 316.417 92.409,316.402 92.344,316.842 92.098 C 317.414 91.777,317.492 90.648,316.978 90.133 C 316.425 89.581,315.651 89.712,315.059 90.458 C 313.422 92.521,313.960 90.847,315.967 87.630 C 316.437 86.877,316.917 86.979,319.554 88.391 M333.096 88.712 C 333.878 89.472,334.180 90.055,334.320 91.082 C 334.530 92.612,334.458 92.652,332.737 91.964 C 330.866 91.215,328.921 91.537,325.420 93.176 C 323.543 94.055,322.202 94.517,321.885 94.395 C 320.969 94.044,322.273 93.175,325.481 91.997 C 328.367 90.938,330.667 89.714,330.667 89.237 C 330.667 89.012,331.775 87.704,331.966 87.704 C 332.016 87.704,332.524 88.157,333.096 88.712 M133.290 90.657 C 138.629 90.921,139.559 91.502,140.733 95.304 C 141.532 97.890,141.497 98.425,140.396 100.490 C 137.782 105.395,134.184 106.925,133.189 103.556 C 132.722 101.976,131.760 100.140,130.803 99.003 C 129.592 97.563,129.386 97.902,130.333 99.778 C 132.727 104.522,132.719 107.525,130.308 108.434 C 129.772 108.636,128.583 109.121,127.667 109.512 C 125.544 110.417,122.788 110.466,120.950 109.632 C 116.460 107.594,118.333 97.710,123.763 94.780 C 124.347 94.465,124.713 93.991,124.832 93.395 C 124.952 92.798,125.295 92.353,125.836 92.094 C 126.289 91.877,126.700 91.434,126.749 91.109 C 126.798 90.784,126.904 90.210,126.985 89.834 L 127.131 89.149 128.189 89.803 C 129.087 90.358,129.855 90.487,133.290 90.657 M84.852 91.000 C 84.954 91.509,85.037 92.043,85.037 92.185 C 85.037 92.328,85.170 92.444,85.333 92.444 C 85.660 92.444,85.732 91.278,85.450 90.543 C 85.120 89.685,84.659 90.037,84.852 91.000 M186.963 90.538 C 186.963 92.155,186.042 92.420,182.543 91.806 L 180.593 91.464 182.370 91.096 C 183.348 90.894,184.615 90.593,185.185 90.428 C 186.672 89.997,186.963 90.015,186.963 90.538 M316.444 90.927 C 316.444 91.070,316.244 91.353,316.000 91.556 C 315.535 91.941,315.309 91.308,315.753 90.864 C 316.034 90.583,316.444 90.620,316.444 90.927 M80.777 91.778 C 81.007 92.736,81.120 92.905,81.369 92.656 C 81.638 92.387,81.225 90.963,80.878 90.963 C 80.705 90.963,80.663 91.302,80.777 91.778 M172.595 92.404 C 175.344 93.653,178.074 99.714,178.074 104.566 C 178.074 106.212,175.856 108.292,174.429 107.983 C 171.742 107.402,168.235 105.015,166.155 102.351 C 164.755 100.559,164.371 100.632,165.328 102.509 C 166.563 104.929,169.211 106.978,172.856 108.333 C 174.627 108.992,174.643 109.006,173.558 109.022 C 172.748 109.033,171.931 109.393,170.518 110.360 C 166.734 112.950,162.828 113.327,160.626 111.314 C 160.068 110.804,157.486 107.061,156.041 104.667 C 155.895 104.425,156.187 104.078,156.887 103.666 C 157.609 103.240,158.236 102.481,158.818 101.326 C 159.806 99.369,161.201 98.102,163.440 97.126 C 164.505 96.662,165.058 96.229,165.176 95.770 C 165.909 92.905,169.805 91.137,172.595 92.404 M188.496 99.407 C 188.607 102.667,188.789 105.840,188.902 106.460 C 189.451 109.494,187.904 111.519,184.998 111.566 C 183.141 111.596,183.086 111.577,183.701 111.113 C 184.086 110.822,184.692 110.679,185.212 110.756 C 186.213 110.902,186.963 110.400,186.963 109.584 C 186.963 108.533,185.539 108.416,182.378 109.210 C 181.165 109.514,181.630 108.966,183.481 107.910 C 184.966 107.062,187.671 104.593,187.114 104.593 C 186.968 104.593,185.812 105.274,184.543 106.106 C 181.349 108.203,179.672 108.746,177.872 108.263 C 177.040 108.040,177.281 107.378,178.406 106.796 C 179.442 106.261,179.584 104.161,178.780 101.292 C 178.056 98.715,179.832 96.296,182.448 96.296 C 183.879 96.296,185.569 95.262,186.691 93.699 C 188.072 91.777,188.257 92.361,188.496 99.407 M162.499 93.214 C 163.488 93.475,164.458 93.736,164.656 93.794 C 165.088 93.920,164.568 95.704,164.100 95.704 C 163.538 95.704,162.502 95.002,161.408 93.879 C 160.134 92.574,160.114 92.586,162.499 93.214 M314.378 93.333 C 315.332 93.333,316.193 93.463,316.291 93.621 C 316.401 93.799,315.700 93.884,314.457 93.844 C 312.104 93.767,311.546 94.453,313.612 94.883 C 315.107 95.193,315.415 95.493,314.103 95.361 C 313.514 95.301,313.046 95.404,312.975 95.607 C 312.814 96.073,315.260 97.481,316.231 97.481 C 317.056 97.481,317.536 97.914,317.046 98.216 C 316.883 98.317,315.944 98.007,314.959 97.526 C 312.680 96.414,310.929 96.817,312.473 98.098 C 312.903 98.454,312.896 98.510,312.399 98.706 C 311.564 99.034,311.111 99.000,311.111 98.609 C 311.111 98.414,310.783 97.912,310.381 97.493 C 309.689 96.771,309.672 96.671,310.054 95.563 C 310.481 94.320,312.330 92.397,312.527 92.989 C 312.597 93.198,313.323 93.333,314.378 93.333 M149.458 96.544 C 151.647 101.554,147.261 112.000,142.967 112.000 C 142.372 112.000,141.538 112.345,140.742 112.922 C 138.550 114.510,135.715 114.701,136.654 113.197 C 136.938 112.742,136.945 112.398,136.686 111.710 C 136.266 110.599,136.715 110.507,137.922 111.457 C 139.782 112.920,140.500 110.801,138.741 109.042 L 137.585 107.886 139.089 107.533 C 141.645 106.932,143.575 106.103,144.322 105.283 C 144.958 104.584,144.972 104.523,144.444 104.723 C 144.119 104.848,142.985 105.281,141.926 105.687 C 139.555 106.596,137.450 106.952,136.203 106.656 C 135.684 106.532,135.498 106.417,135.790 106.401 C 138.301 106.257,142.222 101.276,142.222 98.230 C 142.222 96.685,142.763 96.296,144.913 96.296 C 145.834 96.296,146.318 96.079,147.190 95.278 C 148.458 94.112,148.375 94.065,149.458 96.544 M132.623 95.582 C 132.406 96.148,132.673 96.670,133.058 96.432 C 133.410 96.214,133.419 95.111,133.069 95.111 C 132.923 95.111,132.723 95.323,132.623 95.582 M215.670 95.862 C 218.743 96.587,223.714 99.413,223.246 100.169 C 222.852 100.808,219.486 102.180,217.491 102.517 C 215.825 102.798,215.317 103.028,214.499 103.872 C 213.262 105.148,212.810 105.146,211.559 103.856 C 210.168 102.420,208.516 101.849,206.109 101.973 C 203.771 102.093,203.490 101.511,205.036 99.751 C 206.604 97.964,207.396 97.832,209.909 98.936 C 212.225 99.954,214.838 100.816,215.029 100.625 C 215.271 100.384,213.378 99.275,211.394 98.497 C 208.861 97.504,208.631 97.316,209.228 96.719 C 210.462 95.486,212.770 95.179,215.670 95.862 M135.303 97.234 C 135.057 97.614,134.757 98.326,134.638 98.815 C 134.324 100.098,135.251 99.298,135.718 97.882 C 136.132 96.628,135.915 96.288,135.303 97.234 M178.519 97.136 C 178.519 97.672,177.939 97.574,177.824 97.019 C 177.760 96.710,177.871 96.574,178.120 96.657 C 178.339 96.730,178.519 96.946,178.519 97.136 M196.444 97.777 C 199.296 98.099,201.863 98.365,202.148 98.367 C 203.178 98.374,202.627 98.826,200.960 99.339 C 198.196 100.190,189.944 98.739,189.676 97.355 C 189.592 96.920,189.720 96.861,190.417 97.011 C 190.880 97.110,193.593 97.455,196.444 97.777 M302.563 97.923 C 304.498 98.824,305.578 98.853,307.387 98.052 C 308.987 97.345,309.266 97.467,310.058 99.224 C 310.344 99.858,310.868 100.509,311.223 100.670 C 311.578 100.832,312.198 101.242,312.601 101.583 C 313.004 101.923,313.771 102.555,314.307 102.988 C 315.127 103.650,316.148 105.094,316.148 105.590 C 316.148 105.923,312.940 106.370,310.558 106.370 C 307.199 106.370,305.060 105.745,303.783 104.391 C 302.180 102.692,302.378 102.519,305.908 102.519 C 307.651 102.519,309.082 102.389,309.185 102.222 C 309.428 101.830,309.678 101.867,305.492 101.662 L 301.799 101.481 301.122 100.475 C 300.448 99.474,300.163 97.185,300.711 97.185 C 300.858 97.185,301.691 97.517,302.563 97.923 M228.741 98.378 C 234.784 98.836,251.575 101.559,252.889 102.295 C 257.061 104.632,258.143 105.330,258.793 106.102 C 259.212 106.601,259.556 107.144,259.556 107.310 C 259.556 107.476,259.837 108.007,260.180 108.490 C 260.983 109.617,260.784 109.783,259.365 109.173 C 257.356 108.310,256.754 108.219,254.898 108.500 L 253.081 108.775 250.022 107.144 C 244.667 104.287,239.050 102.477,228.740 100.286 C 226.106 99.726,224.779 99.293,224.148 98.788 L 223.259 98.077 224.000 98.076 C 224.407 98.076,226.541 98.212,228.741 98.378 M193.585 99.881 C 197.740 101.283,199.320 101.412,201.099 100.495 C 203.623 99.194,204.176 101.440,201.973 104.040 L 200.878 105.333 199.954 104.208 C 198.765 102.759,197.362 102.059,194.150 101.313 C 189.957 100.338,189.630 100.199,189.630 99.384 C 189.630 98.485,189.338 98.449,193.585 99.881 M316.669 99.790 C 315.649 101.019,313.889 101.324,312.848 100.451 L 312.148 99.865 313.630 99.933 C 314.950 99.993,315.109 99.934,315.094 99.395 C 315.079 98.848,315.168 98.819,316.038 99.092 C 316.795 99.328,316.929 99.477,316.669 99.790 M363.438 99.401 C 366.685 100.758,366.626 103.889,363.264 108.677 C 362.262 110.104,361.778 111.089,361.778 111.703 C 361.778 114.829,356.480 116.168,353.852 113.706 C 352.220 112.177,353.188 109.775,357.140 105.549 C 358.387 104.215,359.407 103.050,359.407 102.959 C 359.407 102.249,354.584 106.694,352.812 109.037 L 352.028 110.074 352.014 108.558 C 352.000 107.065,352.557 105.921,353.740 105.009 C 354.023 104.791,354.096 104.423,353.961 103.887 C 352.986 100.003,358.562 97.364,363.438 99.401 M170.218 99.870 C 170.108 100.372,170.088 100.854,170.174 100.940 C 170.488 101.254,170.963 100.688,170.963 100.000 C 170.963 98.927,170.445 98.837,170.218 99.870 M230.901 101.806 C 236.781 103.110,241.180 104.426,246.144 106.368 C 249.708 107.761,250.346 108.082,252.254 109.438 C 252.900 109.897,253.181 109.934,253.965 109.660 C 255.610 109.087,259.556 109.777,259.556 110.638 C 259.556 111.907,258.667 112.460,257.541 111.893 C 257.101 111.672,256.351 111.397,255.874 111.282 C 254.603 110.976,255.386 111.829,257.241 112.769 C 258.240 113.275,258.667 113.672,258.667 114.094 C 258.667 114.425,258.867 115.084,259.113 115.559 C 259.525 116.356,259.508 116.530,258.897 117.840 C 258.532 118.621,258.231 119.282,258.228 119.309 C 258.206 119.482,255.204 118.746,254.424 118.376 C 252.948 117.676,252.620 116.903,252.443 113.716 C 252.294 111.036,252.222 110.775,251.401 109.902 C 248.674 107.005,237.091 103.265,227.556 102.204 C 223.556 101.758,223.391 101.708,224.131 101.164 C 224.951 100.560,225.534 100.616,230.901 101.806 M276.919 101.939 C 278.864 102.772,281.640 104.806,283.389 106.676 L 284.852 108.242 283.537 108.671 C 282.814 108.908,280.785 109.147,279.028 109.204 C 276.481 109.285,275.670 109.420,275.028 109.870 C 273.597 110.872,272.296 110.823,272.296 109.768 C 272.296 108.210,268.761 106.074,266.184 106.074 C 265.231 106.074,265.221 106.060,265.536 105.157 C 266.227 103.175,269.062 102.301,270.757 103.549 C 273.096 105.270,275.903 107.011,276.069 106.845 C 276.343 106.570,275.261 105.512,273.439 104.271 C 270.834 102.497,270.608 102.208,271.454 101.739 C 272.529 101.143,275.298 101.244,276.919 101.939 M172.655 102.223 C 172.384 102.610,172.229 102.994,172.310 103.076 C 172.565 103.330,173.409 102.301,173.275 101.900 C 173.191 101.648,172.981 101.758,172.655 102.223 M125.809 102.171 C 125.712 102.328,125.843 102.537,126.100 102.636 C 126.834 102.917,128.000 102.845,128.000 102.519 C 128.000 102.356,127.744 102.222,127.432 102.222 C 127.119 102.222,126.666 102.146,126.425 102.054 C 126.183 101.961,125.906 102.014,125.809 102.171 M370.963 103.032 C 373.852 103.998,374.366 104.770,373.185 106.370 C 372.290 107.584,372.255 108.181,373.037 108.889 C 373.866 109.639,373.786 110.047,372.542 111.424 L 371.454 112.628 370.350 111.351 C 369.579 110.460,369.332 109.967,369.534 109.720 C 370.017 109.129,369.687 108.038,368.972 107.864 C 368.472 107.742,368.382 107.597,368.597 107.259 C 369.063 106.527,368.927 105.523,368.318 105.197 C 367.489 104.753,366.853 105.112,366.355 106.304 C 365.622 108.059,365.554 107.158,366.245 104.846 C 366.604 103.647,366.959 102.557,367.035 102.424 C 367.203 102.126,369.161 102.430,370.963 103.032 M208.685 103.470 C 210.730 104.083,211.895 105.528,211.821 107.359 C 211.773 108.547,211.966 109.319,212.683 110.815 C 216.089 117.918,215.133 120.815,209.280 121.121 C 204.141 121.390,200.854 118.605,201.814 114.795 C 202.095 113.677,202.058 113.436,201.488 112.665 C 200.781 111.708,200.413 109.793,200.710 108.610 C 200.978 107.541,201.307 107.664,201.941 109.071 C 202.898 111.193,206.947 116.708,207.293 116.361 C 207.504 116.150,206.694 114.608,205.263 112.494 C 200.878 106.017,202.542 101.630,208.685 103.470 M219.207 103.730 C 219.988 104.002,221.333 105.555,221.333 106.183 C 221.333 106.286,220.833 106.368,220.222 106.366 C 219.492 106.363,219.248 106.274,219.511 106.108 C 220.309 105.602,219.753 104.769,218.442 104.510 C 217.138 104.252,216.805 103.847,217.704 103.612 C 217.989 103.537,218.236 103.461,218.252 103.442 C 218.269 103.423,218.698 103.553,219.207 103.730 M123.556 104.857 C 123.556 105.339,125.918 106.108,126.462 105.802 C 126.888 105.563,126.896 105.500,126.519 105.379 C 126.274 105.301,125.621 105.092,125.067 104.915 C 123.844 104.524,123.556 104.512,123.556 104.857 M216.401 105.137 C 216.864 105.649,216.849 105.701,216.150 106.019 C 214.332 106.848,215.916 107.692,218.868 107.469 C 220.867 107.318,221.037 107.350,221.037 107.875 C 221.037 108.500,220.598 108.636,220.273 108.111 C 220.062 107.769,216.159 107.890,215.799 108.250 C 215.473 108.576,216.293 109.259,217.239 109.448 C 217.750 109.550,218.097 109.705,218.009 109.793 C 217.922 109.881,217.225 109.795,216.461 109.603 C 213.583 108.878,214.169 110.398,217.111 111.289 C 218.048 111.572,218.591 111.856,218.318 111.920 C 218.045 111.983,217.166 111.753,216.366 111.409 C 215.565 111.065,214.735 110.823,214.521 110.873 C 213.853 111.028,212.674 109.007,212.867 108.037 C 212.961 107.569,213.037 106.869,213.037 106.481 C 213.037 105.989,213.205 105.778,213.597 105.778 C 213.905 105.778,214.471 105.516,214.856 105.195 C 215.726 104.470,215.795 104.468,216.401 105.137 M162.963 105.778 C 162.963 105.941,163.530 106.072,164.222 106.070 C 165.144 106.066,165.363 105.988,165.037 105.778 C 164.452 105.400,162.963 105.400,162.963 105.778 M368.000 106.370 C 368.000 106.700,367.802 106.963,367.556 106.963 C 367.020 106.963,366.983 106.617,367.467 106.133 C 367.945 105.655,368.000 105.680,368.000 106.370 M135.075 107.852 C 135.599 108.504,136.281 109.037,136.590 109.037 C 136.899 109.037,137.526 109.365,137.983 109.766 L 138.815 110.494 137.219 109.993 C 135.965 109.598,135.475 109.256,134.932 108.395 C 134.551 107.792,134.002 107.160,133.712 106.992 C 133.272 106.735,133.262 106.683,133.654 106.676 C 133.912 106.671,134.552 107.200,135.075 107.852 M269.456 108.092 C 270.870 108.918,271.754 110.679,271.565 112.296 C 271.480 113.030,271.392 113.830,271.370 114.074 C 271.348 114.319,271.562 115.785,271.845 117.333 C 273.085 124.116,271.900 126.310,267.260 125.825 C 261.269 125.198,258.217 121.707,260.197 117.744 C 260.824 116.487,260.827 116.436,260.308 115.286 C 259.717 113.975,259.837 112.577,260.637 111.433 C 261.118 110.748,261.132 110.768,261.811 113.121 C 262.686 116.150,264.982 121.002,265.120 120.111 C 265.173 119.765,264.930 118.699,264.579 117.741 C 264.229 116.783,263.624 115.133,263.236 114.074 C 262.334 111.609,262.478 108.212,263.489 108.144 C 263.526 108.141,264.089 107.940,264.741 107.697 C 266.161 107.166,268.158 107.334,269.456 108.092 M166.419 108.002 C 164.590 108.505,164.363 108.741,165.709 108.741 C 166.968 108.741,168.296 108.288,168.296 107.859 C 168.296 107.496,168.247 107.500,166.419 108.002 M223.254 109.916 C 224.189 111.761,224.186 112.106,223.229 112.733 C 222.392 113.282,222.375 113.907,223.145 115.785 C 223.892 117.606,222.600 118.372,218.215 118.709 C 215.385 118.927,215.622 119.165,215.248 115.731 C 215.143 114.769,214.988 113.802,214.904 113.583 C 214.820 113.364,214.894 113.185,215.068 113.185 C 215.241 113.185,215.548 113.732,215.748 114.401 C 216.148 115.737,216.525 116.007,217.611 115.735 C 218.554 115.498,218.844 114.537,218.246 113.624 C 217.900 113.097,217.880 112.947,218.170 113.058 C 219.389 113.526,220.627 112.174,219.691 111.397 C 219.292 111.066,219.415 110.855,220.654 109.744 C 222.428 108.154,222.359 108.149,223.254 109.916 M98.963 109.926 C 98.963 110.664,99.080 111.074,99.259 110.963 C 99.422 110.862,99.556 110.396,99.556 109.926 C 99.556 109.456,99.422 108.990,99.259 108.889 C 99.080 108.778,98.963 109.188,98.963 109.926 M135.263 111.225 C 135.928 112.557,135.960 112.753,135.530 112.843 C 134.788 112.999,134.312 112.324,133.821 110.418 C 133.267 108.264,133.984 108.666,135.263 111.225 M366.171 109.008 C 366.770 108.869,367.593 108.765,368.000 108.777 L 368.741 108.800 368.000 109.037 C 367.593 109.168,366.842 109.288,366.333 109.304 C 365.232 109.339,364.392 110.120,365.031 110.515 C 365.251 110.651,365.909 110.708,366.493 110.641 L 367.556 110.521 366.593 110.824 C 364.991 111.329,365.325 111.817,367.704 112.445 C 368.657 112.696,369.233 112.723,369.430 112.526 C 369.762 112.194,370.370 112.461,370.370 112.939 C 370.370 113.133,369.953 113.182,369.259 113.069 C 365.257 112.419,364.393 112.575,365.460 113.754 C 366.389 114.781,365.353 115.034,363.933 114.127 C 362.858 113.440,362.690 113.190,362.679 112.267 C 362.665 111.016,364.293 108.471,364.790 108.967 C 364.971 109.149,365.497 109.164,366.171 109.008 M176.588 109.620 C 177.311 110.971,182.368 112.860,184.283 112.494 C 184.992 112.359,184.999 112.372,184.447 112.775 C 184.129 113.008,183.715 113.139,183.528 113.067 C 181.127 112.146,179.619 112.795,181.647 113.877 L 182.667 114.421 181.579 114.238 C 180.130 113.996,179.803 114.549,180.858 115.456 C 181.852 116.311,181.581 116.349,180.271 115.540 C 179.082 114.805,175.704 110.120,175.704 109.206 C 175.704 108.806,176.301 109.086,176.588 109.620 M130.345 110.889 C 130.310 112.182,126.218 115.953,123.157 117.511 C 121.213 118.500,121.133 118.575,122.198 118.417 C 124.028 118.143,126.273 116.888,128.378 114.958 C 130.501 113.013,130.826 113.083,130.165 115.340 C 129.686 116.975,129.814 117.333,130.878 117.333 C 131.616 117.333,131.627 117.356,131.136 117.899 C 128.140 121.209,117.011 119.665,115.118 115.677 C 114.802 115.010,114.668 114.081,114.726 112.961 L 114.815 111.259 117.333 111.346 C 118.719 111.393,120.034 111.309,120.256 111.159 C 120.511 110.987,121.221 111.036,122.182 111.291 C 124.441 111.893,125.584 111.796,127.556 110.837 C 129.957 109.668,130.377 109.676,130.345 110.889 M133.713 114.177 C 133.810 114.772,133.780 115.259,133.647 115.259 C 133.238 115.259,132.794 113.724,132.619 111.704 L 132.453 109.778 132.995 111.436 C 133.293 112.348,133.616 113.581,133.713 114.177 M176.502 112.673 C 178.218 115.723,178.785 117.037,178.385 117.037 C 178.237 117.037,177.830 116.670,177.479 116.222 C 177.127 115.774,176.626 115.330,176.364 115.236 C 175.899 115.068,174.177 110.366,174.473 110.070 C 174.793 109.750,175.025 110.048,176.502 112.673 M183.070 110.394 C 183.128 110.444,182.728 110.602,182.181 110.746 C 181.124 111.024,179.390 110.768,178.881 110.259 C 178.607 109.985,182.745 110.119,183.070 110.394 M173.766 111.757 C 174.017 112.602,174.222 113.462,174.222 113.669 C 174.222 114.490,174.966 115.601,175.903 116.180 C 177.897 117.412,176.202 119.731,171.657 121.987 C 170.136 122.742,168.951 123.420,169.025 123.494 C 169.434 123.903,172.020 123.091,173.640 122.044 C 175.735 120.690,175.903 120.713,175.396 122.276 C 174.039 126.468,170.902 129.481,167.898 129.481 C 166.559 129.481,166.088 128.916,166.700 128.042 C 167.151 127.399,167.142 127.389,166.321 127.618 C 162.374 128.718,158.405 127.649,155.946 124.821 L 154.417 123.063 155.302 122.541 C 158.165 120.849,161.778 116.184,161.778 114.179 C 161.778 113.683,162.040 113.628,164.370 113.628 C 167.115 113.628,168.701 113.060,171.748 110.990 C 173.237 109.979,173.238 109.979,173.766 111.757 M280.665 112.273 C 281.622 114.161,281.624 114.155,280.231 113.676 C 279.299 113.356,279.220 113.260,279.650 112.979 C 280.352 112.520,279.780 111.651,278.568 111.337 C 277.263 110.999,277.384 110.462,278.741 110.575 C 279.757 110.659,279.921 110.804,280.665 112.273 M100.157 113.037 C 100.157 114.675,100.246 115.270,100.444 114.963 C 100.602 114.719,100.732 113.852,100.732 113.037 C 100.732 112.222,100.602 111.356,100.444 111.111 C 100.246 110.804,100.157 111.399,100.157 113.037 M131.831 113.575 C 131.852 115.297,131.498 116.444,130.946 116.444 C 130.785 116.444,130.873 116.109,131.142 115.698 C 131.532 115.103,131.595 114.519,131.453 112.809 C 131.338 111.434,131.371 110.879,131.542 111.259 C 131.690 111.585,131.820 112.627,131.831 113.575 M283.280 111.292 C 284.165 111.554,287.166 112.681,289.950 113.797 C 298.294 117.141,299.867 117.496,310.227 118.368 C 317.993 119.021,321.253 118.705,333.417 116.114 C 337.589 115.226,340.221 114.840,343.262 114.670 C 347.506 114.433,348.919 114.083,350.428 112.897 C 351.764 111.846,353.131 113.537,352.935 115.998 C 352.808 117.594,352.518 117.649,350.967 116.370 C 349.921 115.508,349.613 115.410,348.011 115.437 C 344.292 115.498,338.738 116.123,336.741 116.705 C 335.600 117.037,332.733 117.658,330.370 118.084 C 319.820 119.985,318.625 120.711,323.478 122.273 C 325.933 123.063,325.105 123.042,321.747 122.229 C 318.643 121.477,316.444 121.270,316.444 121.731 C 316.444 121.868,317.878 123.376,319.630 125.082 C 323.061 128.423,322.566 128.163,327.980 129.470 C 331.828 130.399,332.741 131.592,332.741 135.694 C 332.741 137.003,332.616 138.074,332.464 138.074 C 331.860 138.074,327.769 137.145,326.415 136.701 C 324.803 136.172,324.372 135.485,324.021 132.889 C 323.671 130.310,323.299 129.588,321.553 128.097 C 320.632 127.310,318.759 125.506,317.391 124.087 C 315.900 122.541,314.530 121.393,313.971 121.221 C 312.741 120.842,295.733 118.983,295.512 119.204 C 294.802 119.914,297.546 126.500,299.230 128.131 L 300.437 129.298 299.438 130.213 C 298.802 130.796,297.904 131.238,296.968 131.429 L 295.497 131.731 295.702 130.821 C 295.815 130.321,296.078 129.594,296.286 129.205 C 297.152 127.586,294.809 120.160,292.861 118.352 C 291.610 117.192,287.605 115.213,284.718 114.328 C 282.742 113.722,282.436 113.532,282.169 112.746 C 282.002 112.254,281.765 111.619,281.642 111.333 C 281.370 110.704,281.302 110.706,283.280 111.292 M276.678 111.742 C 276.738 112.052,276.500 112.292,276.015 112.414 C 274.322 112.839,275.955 114.205,278.499 114.493 C 280.253 114.691,280.797 114.985,280.451 115.545 C 280.349 115.711,279.876 115.587,279.323 115.249 C 278.303 114.628,275.259 114.417,275.259 114.967 C 275.259 115.133,275.693 115.532,276.222 115.855 C 276.752 116.178,276.985 116.438,276.741 116.434 C 276.496 116.429,276.037 116.230,275.721 115.991 C 275.123 115.538,273.774 115.390,273.782 115.778 C 273.792 116.275,274.341 116.799,275.872 117.774 C 276.757 118.338,277.328 118.803,277.141 118.807 C 276.954 118.811,276.103 118.346,275.252 117.773 C 274.186 117.056,273.594 116.821,273.354 117.020 C 272.870 117.421,272.193 114.228,272.601 113.466 C 272.759 113.170,272.889 112.671,272.889 112.358 C 272.889 111.351,276.493 110.766,276.678 111.742 M231.407 119.980 C 232.119 120.399,232.963 120.591,234.099 120.591 C 236.169 120.593,236.262 120.694,235.382 121.991 C 234.989 122.571,234.667 123.128,234.667 123.228 C 234.667 123.386,233.964 123.673,231.955 124.337 C 231.571 124.463,231.364 124.150,230.998 122.893 C 230.403 120.843,229.118 119.188,226.108 116.593 C 223.634 114.459,223.441 114.167,224.074 113.515 C 224.373 113.207,225.013 113.732,227.407 116.252 C 229.037 117.967,230.837 119.644,231.407 119.980 M217.481 114.370 C 217.481 114.696,217.348 114.963,217.185 114.963 C 217.022 114.963,216.889 114.907,216.889 114.839 C 216.889 114.771,216.808 114.504,216.709 114.246 C 216.591 113.939,216.693 113.778,217.005 113.778 C 217.284 113.778,217.481 114.024,217.481 114.370 M370.301 114.515 C 371.130 115.165,367.472 116.670,366.462 116.094 C 365.815 115.725,365.859 115.696,367.259 115.556 C 368.558 115.426,368.738 115.326,368.718 114.748 C 368.698 114.167,369.673 114.024,370.301 114.515 M363.776 115.537 C 364.299 116.316,364.970 116.753,366.616 117.388 C 368.631 118.167,370.963 119.850,370.963 120.527 C 370.963 120.947,367.579 122.254,365.491 122.640 C 362.012 123.283,359.422 122.896,358.055 121.530 C 357.119 120.594,357.312 120.417,359.863 119.881 C 361.005 119.640,362.337 119.275,362.822 119.069 L 363.704 118.694 362.679 118.583 C 362.115 118.522,360.491 118.772,359.069 119.138 L 356.484 119.805 355.451 119.017 C 353.584 117.592,353.301 115.164,355.082 115.841 C 356.956 116.553,361.481 115.690,361.481 114.621 C 361.481 113.910,363.124 114.567,363.776 115.537 M282.033 117.259 C 282.755 120.145,282.776 119.985,281.610 120.472 L 280.536 120.920 280.639 123.037 L 280.741 125.153 279.704 125.395 C 277.560 125.897,272.575 125.032,272.787 124.196 C 272.855 123.925,273.017 122.637,273.145 121.333 C 273.379 118.965,273.569 118.873,273.916 120.961 C 274.250 122.972,276.444 122.776,276.444 120.735 C 276.444 119.829,276.508 119.767,277.407 119.808 C 278.473 119.857,278.910 118.903,278.209 118.058 C 277.925 117.716,277.945 117.630,278.304 117.630 C 278.552 117.630,279.335 117.298,280.044 116.892 C 281.700 115.946,281.704 115.946,282.033 117.259 M169.661 117.578 C 169.386 118.023,172.706 118.672,173.123 118.255 C 173.577 117.801,173.393 117.712,171.517 117.480 C 170.472 117.351,169.779 117.388,169.661 117.578 M179.496 118.578 C 180.386 119.467,179.738 119.653,178.667 118.815 C 177.974 118.273,177.965 118.235,178.533 118.229 C 178.867 118.225,179.301 118.382,179.496 118.578 M181.342 119.111 C 181.694 119.789,181.685 119.817,181.234 119.445 C 180.963 119.222,180.741 118.833,180.741 118.581 C 180.741 118.043,180.826 118.118,181.342 119.111 M165.037 119.560 C 165.037 119.950,167.064 120.887,167.908 120.888 C 169.565 120.890,169.241 120.382,167.268 119.887 C 165.162 119.358,165.037 119.339,165.037 119.560 M275.556 120.758 C 275.556 121.247,275.087 121.330,274.815 120.889 C 274.573 120.498,274.927 119.943,275.280 120.161 C 275.431 120.255,275.556 120.523,275.556 120.758 M246.005 121.356 C 248.361 122.158,252.097 126.271,253.482 129.585 C 253.902 130.590,253.899 130.598,253.045 130.769 C 252.016 130.975,247.452 130.277,246.503 129.770 C 245.973 129.486,245.498 129.490,244.259 129.787 C 242.314 130.253,242.080 130.093,241.202 127.686 C 240.483 125.712,239.095 124.434,236.989 123.803 C 235.728 123.425,235.736 123.436,236.137 122.688 C 236.601 121.821,239.148 121.034,240.441 121.359 C 240.887 121.471,241.693 122.262,242.486 123.365 C 243.948 125.399,245.824 127.312,246.094 127.042 C 246.357 126.778,245.800 125.876,244.279 124.106 C 243.529 123.233,242.722 122.152,242.487 121.704 L 242.059 120.889 243.347 120.889 C 244.056 120.889,245.252 121.099,246.005 121.356 M328.687 123.712 C 332.660 124.699,332.704 124.726,334.977 127.627 C 336.937 130.129,337.026 130.194,340.370 131.565 L 341.036 131.839 340.416 133.114 C 339.891 134.194,338.104 135.704,337.349 135.704 C 337.259 135.704,337.185 134.895,337.185 133.906 C 337.185 131.669,337.015 131.349,334.328 128.522 C 333.129 127.261,332.148 126.097,332.148 125.937 C 332.148 125.504,330.539 124.737,327.704 123.820 C 324.522 122.791,324.838 122.756,328.687 123.712 M237.494 125.298 C 240.331 126.586,241.669 130.857,239.674 132.254 C 239.329 132.496,239.170 132.845,239.277 133.124 C 239.920 134.800,238.234 141.225,236.630 143.215 C 235.852 144.179,230.957 142.961,228.944 141.302 C 226.271 139.098,225.838 134.980,228.068 132.961 C 228.531 132.543,228.619 132.143,228.526 130.888 C 228.404 129.229,229.044 127.743,230.132 127.158 C 230.628 126.892,230.660 127.027,230.570 129.029 C 230.518 130.215,230.680 132.380,230.932 133.841 C 231.757 138.619,231.961 138.325,231.904 132.435 C 231.833 124.943,233.113 123.308,237.494 125.298 M354.551 128.234 C 357.009 129.550,359.276 134.920,358.212 136.907 C 357.500 138.238,354.067 139.259,350.305 139.259 C 348.572 139.259,347.914 139.380,347.475 139.777 C 345.347 141.702,341.494 139.189,341.134 135.642 C 340.807 132.422,342.717 131.491,348.014 132.292 C 349.825 132.566,351.696 132.740,352.172 132.680 C 354.178 132.424,347.696 130.982,344.482 130.969 C 343.206 130.964,343.083 130.909,343.424 130.499 C 344.181 129.587,345.529 129.113,346.923 129.271 C 348.042 129.397,348.429 129.297,349.248 128.673 C 350.834 127.463,352.806 127.300,354.551 128.234 M306.964 129.214 C 308.208 129.749,308.556 129.787,309.465 129.487 C 313.486 128.160,317.045 134.384,315.131 139.397 C 314.358 141.421,311.059 141.639,306.750 139.950 C 305.518 139.468,304.229 139.178,303.417 139.202 C 299.433 139.318,297.177 134.453,299.836 131.477 C 301.131 130.028,302.196 130.212,307.037 132.719 C 309.278 133.879,311.111 134.714,311.111 134.575 C 311.111 134.092,307.692 131.767,305.233 130.578 C 301.829 128.931,303.411 127.685,306.964 129.214 M325.185 130.617 C 325.628 131.078,330.060 132.795,330.463 132.660 C 330.655 132.596,329.946 132.136,328.888 131.636 C 326.839 130.670,324.661 130.070,325.185 130.617 M245.061 131.584 C 245.483 132.250,245.381 132.444,244.610 132.444 C 242.741 132.444,243.836 134.083,246.402 135.124 C 247.281 135.481,248.000 135.957,248.000 136.183 C 248.000 136.740,247.217 136.704,246.999 136.136 C 246.663 135.261,242.963 134.002,242.963 134.763 C 242.963 134.898,243.296 135.320,243.703 135.703 C 244.832 136.764,244.314 136.799,243.111 135.743 C 241.008 133.897,240.803 135.300,242.855 137.494 C 243.611 138.302,244.086 138.963,243.910 138.963 C 243.734 138.963,243.025 138.292,242.333 137.471 C 241.622 136.628,240.905 136.044,240.686 136.128 C 239.991 136.395,240.173 133.241,240.889 132.593 C 241.215 132.298,241.481 131.834,241.481 131.562 C 241.481 130.914,244.649 130.933,245.061 131.584 M248.798 132.768 C 248.993 133.323,249.159 134.138,249.168 134.579 L 249.185 135.380 248.298 134.875 C 247.336 134.327,247.147 133.926,247.852 133.926 C 248.712 133.926,248.324 132.737,247.259 132.109 C 245.894 131.303,245.935 130.895,247.333 131.376 C 248.180 131.667,248.529 131.998,248.798 132.768 M325.926 132.828 C 325.926 133.397,326.132 134.025,326.390 134.238 C 326.801 134.580,326.843 134.476,326.760 133.335 C 326.645 131.753,325.926 131.316,325.926 132.828 M297.723 134.296 C 297.737 136.637,298.022 137.347,299.528 138.801 C 300.954 140.178,301.030 140.745,299.927 141.768 C 299.269 142.378,299.046 142.953,298.766 144.763 C 298.576 145.996,298.053 147.753,297.605 148.669 L 296.790 150.335 295.781 149.167 C 292.939 145.883,291.437 140.636,292.600 138.057 C 293.310 136.484,293.541 136.634,295.014 139.625 C 295.704 141.025,296.408 142.256,296.578 142.362 C 297.234 142.767,296.838 141.373,295.513 138.610 C 293.987 135.426,294.008 134.649,295.665 133.111 C 297.067 131.809,297.710 132.179,297.723 134.296 M328.123 134.034 C 327.869 134.695,328.098 135.789,328.519 135.927 C 328.768 136.010,328.889 135.708,328.889 135.005 C 328.889 133.900,328.408 133.290,328.123 134.034 M340.130 136.815 C 340.726 139.010,342.754 141.037,344.356 141.037 C 345.382 141.037,345.854 142.751,345.176 144.017 C 344.957 144.426,344.999 145.080,345.324 146.336 C 345.574 147.298,345.778 149.109,345.778 150.359 L 345.778 152.633 343.942 151.650 C 339.722 149.391,336.510 145.074,337.021 142.350 C 337.255 141.106,337.591 141.225,340.000 143.407 C 341.702 144.949,342.815 145.670,342.815 145.231 C 342.815 144.871,340.932 142.951,339.150 141.494 L 337.715 140.322 337.843 138.561 C 337.943 137.178,338.115 136.683,338.648 136.252 C 339.599 135.482,339.788 135.553,340.130 136.815 M248.889 139.556 L 248.889 141.630 247.911 141.630 C 246.726 141.630,246.222 142.079,246.222 143.133 C 246.222 146.408,244.832 146.698,239.926 144.443 C 237.944 143.533,238.002 143.751,239.008 140.980 C 239.999 138.248,240.434 137.747,240.194 139.616 C 240.012 141.038,240.436 141.926,241.298 141.926 C 241.997 141.926,242.722 141.149,242.768 140.351 C 242.802 139.763,242.933 139.599,243.259 139.734 C 244.304 140.169,244.657 140.162,245.040 139.700 C 245.360 139.314,245.371 139.092,245.093 138.646 C 244.784 138.152,244.824 138.083,245.407 138.096 C 245.774 138.105,246.541 137.984,247.111 137.827 C 248.910 137.333,248.889 137.312,248.889 139.556 M359.147 140.741 C 359.696 142.014,359.981 143.194,359.989 144.222 L 360.000 145.778 358.982 145.778 C 357.361 145.778,356.457 146.268,355.982 147.406 C 355.556 148.425,355.516 148.444,353.815 148.444 L 352.083 148.444 352.547 146.586 C 352.966 144.911,353.087 144.728,353.765 144.734 C 354.416 144.740,354.518 144.612,354.517 143.800 C 354.516 143.010,354.646 142.834,355.332 142.697 C 357.259 142.311,356.114 139.966,354.171 140.318 C 352.560 140.609,353.058 140.257,355.436 139.422 C 358.124 138.478,358.180 138.498,359.147 140.741 M241.778 140.148 C 241.778 140.474,241.644 140.741,241.481 140.741 C 241.319 140.741,241.185 140.474,241.185 140.148 C 241.185 139.822,241.319 139.556,241.481 139.556 C 241.644 139.556,241.778 139.822,241.778 140.148 M305.607 140.641 C 306.176 140.913,306.567 141.254,306.477 141.400 C 306.387 141.546,306.602 142.337,306.955 143.158 C 307.308 143.979,307.525 144.722,307.436 144.811 C 307.348 144.899,307.141 144.586,306.976 144.115 C 306.446 142.604,305.914 141.778,305.470 141.778 C 305.023 141.778,305.009 141.946,305.310 143.704 L 305.487 144.741 305.048 143.800 C 303.929 141.403,303.121 144.419,304.170 147.077 C 304.332 147.487,304.279 147.599,303.973 147.499 C 303.686 147.404,303.509 146.702,303.407 145.250 C 303.260 143.154,302.866 142.269,302.248 142.651 C 302.071 142.760,301.926 143.052,301.926 143.298 C 301.926 143.568,301.719 143.705,301.407 143.642 C 300.817 143.522,300.811 142.900,301.385 141.259 C 301.840 139.960,303.629 139.698,305.607 140.641 M351.407 140.655 C 351.407 140.934,351.969 141.734,352.654 142.433 C 353.340 143.132,353.801 143.704,353.680 143.704 C 353.558 143.704,352.935 143.170,352.296 142.519 C 350.590 140.778,349.390 141.084,350.815 142.896 C 351.684 144.001,351.537 144.223,350.595 143.228 C 349.784 142.372,349.782 142.372,349.683 143.053 C 349.548 143.986,350.552 146.337,351.170 146.536 C 351.468 146.631,351.604 146.877,351.504 147.139 C 351.236 147.837,350.283 146.809,349.909 145.419 C 349.605 144.289,348.716 143.111,348.168 143.111 C 347.808 143.111,347.464 144.204,347.702 144.590 C 347.804 144.754,347.779 144.887,347.647 144.884 C 346.376 144.860,345.928 141.456,347.156 141.148 C 347.525 141.055,347.983 140.792,348.172 140.564 C 348.705 139.921,351.407 139.998,351.407 140.655 M355.395 141.313 C 355.614 141.667,355.056 142.019,354.662 141.775 C 354.330 141.570,354.548 141.037,354.963 141.037 C 355.107 141.037,355.301 141.161,355.395 141.313 M312.222 141.923 L 313.778 141.926 313.754 144.222 C 313.705 148.955,313.011 149.849,310.270 148.708 C 309.265 148.289,308.495 148.737,308.080 149.984 C 308.000 150.223,307.397 150.103,306.125 149.594 L 304.287 148.859 305.329 147.641 C 305.902 146.972,306.370 146.252,306.370 146.042 C 306.370 145.744,306.449 145.738,306.726 146.015 C 307.482 146.771,309.157 145.803,308.614 144.924 C 308.529 144.787,308.939 144.689,309.524 144.708 C 311.536 144.770,311.670 143.064,309.705 142.390 C 308.275 141.900,308.147 141.522,309.481 141.733 C 310.133 141.835,311.367 141.921,312.222 141.923 M309.985 143.763 C 309.709 144.040,309.551 144.040,309.274 143.763 C 308.998 143.486,309.077 143.407,309.630 143.407 C 310.183 143.407,310.262 143.486,309.985 143.763 M300.711 145.528 C 300.857 146.245,301.073 146.519,301.494 146.519 C 302.166 146.519,302.508 146.893,302.514 147.637 C 302.518 148.124,302.454 148.130,301.648 147.713 C 300.465 147.101,299.852 146.145,299.852 144.912 C 299.852 143.639,300.406 144.037,300.711 145.528 M347.099 146.035 C 347.441 147.112,348.442 147.773,348.862 147.198 C 349.190 146.750,349.276 146.786,349.741 147.573 C 350.322 148.556,350.151 148.632,348.444 148.145 C 346.988 147.730,346.769 147.535,346.532 146.444 C 346.308 145.411,346.790 145.062,347.099 146.035 " stroke="none" fill="#000000" fill-rule="evenodd"></path></g></svg>